<?xml version="1.0" encoding="UTF-8" standalone="no"?>
<!-- Created with Inkscape (http://www.inkscape.org/) -->

<svg
   xmlns:dc="http://purl.org/dc/elements/1.1/"
   xmlns:cc="http://creativecommons.org/ns#"
   xmlns:rdf="http://www.w3.org/1999/02/22-rdf-syntax-ns#"
   xmlns:svg="http://www.w3.org/2000/svg"
   xmlns="http://www.w3.org/2000/svg"
   xmlns:sodipodi="http://sodipodi.sourceforge.net/DTD/sodipodi-0.dtd"
   xmlns:inkscape="http://www.inkscape.org/namespaces/inkscape"
   width="1000"
   height="1000"
   viewBox="0 0 264.58333 264.58334"
   version="1.1"
   id="svg8"
   inkscape:version="0.92.4 5da689c313, 2019-01-14"
   sodipodi:docname="world-area.svg">
  <defs
     id="defs2">
    <marker
       inkscape:stockid="Arrow1Lstart"
       orient="auto"
       refY="0.0"
       refX="0.0"
       id="marker1165"
       style="overflow:visible"
       inkscape:isstock="true">
      <path
         id="path1163"
         d="M 0.0,0.0 L 5.0,-5.0 L -12.5,0.0 L 5.0,5.0 L 0.0,0.0 z "
         style="fill-rule:evenodd;stroke:#5473b9;stroke-width:1pt;stroke-opacity:1;fill:#5473b9;fill-opacity:1"
         transform="scale(0.8) translate(12.5,0)" />
    </marker>
    <marker
       inkscape:stockid="Arrow1Lstart"
       orient="auto"
       refY="0.0"
       refX="0.0"
       id="marker1143"
       style="overflow:visible"
       inkscape:isstock="true">
      <path
         id="path1141"
         d="M 0.0,0.0 L 5.0,-5.0 L -12.5,0.0 L 5.0,5.0 L 0.0,0.0 z "
         style="fill-rule:evenodd;stroke:#5473b9;stroke-width:1pt;stroke-opacity:1;fill:#5473b9;fill-opacity:1"
         transform="scale(0.8) translate(12.5,0)" />
    </marker>
    <marker
       inkscape:stockid="Arrow1Lstart"
       orient="auto"
       refY="0.0"
       refX="0.0"
       id="Arrow1Lstart"
       style="overflow:visible"
       inkscape:isstock="true">
      <path
         id="path865"
         d="M 0.0,0.0 L 5.0,-5.0 L -12.5,0.0 L 5.0,5.0 L 0.0,0.0 z "
         style="fill-rule:evenodd;stroke:#5473b9;stroke-width:1pt;stroke-opacity:1;fill:#5473b9;fill-opacity:1"
         transform="scale(0.8) translate(12.5,0)" />
    </marker>
  </defs>
  <sodipodi:namedview
     id="base"
     pagecolor="#ffffff"
     bordercolor="#666666"
     borderopacity="1.0"
     inkscape:pageopacity="0.0"
     inkscape:pageshadow="2"
     inkscape:zoom="0.35000001"
     inkscape:cx="26.936442"
     inkscape:cy="867.59819"
     inkscape:document-units="mm"
     inkscape:current-layer="svg8"
     showgrid="false"
     units="px"
     inkscape:window-width="1920"
     inkscape:window-height="1021"
     inkscape:window-x="0"
     inkscape:window-y="0"
     inkscape:window-maximized="1"
     inkscape:snap-smooth-nodes="false"
     inkscape:snap-intersection-paths="false"
     inkscape:snap-bbox="true"
     inkscape:snap-bbox-midpoints="true"
     inkscape:object-paths="false"
     inkscape:snap-nodes="false"
     inkscape:snap-bbox-edge-midpoints="false"
     inkscape:snap-object-midpoints="true"
     inkscape:bbox-nodes="true" />
  <metadata
     id="metadata5">
    <rdf:RDF>
      <cc:Work
         rdf:about="">
        <dc:format>image/svg+xml</dc:format>
        <dc:type
           rdf:resource="http://purl.org/dc/dcmitype/StillImage" />
        <dc:title></dc:title>
      </cc:Work>
    </rdf:RDF>
  </metadata>
  <g
     inkscape:label="map"
     transform="matrix(1.3826439,0,0,1.3826439,-52.333614,-48.99657)"
     id="g1970">
    <path
       style="opacity:1;fill:#e2e4d6;fill-opacity:1;fill-rule:nonzero;stroke:none;stroke-width:3.59019303;stroke-linecap:round;stroke-linejoin:round;stroke-miterlimit:4;stroke-dasharray:none;stroke-opacity:1;paint-order:stroke markers fill"
       d="M 380.90625,86.820312 199.20312,188.48438 156.02344,659.26172 337.72656,557.59766 v -0.004 l 270.81446,99.85937 v -0.002 L 810.16211,557.61523 853.3418,86.837891 651.7207,186.67578 v 0.002 z"
       transform="matrix(0.26458333,0,0,0.26458333,0,32.41665)"
       id="rect1794"
       inkscape:connector-curvature="0"
       inkscape:label="paper" />
    <path
       style="opacity:1;fill:#6d9f7f;fill-opacity:1;fill-rule:nonzero;stroke:none;stroke-width:3.59019303;stroke-linecap:round;stroke-linejoin:round;stroke-miterlimit:4;stroke-dasharray:none;stroke-opacity:1;paint-order:stroke markers fill"
       d="m 834.87109,117.54492 -185.2207,91.7168 -28.46094,310.28125 c 5.35688,-3.58897 10.77618,-6.47366 16.26953,-8.39453 24.4647,-17.31251 26.56706,-55.91801 28.41797,-81.10742 21.97728,-62.46479 70.75946,-100.93671 109.86914,-123.41016 0.64063,-0.33865 1.28067,-0.6601 1.91797,-0.96484 9.56194,-4.58642 18.73522,-5.58821 26.43555,-3.14649 5.98893,5.65089 9.61994,13.87732 11.62891,23.73047 z M 621.18945,519.54297 649.64844,209.26172 569.80469,179.82031 c -85.54333,72.58755 56.97664,132.09562 -41.28711,115.3711 -36.38419,-6.19265 -45.34885,29.64856 -85.0332,33.11718 -36.72794,3.21022 -43.34415,-48.76168 -79.41407,-57.93554 -1.95771,1.40012 -4.04984,3.18622 -6.30664,5.44922 -7.57362,7.59454 -77.61045,57.35891 -37.17383,84.4082 15.07428,10.0837 -39.65102,45.36682 -61.77148,60.87891 1.83159,4.93205 2.84731,10.40619 2.78125,16.56054 7.56244,32.68993 -23.90062,-5.79927 -31.38672,41.91602 0.53705,31.0066 26.48115,14.52262 43.18359,4.54883 33.21541,3.65147 -24.49419,50.6349 -27.26562,102.88671 -0.008,0.11074 -0.0206,0.29829 -0.0293,0.41602 l 93.69727,-52.42383 59.05859,21.77735 c -11.23997,-15.92459 -15.62841,-37.259 -4.47461,-48.50196 34.88538,-23.23982 83.78662,8.87999 125.22657,18.75586 32.91488,-2.50813 65.88886,-15.6104 101.58007,-7.50195 z"
       transform="matrix(0.26458333,0,0,0.26458333,0,32.41665)"
       id="path1796"
       inkscape:connector-curvature="0"
       inkscape:label="grass" />
    <path
       style="opacity:1;fill:#e8eeba;fill-opacity:1;fill-rule:nonzero;stroke:none;stroke-width:5.15203524;stroke-linecap:round;stroke-linejoin:round;stroke-miterlimit:4;stroke-dasharray:none;stroke-opacity:1;paint-order:stroke markers fill"
       d="m 794.875,301.23047 c -5.40796,0.10041 -11.23275,1.56703 -17.20898,4.43359 -0.63738,0.30501 -1.27727,0.62413 -1.91797,0.96289 -39.10969,22.47345 -87.89183,60.94726 -109.86914,123.41211 -1.85095,25.18946 -3.95332,63.79496 -28.41797,81.10742 -5.49373,1.92102 -10.91427,4.80715 -16.27149,8.39649 -35.69072,-8.10784 -68.66557,4.9919 -101.58007,7.5 -41.43992,-9.87583 -90.34115,-41.99572 -125.22657,-18.75586 -11.15372,11.24292 -6.76345,32.57737 4.47657,48.50195 l 211.7539,78.08008 156.88086,-77.68359 c 8.79424,-5.81295 17.59481,-11.9045 26.40625,-18.33789 1.08367,-2.28511 2.0606,-4.54479 2.95117,-6.78125 l 18.87891,-205.81836 c -2.00905,-9.85316 -5.63998,-18.07959 -11.62891,-23.73047 -2.88762,-0.91566 -5.98178,-1.34736 -9.22656,-1.28711 z M 196.88867,366.59375 172.875,628.4082 246.10156,587.4375 c 0.011,-0.11943 0.0214,-0.3058 0.0293,-0.41602 2.77141,-52.25174 60.48108,-99.23528 27.26562,-102.88671 -16.70239,9.97375 -42.64646,26.45769 -43.18359,-4.54883 7.48612,-47.71533 38.94918,-9.22613 31.38672,-41.91602 0.43028,-40.07826 -44.83465,-51.38321 -64.71094,-71.07617 z"
       transform="matrix(0.26458333,0,0,0.26458333,0,32.41665)"
       id="path1798"
       inkscape:connector-curvature="0"
       inkscape:label="sand" />
    <path
       style="opacity:1;fill:#70411b;fill-opacity:1;fill-rule:nonzero;stroke:none;stroke-width:6.21386242;stroke-linecap:round;stroke-linejoin:round;stroke-miterlimit:4;stroke-dasharray:none;stroke-opacity:1;paint-order:stroke markers fill"
       d="m 440.28125,132.06055 c -0.0302,7.67152 0.13957,21.51914 1.61914,29.53711 -20.86239,5.56524 -38.69636,16.82637 -55.97266,28.82812 -4.01393,-5.2234 -8.43134,-10.22635 -13.15234,-14.95703 -12.10341,-4.00877 -27.59444,-0.57057 -43.01953,10.13672 -19.1121,13.63045 -28.59228,4.91866 -36.2207,8.90625 -4.89002,2.55615 -9.01817,10.3294 -14.43555,32.55273 -3.84436,7.05238 -31.64298,38.9325 -37.03516,40.98047 -18.82861,19.31116 -28.93416,51.74535 -40.33203,45.74414 l -8.36719,91.2168 c 43.83617,-4.36861 26.84894,45.00026 60.17383,19.89648 16.66247,-12.55192 83.50663,-53.664 67.05078,-64.67187 -40.43661,-27.04936 29.60021,-76.81366 37.17383,-84.4082 2.2568,-2.263 4.34893,-4.0491 6.30664,-5.44922 36.06992,9.17386 42.68609,61.14576 79.41407,57.93554 39.68435,-3.46862 48.64901,-39.30979 85.0332,-33.11718 98.26375,16.72452 -44.25622,-42.78355 41.28711,-115.3711 z"
       transform="matrix(0.26458333,0,0,0.26458333,0,32.41665)"
       id="path1778"
       inkscape:connector-curvature="0"
       inkscape:label="mountains" />
    <path
       style="opacity:1;fill:#ffffff;fill-opacity:1;fill-rule:nonzero;stroke:none;stroke-width:6.21386242;stroke-linecap:round;stroke-linejoin:round;stroke-miterlimit:4;stroke-dasharray:none;stroke-opacity:1;paint-order:stroke markers fill"
       d="m 378.83398,109.4043 -166.92187,93.39258 -10.17969,110.99218 c 11.39787,6.00121 21.50342,-26.43298 40.33203,-45.74414 5.39218,-2.04797 33.1908,-33.92809 37.03516,-40.98047 13.86848,-56.89172 19.2928,-19.09105 50.65625,-41.45898 15.42509,-10.70729 30.91612,-14.14549 43.01953,-10.13672 z m -6.05859,66.06445 c 4.721,4.73068 9.13841,9.73363 13.15234,14.95703 17.2763,-12.00175 35.11027,-23.26288 55.97266,-28.82812 -1.47968,-8.01797 -1.64809,-21.86559 -1.61914,-29.53711 L 378.83594,109.4043 Z"
       transform="matrix(0.26458333,0,0,0.26458333,0,32.41665)"
       id="path1780"
       inkscape:connector-curvature="0"
       inkscape:label="snow" />
    <path
       style="opacity:1;fill:#5c9fd7;fill-opacity:1;fill-rule:nonzero;stroke:none;stroke-width:5.15203524;stroke-linecap:round;stroke-linejoin:round;stroke-miterlimit:4;stroke-dasharray:none;stroke-opacity:1;paint-order:stroke markers fill"
       d="m 337.4668,132.54883 -6.83399,3.82422 c 3.20764,23.62433 10.80388,45.7938 22.52735,51.91797 5.48153,2.86346 11.86815,2.28693 18.3125,1.38671 v -0.002 c 12.02109,8.07389 24.15053,15.70487 34.24414,27.51758 18.38827,21.52009 33.35304,43.94596 39.32617,62.07226 2.98651,9.06309 3.77406,16.92186 2.0918,23.48633 -1.68227,6.56448 -5.82638,12.10482 -13.77539,16.27735 -17.50534,9.18878 -45.16116,24.74954 -42.99024,48.68945 1.08548,11.96995 10.58116,37.08638 19.64844,47.17969 9.06724,10.09338 34.36296,12.61823 51.68945,15.81836 32.97245,6.09029 56.62475,8.52444 79.91016,17.82226 17.42524,-3.09827 28.97594,13.15864 35.625,19.86133 6.64902,6.70273 10.76951,14.36346 12.2207,24.99414 2.21412,16.2203 3.25686,29.40915 3.73633,39.06641 -10.7732,-1.03333 -20.00086,2.53882 -26.73828,15.85156 -15.48579,30.59887 -216.18289,-92.76554 -146.8125,16.14453 l 190.96289,70.41406 8.95117,-97.58593 c -7.08359,-9.11278 -13.89669,-21.39195 -15.95312,-36.45704 -1.78398,-13.06891 3.94503,-32.31158 -15.30274,-43.53124 -22.27899,-12.98669 -29.11383,-22.06337 -41.67773,-27.08008 -25.12778,-10.0334 -55.45064,2.45903 -72.8418,-11.94532 -26.3221,-13.07629 -27.1483,3.95113 -45.55078,-14.60937 -6.73712,-7.49957 -10.23157,-16.64383 -11.12305,-26.47461 -1.78299,-19.66148 8.00165,-40.97687 22.13281,-48.39453 9.32644,-4.89555 24.79311,-8.54097 27.06446,-17.4043 2.27134,-8.86333 -2.72074,-40.33757 -6.22266,-50.96484 -7.00396,-21.25456 -28.93845,-26.96633 -48.01758,-49.29492 -11.02072,-12.8978 -25.4054,-25.59389 -39.08593,-37.94141 -6.65534,-1.25092 -13.05946,-2.59896 -18.03711,-5.19922 -10.64289,-5.55968 -14.81168,-16.56326 -17.48047,-35.43945 z m 282.0957,404.73633 -8.94922,97.58593 185.22266,-91.71679 18.54687,-202.20899 c -9.85818,-22.52141 -25.60655,-23.52043 -43.07617,-14.75 -25.53252,12.81835 -54.74273,46.50536 -74.61719,64.36914 -33.47278,30.08648 -10.0583,94.33762 -40.01367,125.88477 -11.57151,12.18644 -23.32087,17.5018 -34.32617,22.43359 -0.92504,-0.43623 -1.86018,-0.97127 -2.78711,-1.59765 z m 115.11328,-56.7168 c 2.31838,0.10008 4.85464,1.02939 7.63281,3.10352 18.75799,14.00435 -8.5579,7.16948 -10.18945,40.74609 -0.003,0.0699 4.25322,3.66179 -13.05078,18.06055 0,0 -11.52683,14.62467 -15.5332,12.92578 -6.07828,-2.57753 -3.31517,-18.72516 -1.04493,-30.04492 1.60041,-7.97991 2.70593,-28.51327 9.80665,-24.04493 3.68687,2.32014 9.85966,-21.2865 22.3789,-20.74609 z"
       transform="matrix(0.26458333,0,0,0.26458333,0,32.41665)"
       id="path1804"
       inkscape:connector-curvature="0"
       inkscape:label="water" />
    <path
       style="opacity:1;fill:#000000;fill-opacity:0.19607843;fill-rule:nonzero;stroke:none;stroke-width:2.07279897;stroke-linecap:round;stroke-linejoin:round;stroke-miterlimit:4;stroke-dasharray:none;stroke-opacity:1;paint-order:stroke markers fill"
       d="M 380.90625,86.820312 199.20117,188.48438 156.02344,659.25977 337.72656,557.5957 Z m 472.43555,0.01953 -201.6211,99.837888 -43.17968,470.77539 201.62109,-99.83789 z"
       transform="matrix(0.26458333,0,0,0.26458333,0,32.41665)"
       id="rect1828"
       inkscape:connector-curvature="0"
       inkscape:label="shadow" />
  </g>
</svg>
