<?xml version="1.0" encoding="UTF-8" standalone="no"?>
<!-- Created with Inkscape (http://www.inkscape.org/) -->

<svg
   xmlns:dc="http://purl.org/dc/elements/1.1/"
   xmlns:cc="http://creativecommons.org/ns#"
   xmlns:rdf="http://www.w3.org/1999/02/22-rdf-syntax-ns#"
   xmlns:svg="http://www.w3.org/2000/svg"
   xmlns="http://www.w3.org/2000/svg"
   xmlns:sodipodi="http://sodipodi.sourceforge.net/DTD/sodipodi-0.dtd"
   xmlns:inkscape="http://www.inkscape.org/namespaces/inkscape"
   width="1000"
   height="1000"
   viewBox="0 0 264.58333 264.58334"
   version="1.1"
   id="svg8"
   inkscape:version="0.92.4 (5da689c313, 2019-01-14)"
   sodipodi:docname="cow.svg">
  <defs
     id="defs2">
    <inkscape:path-effect
       effect="mirror_symmetry"
       start_point="132.29167,127.79927"
       end_point="132.29167,201.61738"
       center_point="132.29167,164.70833"
       id="path-effect849"
       is_visible="true"
       mode="free"
       discard_orig_path="false"
       fuse_paths="false"
       oposite_fuse="false" />
    <inkscape:path-effect
       effect="mirror_symmetry"
       start_point="134.30435,158.75637"
       end_point="134.30435,184.30165"
       center_point="134.30435,171.52901"
       id="path-effect847"
       is_visible="true"
       mode="free"
       discard_orig_path="false"
       fuse_paths="false"
       oposite_fuse="false" />
    <inkscape:path-effect
       effect="mirror_symmetry"
       start_point="134.30435,160.23932"
       end_point="134.30435,193.39032"
       center_point="134.30435,176.81482"
       id="path-effect840"
       is_visible="true"
       mode="free"
       discard_orig_path="false"
       fuse_paths="false"
       oposite_fuse="false" />
    <inkscape:path-effect
       effect="mirror_symmetry"
       start_point="134.30435,188.05949"
       end_point="134.30435,329.92485"
       center_point="134.30435,258.99217"
       id="path-effect832"
       is_visible="true"
       mode="free"
       discard_orig_path="false"
       fuse_paths="true"
       oposite_fuse="false" />
    <inkscape:path-effect
       effect="mirror_symmetry"
       start_point="134.30435,201.31741"
       end_point="134.30435,260.11705"
       center_point="134.30435,230.71723"
       id="path-effect825"
       is_visible="true"
       mode="free"
       discard_orig_path="false"
       fuse_paths="true"
       oposite_fuse="false" />
  </defs>
  <sodipodi:namedview
     id="base"
     pagecolor="#ffffff"
     bordercolor="#666666"
     borderopacity="1.0"
     inkscape:pageopacity="0.0"
     inkscape:pageshadow="2"
     inkscape:zoom="0.24748738"
     inkscape:cx="-120.31334"
     inkscape:cy="840.43715"
     inkscape:document-units="px"
     inkscape:current-layer="svg8"
     showgrid="false"
     units="px"
     inkscape:window-width="1920"
     inkscape:window-height="1137"
     inkscape:window-x="1272"
     inkscape:window-y="-8"
     inkscape:window-maximized="1"
     inkscape:snap-object-midpoints="true" />
  <metadata
     id="metadata5">
    <rdf:RDF>
      <cc:Work
         rdf:about="">
        <dc:format>image/svg+xml</dc:format>
        <dc:type
           rdf:resource="http://purl.org/dc/dcmitype/StillImage" />
        <dc:title></dc:title>
      </cc:Work>
    </rdf:RDF>
  </metadata>
  <g
     inkscape:label="Ebene 1"
     id="layer1"
     transform="matrix(4.2468175,0,0,4.2468175,-341.73945,-484.09143)">
    <path
       style="fill:#c0c0c0;fill-opacity:1;stroke:none;stroke-width:0.99999994px;stroke-linecap:butt;stroke-linejoin:miter;stroke-opacity:1"
       d="m 431.07227,343.92773 -29.28711,2.14454 -8.33008,-16.05665 -9.34375,-6.06054 -13.63867,15.6582 3.09961,18.95899 -5.71485,15.35546 -8.21484,-0.71289 -15.71485,3.21289 L 310.35742,410 332.14258,417.14258 361.07227,410 375,445 389.64258,460.71484 386.78516,473.92773 377.5,505 l 19.28516,21.42773 39.28711,3.21485 22.14257,-18.57031 L 457.85742,482.5 450,470.35742 l -0.71484,-7.5 17.14257,-12.14258 10.35743,-39.64257 44.41406,3.375 12.1875,-6.13282 -36.60156,-31.17187 -11.29493,-3.59375 -12.2539,2.64844 -11.09375,-25.83985 -0.25,-11.7539 -9.34375,-16.16407 -16.16211,5.30469 z"
       transform="matrix(0.26458333,0,0,0.26458333,0,32.41665)"
       id="path837"
       inkscape:connector-curvature="0"
       sodipodi:nodetypes="cccccccccccccccccccccccccccccccccc" />
    <path
       style="fill:#2c2c2c;fill-opacity:1;stroke:none;stroke-width:0.99999994px;stroke-linecap:butt;stroke-linejoin:miter;stroke-opacity:1"
       d="m 431.07227,343.92773 c 0,0 -11.25075,2.76174 -11.60743,7.32227 -0.59198,7.56986 11.57643,9.83558 17.14258,15 3.73349,3.46409 6.28416,8.54653 10.89258,10.71484 5.79334,2.72591 12.77123,2.88279 19.10742,1.96289 2.36497,-0.34318 6.62891,-2.73046 6.62891,-2.73046 l -11.09375,-25.83985 z m -29.28711,2.14454 -28.21289,12.5 -5.71485,15.35546 c 0,0 9.07292,28.76491 16.96485,41.42969 3.36718,5.40355 6.32276,14.67366 12.67773,14.28516 4.18598,-0.25588 6.4569,-6.22005 7.14258,-10.35742 1.3248,-7.99363 -8.39404,-15.48933 -6.60742,-23.39258 1.13465,-5.01933 7.6477,-7.12747 10.17968,-11.60742 2.88987,-5.11314 6.0665,-10.95482 5.35743,-16.78516 -0.70009,-5.75618 -6.49131,-9.64734 -9.10743,-14.82227 -1.07217,-2.12088 -2.67968,-6.60546 -2.67968,-6.60546 z m -42.14258,27.14257 -15.71485,3.21289 L 310.35742,410 344.28516,397.85742 Z m 125.84765,0.33399 8.80079,24.64844 39.0957,10.11718 -36.60156,-31.17187 z m -55.88085,13.5664 c -3.7481,0.072 -7.57211,3.28709 -9.25196,6.63477 -2.35306,4.68926 -0.0944,10.56199 0.89258,15.71484 1.6289,8.50402 3.52517,17.36393 8.21484,24.64258 3.0341,4.70907 6.88086,10.08861 12.32032,11.42774 4.19225,1.03207 9.01603,-0.84265 12.5,-3.39258 3.37084,-2.46716 5.4292,-6.58476 6.78711,-10.53516 2.58395,-7.51714 3.19759,-15.8715 2.14257,-23.75 -0.36245,-2.70682 -0.51188,-6.28088 -2.85742,-7.67969 -2.58108,-1.53925 -5.94378,1.59031 -8.92969,1.25 -3.80023,-0.43309 -7.4956,-2.037 -10.71289,-4.10546 -4.07161,-2.61771 -5.53943,-9.71371 -10.35742,-10.17969 -0.24854,-0.024 -0.49817,-0.0322 -0.74804,-0.0274 z"
       transform="matrix(0.26458333,0,0,0.26458333,0,32.41665)"
       id="path835"
       inkscape:connector-curvature="0" />
    <path
       style="opacity:1;fill:#959595;fill-opacity:1;fill-rule:nonzero;stroke:none;stroke-width:64.16889191;stroke-linecap:round;stroke-linejoin:miter;stroke-miterlimit:4;stroke-dasharray:none;stroke-opacity:1;paint-order:markers stroke fill"
       d="m 458.09375,406.42969 a 8.5862966,14.142135 15 0 0 -10.23242,11.60742 8.5862966,14.142135 15 0 0 4.63281,15.88086 8.5862966,14.142135 15 0 0 11.95313,-11.4375 8.5862966,14.142135 15 0 0 -4.63282,-15.88281 8.5862966,14.142135 15 0 0 -1.7207,-0.16797 z m -83.14844,2.50195 a 14.142135,8.5862966 75 0 0 -1.7207,0.16797 14.142135,8.5862966 75 0 0 -4.63477,15.88281 14.142135,8.5862966 75 0 0 11.95508,11.4375 14.142135,8.5862966 75 0 0 4.63281,-15.88086 14.142135,8.5862966 75 0 0 -10.23242,-11.60742 z"
       transform="matrix(0.26458333,0,0,0.26458333,0,32.41665)"
       id="circle863"
       inkscape:connector-curvature="0" />
    <path
       style="fill:#e7a176;fill-opacity:1;stroke:none;stroke-width:0.99999994px;stroke-linecap:butt;stroke-linejoin:miter;stroke-opacity:1"
       d="M 361.76367,397.11133 344.28516,397.85742 310.35742,410 332.14258,417.14258 361.07227,410 Z m 116.27149,0.92383 -1.25,13.03711 44.41406,3.375 12.1875,-6.13282 -39.0957,-10.11718 z M 450,470.35742 440.71484,482.5 424.64258,482.85742 412.5,474.64258 402.14258,482.85742 392.5,479.64258 386.78516,473.92773 377.5,505 l 19.28516,21.42773 39.28711,3.21485 22.14257,-18.57031 L 457.85742,482.5 Z"
       transform="matrix(0.26458333,0,0,0.26458333,0,32.41665)"
       id="path833"
       inkscape:connector-curvature="0"
       sodipodi:nodetypes="ccccccccccccccccccccccccc" />
    <path
       style="fill:#000000;fill-opacity:1;stroke:none;stroke-width:0.99999994px;stroke-linecap:butt;stroke-linejoin:miter;stroke-opacity:1"
       d="m 452.54883,322.43945 -16.16211,5.30469 -5.31445,16.18359 31.07031,6.42969 -0.25,-11.7539 z m -68.4375,1.51563 -13.63867,15.6582 3.09961,18.95899 28.21289,-12.5 -8.33008,-16.05665 z m 68.25781,92.51758 c -1.37131,0.0648 -3.00357,0.58892 -4.38281,1.13672 -0.043,0.14212 -0.0847,0.28471 -0.125,0.42773 -0.0395,0.15983 -0.0772,0.32001 -0.11328,0.48047 1.88876,-0.23153 4.2942,-0.3735 5.75781,0.2207 2.14927,0.87254 2.72635,4.09649 4.87891,4.96094 1.46726,0.58926 4.02406,0.3131 5.67578,0.0527 0.14076,-0.41921 0.26981,-0.8435 0.38672,-1.27148 0.1879,-0.71536 0.34137,-1.43828 0.45898,-2.16211 -1.82183,0.54405 -4.59321,1.2164 -6.28516,0.72461 -2.16676,-0.62982 -2.87093,-3.98023 -5.07031,-4.48438 -0.35636,-0.0817 -0.75575,-0.10609 -1.18164,-0.0859 z m -71.69922,2.5 c -0.42589,-0.0201 -0.82528,0.004 -1.18164,0.0859 -2.19939,0.50415 -2.90355,3.85456 -5.07031,4.48438 -1.69196,0.49179 -4.46333,-0.1786 -6.28516,-0.72266 0.11695,0.72375 0.26977,1.44667 0.45703,2.16211 0.11757,0.42803 0.24727,0.85233 0.38868,1.27149 1.65172,0.26032 4.20853,0.53647 5.67578,-0.0527 2.15255,-0.86445 2.72961,-4.08839 4.8789,-4.96094 1.46362,-0.5942 3.86905,-0.45222 5.75782,-0.2207 -0.036,-0.16046 -0.0738,-0.32064 -0.11329,-0.48047 -0.0403,-0.14302 -0.082,-0.28561 -0.125,-0.42773 -1.37923,-0.5478 -3.0115,-1.07389 -4.38281,-1.13867 z m 12.53125,76.70898 c -4.7418,2e-4 -8.58574,3.84414 -8.58594,8.58594 2e-4,4.7418 3.84414,8.58574 8.58594,8.58594 4.74256,8.8e-4 8.58769,-3.84338 8.58789,-8.58594 -2e-4,-4.74256 -3.84533,-8.58682 -8.58789,-8.58594 z m 46.21485,3.0293 c -4.74256,2e-4 -8.58682,3.84533 -8.58594,8.58789 2e-4,4.7418 3.84414,8.58574 8.58594,8.58594 4.7418,-2e-4 8.58573,-3.84414 8.58593,-8.58594 8.8e-4,-4.74256 -3.84337,-8.58769 -8.58593,-8.58789 z"
       transform="matrix(0.26458333,0,0,0.26458333,0,32.41665)"
       id="path867"
       inkscape:connector-curvature="0"
       sodipodi:nodetypes="ccccccccccccccccccccccccccccccccccccccccccccccc" />
  </g>
</svg>
