<?xml version="1.0" encoding="UTF-8" standalone="no"?>
<!-- Created with Inkscape (http://www.inkscape.org/) -->

<svg
   xmlns:dc="http://purl.org/dc/elements/1.1/"
   xmlns:cc="http://creativecommons.org/ns#"
   xmlns:rdf="http://www.w3.org/1999/02/22-rdf-syntax-ns#"
   xmlns:svg="http://www.w3.org/2000/svg"
   xmlns="http://www.w3.org/2000/svg"
   xmlns:sodipodi="http://sodipodi.sourceforge.net/DTD/sodipodi-0.dtd"
   xmlns:inkscape="http://www.inkscape.org/namespaces/inkscape"
   width="1000"
   height="1000"
   viewBox="0 0 264.58333 264.58334"
   version="1.1"
   id="svg8"
   inkscape:version="0.92.2 (5c3e80d, 2017-08-06)"
   sodipodi:docname="type_masterquest.svg">
  <defs
     id="defs2">
    <inkscape:path-effect
       effect="mirror_symmetry"
       start_point="132.29167,127.79927"
       end_point="132.29167,201.61738"
       center_point="132.29167,164.70833"
       id="path-effect849"
       is_visible="true"
       mode="free"
       discard_orig_path="false"
       fuse_paths="false"
       oposite_fuse="false" />
    <inkscape:path-effect
       effect="mirror_symmetry"
       start_point="134.30435,158.75637"
       end_point="134.30435,184.30165"
       center_point="134.30435,171.52901"
       id="path-effect847"
       is_visible="true"
       mode="free"
       discard_orig_path="false"
       fuse_paths="false"
       oposite_fuse="false" />
    <inkscape:path-effect
       effect="mirror_symmetry"
       start_point="134.30435,160.23932"
       end_point="134.30435,193.39032"
       center_point="134.30435,176.81482"
       id="path-effect840"
       is_visible="true"
       mode="free"
       discard_orig_path="false"
       fuse_paths="false"
       oposite_fuse="false" />
    <inkscape:path-effect
       effect="mirror_symmetry"
       start_point="134.30435,188.05949"
       end_point="134.30435,329.92485"
       center_point="134.30435,258.99217"
       id="path-effect832"
       is_visible="true"
       mode="free"
       discard_orig_path="false"
       fuse_paths="true"
       oposite_fuse="false" />
    <inkscape:path-effect
       effect="mirror_symmetry"
       start_point="134.30435,201.31741"
       end_point="134.30435,260.11705"
       center_point="134.30435,230.71723"
       id="path-effect825"
       is_visible="true"
       mode="free"
       discard_orig_path="false"
       fuse_paths="true"
       oposite_fuse="false" />
  </defs>
  <sodipodi:namedview
     id="base"
     pagecolor="#ffffff"
     bordercolor="#666666"
     borderopacity="1.0"
     inkscape:pageopacity="0.0"
     inkscape:pageshadow="2"
     inkscape:zoom="0.49497475"
     inkscape:cx="77.721276"
     inkscape:cy="404.85767"
     inkscape:document-units="mm"
     inkscape:current-layer="layer1"
     showgrid="false"
     units="px"
     inkscape:window-width="1920"
     inkscape:window-height="1137"
     inkscape:window-x="-8"
     inkscape:window-y="-8"
     inkscape:window-maximized="1"
     inkscape:snap-object-midpoints="true" />
  <metadata
     id="metadata5">
    <rdf:RDF>
      <cc:Work
         rdf:about="">
        <dc:format>image/svg+xml</dc:format>
        <dc:type
           rdf:resource="http://purl.org/dc/dcmitype/StillImage" />
        <dc:title></dc:title>
      </cc:Work>
    </rdf:RDF>
  </metadata>
  <g
     inkscape:label="Ebene 1"
     inkscape:groupmode="layer"
     id="layer1"
     transform="translate(0,-32.41665)">
    <path
       style="font-style:normal;font-variant:normal;font-weight:normal;font-stretch:normal;font-size:153.52583313px;line-height:346.94372559px;font-family:Triforce;-inkscape-font-specification:Triforce;text-align:center;letter-spacing:0px;word-spacing:0px;text-anchor:middle;fill:#ffffff;fill-opacity:1;stroke:none;stroke-width:14.50637531"
       d="m 740.15039,207.55078 c -16.24714,0 -32.29985,2.12761 -48.16016,6.38281 -15.47347,4.25521 -30.36672,10.44479 -44.67968,18.56836 -13.92613,8.12357 -26.88502,17.98865 -38.87696,29.59375 -11.99194,11.21827 -22.62998,23.98392 -31.91406,38.29688 -15.47347,22.04969 -26.30475,47.19451 -32.49414,75.43359 -6.18939,28.23908 -9.28516,58.0256 -9.28516,89.35938 0,35.20214 3.6755,68.6622 11.02539,100.38281 7.3499,31.33378 20.30879,58.41296 38.87696,81.23633 9.28408,11.21826 19.53564,21.08334 30.7539,29.59375 11.60511,8.51041 23.59584,16.05268 35.97461,22.6289 -10.83143,1.16051 -22.04919,3.67461 -33.65429,7.54297 -11.21827,3.86837 -22.43603,9.47823 -33.6543,16.82813 -10.83143,7.3499 -21.08299,16.44005 -30.75391,27.27148 -9.67091,10.83143 -18.18135,23.59708 -25.53125,38.29688 l 4.0625,3.48242 c 12.76562,-12.37878 27.85212,-23.21006 45.25977,-32.49414 17.40765,-9.28408 35.97445,-16.63507 55.70312,-22.05078 19.72868,-5.02888 39.65207,-7.92945 59.76758,-8.70313 20.50235,-0.38683 39.84407,1.74077 58.02539,6.38281 19.34184,5.02888 35.97622,11.02522 49.90235,17.98829 13.92612,7.34989 27.27149,13.92596 40.03711,19.72851 12.76561,6.18939 26.11098,11.02433 40.03711,14.50586 13.92612,3.48153 30.5605,4.06126 49.90234,1.74024 3.86837,-9.28409 8.51007,-20.30861 13.92578,-33.07422 5.80255,-12.76562 11.41241,-24.95154 16.82813,-36.55664 6.18938,-13.53929 12.76545,-27.46439 19.72851,-41.77735 l -75.43359,60.92578 c -5.41572,0.77368 -11.21882,0.77368 -17.40821,0 -5.41571,-0.38683 -11.21686,-1.35304 -17.40625,-2.90039 -6.18938,-1.54734 -12.37897,-3.86819 -18.56836,-6.96289 -7.73673,-4.2552 -14.89447,-8.12394 -21.4707,-11.60547 -6.18939,-3.48153 -13.9249,-6.18886 -23.20898,-8.12304 17.02081,-4.64204 31.72083,-11.41135 44.09961,-20.3086 12.76561,-8.51041 24.94958,-20.30985 36.55468,-35.39648 8.51041,-11.21827 16.24788,-24.17716 23.21094,-38.87696 7.3499,-14.69979 13.53948,-30.17277 18.56836,-46.41992 5.02888,-16.63398 8.89761,-33.65484 11.60547,-51.0625 2.70786,-17.79449 4.06055,-35.20184 4.06055,-52.22265 0,-30.17327 -3.4803,-58.80034 -10.44336,-85.87891 -6.96306,-27.46541 -16.6349,-51.64207 -29.01367,-72.53125 -19.34184,-30.94694 -43.5185,-55.12555 -72.53125,-72.5332 -28.62592,-17.79449 -59.76708,-26.69141 -93.42188,-26.69141 z m -721.107421,6.38281 58.605469,35.39649 v 431.1289 L 19.623047,715.85547 H 175.13281 L 122.9082,679.29883 V 354.35547 l 146.22461,361.5 164.21289,-361.5 v 328.42578 l -55.125,33.07422 H 562.74219 L 502.97656,682.78125 V 249.33008 l 63.24805,-35.39649 H 449.5918 L 293.50391,574.85352 137.99609,213.93359 Z m 718.787111,24.95118 c 20.88918,-0.38684 39.45793,5.41626 55.70508,17.4082 16.63398,11.6051 30.55907,27.853 41.77734,48.74219 11.6051,20.50234 20.30878,44.48576 26.11133,71.95117 5.80255,27.46541 8.70508,56.86544 8.70508,88.19922 0,30.94694 -2.70929,59.95853 -8.125,87.03711 -5.41572,26.69173 -13.53967,50.09542 -24.3711,70.21093 -10.83143,20.11551 -24.37004,35.97693 -40.61719,47.58203 -16.24714,11.99194 -35.39561,18.17957 -57.44531,18.56641 -20.50234,0.38684 -39.0711,-5.41431 -55.70508,-17.40625 -16.24714,-11.6051 -29.979,-27.65976 -41.19726,-48.16211 -11.21827,-20.11551 -19.92194,-43.71244 -26.11133,-70.79101 -5.80255,-27.07858 -8.70312,-56.09017 -8.70312,-87.03711 0,-31.33378 3.09381,-60.54057 9.2832,-87.61914 6.18939,-27.46541 14.89306,-51.25559 26.11133,-71.3711 11.21826,-20.50234 24.75688,-36.75025 40.61718,-48.74219 16.24715,-11.99193 34.23617,-18.18152 53.96485,-18.56835 z m -616.66211,22.05078 68.4707,117.21093 -4.64258,31.91407 -27.27148,-19.72852 z m 531.36523,0 c -4.2552,3.86836 -8.70561,8.51006 -13.34765,13.92578 -4.25521,5.41571 -8.51042,11.02362 -12.76563,16.82617 -4.2552,5.80255 -8.12198,11.60565 -11.60351,17.4082 -3.0947,5.80255 -5.41555,11.02593 -6.96289,15.66797 -2.32102,6.57623 -4.64383,14.69822 -6.96485,24.36914 -1.93418,9.28408 -3.67335,20.31056 -5.2207,33.07617 l -17.98828,27.85157 -15.08789,-27.85157 c 0.38683,-5.02887 1.74148,-10.44549 4.0625,-16.24804 2.32102,-6.18939 4.83511,-12.37897 7.54297,-18.56836 3.09469,-6.18939 6.19046,-11.7973 9.28515,-16.82617 3.0947,-5.41572 5.80203,-9.86613 8.12305,-13.34766 6.18939,-8.51041 14.50658,-17.98705 24.95117,-28.43164 10.44459,-10.44459 22.43728,-19.72799 35.97656,-27.85156 z m 172.91602,0 c 13.53928,8.12357 25.53002,17.40697 35.97461,27.85156 10.44459,10.44459 18.76178,19.92123 24.95117,28.43164 2.32102,3.48153 5.02835,7.93194 8.12305,13.34766 3.09469,5.02887 5.99722,10.63678 8.70507,16.82617 3.0947,6.18939 5.60879,12.37897 7.54297,18.56836 2.32102,5.80255 3.86891,11.21917 4.64258,16.24804 l -15.08789,27.85157 -17.98828,-27.85157 c -1.54735,-12.76561 -3.47976,-23.79209 -5.80078,-33.07617 -1.93418,-9.67092 -4.06179,-17.79291 -6.38281,-24.36914 -1.54735,-4.64204 -4.06339,-9.86542 -7.54493,-15.66797 -3.09469,-5.80255 -6.76823,-11.60565 -11.02343,-17.4082 -4.25521,-5.80255 -8.70367,-11.41046 -13.34571,-16.82617 -4.64204,-5.41572 -8.89725,-10.05742 -12.76562,-13.92578 z m -354.9668,3.48047 17.40625,134.03906 -17.98633,27.85156 -17.4082,-27.85156 z m -277.94336,163.63281 22.63086,15.08594 -5.80273,26.11132 -24.3711,-14.50586 z m 377.01758,8.12305 16.82617,22.04882 -16.82617,22.63086 -15.66797,-22.63086 z m 338.86914,0 15.66602,22.04882 -15.66602,22.63086 -16.82812,-22.63086 z m -438.52344,9.86523 17.98633,22.04883 -17.98633,22.63086 -16.82812,-22.63086 z m -251.25195,42.9375 24.95117,19.72851 36.55664,133.45899 -67.31054,-121.85352 z m 356.12695,20.89062 17.98828,27.85157 c 0,10.05775 0.38649,19.72763 1.16016,29.01172 1.16051,8.89724 4.06304,20.11696 8.70508,33.65625 4.64204,13.53928 11.41135,27.27114 20.30859,41.19726 9.28409,13.92612 17.98776,24.75741 26.11133,32.49414 -13.53928,-8.12357 -25.14353,-17.98669 -34.81445,-29.59179 -9.67092,-11.21827 -18.37655,-22.82447 -26.11328,-34.81641 -7.3499,-11.21827 -13.73273,-23.40419 -19.14844,-36.55664 -5.02888,-13.53929 -8.12269,-25.33678 -9.2832,-35.39453 z m 328.42578,0 15.08594,27.85157 c -1.16051,10.05775 -4.44756,21.85524 -9.86328,35.39453 -5.02888,13.15245 -11.21846,25.33837 -18.56836,36.55664 -7.73673,11.99194 -16.44041,23.59814 -26.11133,34.81641 -9.67091,11.6051 -21.27712,21.46822 -34.8164,29.59179 8.12357,-7.73673 16.634,-18.56802 25.53125,-32.49414 9.28408,-13.92612 16.24663,-27.65798 20.88867,-41.19726 4.64204,-13.53929 7.35133,-24.75901 8.125,-33.65625 1.16051,-9.28409 1.74023,-18.95397 1.74023,-29.01172 z m -432.14062,2.90039 16.82617,27.27149 -17.40625,137.52148 -16.82812,-137.52148 z"
       transform="matrix(0.26458333,0,0,0.26458333,0,32.41665)"
       id="text826"
       inkscape:connector-curvature="0" />
  </g>
</svg>
