<?xml version="1.0" encoding="UTF-8" standalone="no"?>
<!-- Created with Inkscape (http://www.inkscape.org/) -->

<svg
   xmlns:dc="http://purl.org/dc/elements/1.1/"
   xmlns:cc="http://creativecommons.org/ns#"
   xmlns:rdf="http://www.w3.org/1999/02/22-rdf-syntax-ns#"
   xmlns:svg="http://www.w3.org/2000/svg"
   xmlns="http://www.w3.org/2000/svg"
   xmlns:sodipodi="http://sodipodi.sourceforge.net/DTD/sodipodi-0.dtd"
   xmlns:inkscape="http://www.inkscape.org/namespaces/inkscape"
   width="1000"
   height="1000"
   viewBox="0 0 264.58333 264.58334"
   version="1.1"
   id="svg8"
   inkscape:version="0.92.2 (5c3e80d, 2017-08-06)"
   sodipodi:docname="type_undefined.svg">
  <defs
     id="defs2">
    <inkscape:path-effect
       effect="mirror_symmetry"
       start_point="132.29167,127.79927"
       end_point="132.29167,201.61738"
       center_point="132.29167,164.70833"
       id="path-effect849"
       is_visible="true"
       mode="free"
       discard_orig_path="false"
       fuse_paths="false"
       oposite_fuse="false" />
    <inkscape:path-effect
       effect="mirror_symmetry"
       start_point="134.30435,158.75637"
       end_point="134.30435,184.30165"
       center_point="134.30435,171.52901"
       id="path-effect847"
       is_visible="true"
       mode="free"
       discard_orig_path="false"
       fuse_paths="false"
       oposite_fuse="false" />
    <inkscape:path-effect
       effect="mirror_symmetry"
       start_point="134.30435,160.23932"
       end_point="134.30435,193.39032"
       center_point="134.30435,176.81482"
       id="path-effect840"
       is_visible="true"
       mode="free"
       discard_orig_path="false"
       fuse_paths="false"
       oposite_fuse="false" />
    <inkscape:path-effect
       effect="mirror_symmetry"
       start_point="134.30435,188.05949"
       end_point="134.30435,329.92485"
       center_point="134.30435,258.99217"
       id="path-effect832"
       is_visible="true"
       mode="free"
       discard_orig_path="false"
       fuse_paths="true"
       oposite_fuse="false" />
    <inkscape:path-effect
       effect="mirror_symmetry"
       start_point="134.30435,201.31741"
       end_point="134.30435,260.11705"
       center_point="134.30435,230.71723"
       id="path-effect825"
       is_visible="true"
       mode="free"
       discard_orig_path="false"
       fuse_paths="true"
       oposite_fuse="false" />
  </defs>
  <sodipodi:namedview
     id="base"
     pagecolor="#ffffff"
     bordercolor="#666666"
     borderopacity="1.0"
     inkscape:pageopacity="0.0"
     inkscape:pageshadow="2"
     inkscape:zoom="0.7"
     inkscape:cx="214.40379"
     inkscape:cy="456.99251"
     inkscape:document-units="px"
     inkscape:current-layer="layer1"
     showgrid="false"
     units="px"
     inkscape:window-width="1920"
     inkscape:window-height="1137"
     inkscape:window-x="-8"
     inkscape:window-y="-8"
     inkscape:window-maximized="1"
     inkscape:snap-object-midpoints="true" />
  <metadata
     id="metadata5">
    <rdf:RDF>
      <cc:Work
         rdf:about="">
        <dc:format>image/svg+xml</dc:format>
        <dc:type
           rdf:resource="http://purl.org/dc/dcmitype/StillImage" />
        <dc:title></dc:title>
      </cc:Work>
    </rdf:RDF>
  </metadata>
  <g
     inkscape:label="Ebene 1"
     inkscape:groupmode="layer"
     id="layer1"
     transform="translate(0,-32.41665)">
    <path
       style="font-style:normal;font-variant:normal;font-weight:normal;font-stretch:normal;font-size:115.11989594px;line-height:1.25;font-family:Triforce;-inkscape-font-specification:Triforce;text-align:center;letter-spacing:0px;word-spacing:0px;text-anchor:middle;fill:#ffffff;fill-opacity:1;stroke:none;stroke-width:10.87747097"
       d="m 474.29883,37.490234 c -12.18277,0 -24.22058,1.594432 -36.11328,4.785157 -11.60264,3.190724 -22.76952,7.832444 -33.50196,13.923828 -10.44237,6.091383 -20.1603,13.487476 -29.15234,22.189453 -8.99204,8.41191 -16.96811,17.984359 -23.92969,28.716798 -11.60263,16.53375 -19.72613,35.38769 -24.36718,56.5625 -4.64106,21.17481 -6.96094,43.51052 -6.96094,67.00586 0,26.39599 2.75632,51.48608 8.26758,75.27148 5.51125,23.49534 15.22722,43.80018 29.15039,60.91407 14.79336,17.69401 32.48735,31.18273 53.08203,40.46484 20.59467,9.57217 41.77045,14.35742 63.52539,14.35742 21.46487,0 41.76971,-3.77079 60.91406,-11.3125 19.43441,-7.25165 36.11199,-20.01491 50.03516,-38.28906 6.38145,-8.41191 12.18311,-18.12789 17.40429,-29.15039 5.51126,-11.02251 10.15298,-22.62583 13.92383,-34.8086 3.77086,-12.47283 6.67071,-25.23609 8.70117,-38.28906 2.03046,-13.34303 3.04688,-26.3953 3.04688,-39.1582 0,-22.62514 -2.61085,-44.08992 -7.83203,-64.39453 C 615.271,145.68462 608.01844,127.55614 598.73633,111.89258 584.23303,88.687308 566.10455,70.556871 544.34961,57.503906 522.88473,44.160876 499.53456,37.490234 474.29883,37.490234 Z M 16.914062,42.275391 77.392578,73.603516 V 386.00391 L 23.441406,418.63672 H 152.23047 L 108.7207,386.43945 V 135.38672 l 190.13868,294.5625 V 73.167969 L 334.97266,42.275391 H 228.80859 l 41.76953,30.892578 V 280.71094 L 103.93359,42.275391 Z m 648.548828,0 -42.20508,85.279299 76.57813,-60.478518 h 80.05859 V 390.35547 l -45.68555,28.28125 H 874.31055 L 830.80078,389.48438 V 67.076172 h 75.70703 l 76.57813,60.478518 -36.98438,-85.279299 z m -192.9043,18.708984 c 15.66356,-0.290066 29.58677,4.062645 41.76953,13.054687 12.47284,8.701977 22.91427,20.883318 31.32618,36.546878 8.70197,15.37349 15.22909,33.35845 19.58008,53.95312 4.35098,20.59468 6.52539,42.63943 6.52539,66.13477 0,23.20527 -2.02893,44.96101 -6.08985,65.26562 -4.06092,20.01455 -10.15354,37.56306 -18.27539,52.64649 -8.12184,15.08342 -18.27426,26.97576 -30.45703,35.67773 -12.18277,8.99204 -26.54046,13.63376 -43.07422,13.92383 -15.37349,0.29007 -29.2967,-4.06069 -41.76953,-13.05273 -12.18277,-8.70198 -22.48067,-20.73979 -30.89258,-36.11329 -8.41191,-15.08342 -14.93707,-32.77742 -19.57812,-53.08203 -4.35099,-20.30461 -6.52735,-42.06035 -6.52735,-65.26562 0,-23.49534 2.32184,-45.39461 6.96289,-65.69922 4.64106,-20.59468 11.16622,-38.43415 19.57813,-53.51758 8.41191,-15.37349 18.56433,-27.556785 30.45703,-36.548827 12.18277,-8.992042 25.67148,-13.633762 40.46484,-13.923828 z M 805.13086,70.992188 818.18359,171.5 805.56445,192.38477 792.51172,171.5 Z m -396.53125,6.527343 c -3.19073,2.900659 -6.52702,6.380484 -10.00781,10.441407 -3.19073,4.060922 -6.38154,8.268152 -9.57227,12.619142 -3.19072,4.35099 -6.09253,8.70174 -8.70312,13.05273 -2.32053,4.35099 -4.06044,8.26726 -5.22071,11.74805 -1.74039,4.93112 -3.4803,11.02179 -5.2207,18.27344 -1.45033,6.96158 -2.75575,15.2286 -3.91602,24.80078 l -13.48828,20.88476 -11.3125,-20.88476 c 0.29007,-3.77086 1.30453,-7.83261 3.04492,-12.1836 1.7404,-4.64105 3.62579,-9.28082 5.65626,-13.92187 2.32052,-4.64105 4.64236,-8.84828 6.96289,-12.61914 2.32052,-4.06092 4.3514,-7.39722 6.09179,-10.00781 4.64106,-6.38145 10.87721,-13.48658 18.70899,-21.318363 7.83178,-7.831779 16.82425,-14.793382 26.97656,-20.884766 z m 129.6582,0 c 10.15231,6.091384 19.14479,13.052987 26.97657,20.884766 7.83177,7.831783 14.06793,14.936913 18.70898,21.318363 1.74039,2.61059 3.77127,5.94689 6.0918,10.00781 2.32052,3.77086 4.49493,7.97809 6.52539,12.61914 2.32052,4.64105 4.20592,9.28082 5.65625,13.92187 1.74039,4.35099 2.90229,8.41274 3.48242,12.1836 l -11.3125,20.88476 -13.48828,-20.88476 c -1.16027,-9.57218 -2.61117,-17.8392 -4.35156,-24.80078 -1.45033,-7.25165 -3.04672,-13.34232 -4.78711,-18.27344 -1.16027,-3.48079 -3.04566,-7.39706 -5.65625,-11.74805 -2.32053,-4.35099 -5.0749,-8.70174 -8.26563,-13.05273 -3.19072,-4.35099 -6.52702,-8.55822 -10.00781,-12.619142 -3.48079,-4.060923 -6.67161,-7.540748 -9.57227,-10.441407 z m -428.23242,10.876953 66.57031,76.578126 0.8711,24.36523 -22.19141,-10.00781 z m 75.70703,113.124996 18.70899,7.83204 -0.4336,20.44921 -19.58008,-7.39648 z m 619.83203,5.65625 11.74805,16.53516 -11.74805,16.96875 -12.61718,-16.96875 z m -459.18554,1.74024 12.61914,16.53515 -12.61914,16.96876 -11.7461,-16.96876 z m 254.09765,0 11.74805,16.53515 -11.74805,16.96876 -12.61718,-16.96876 z m -386.89648,33.93945 21.31836,10.44141 46.12109,93.54687 -67.00586,-79.62304 z M 806,257.21484 818.18359,277.66406 804.69531,380.7832 793.38281,277.66406 Z m -455.70508,6.96094 13.48828,20.88477 c 0,7.54171 0.29097,14.79428 0.8711,21.75586 0.87019,6.67151 3.0446,15.08402 6.52539,25.23632 3.48079,10.15231 8.557,20.44826 15.22851,30.89063 6.96158,10.44237 13.4887,18.56392 19.58008,24.36523 -10.1523,-6.09138 -18.85382,-13.48747 -26.10547,-22.18945 -7.25164,-8.41191 -13.77876,-17.11343 -19.58008,-26.10547 -5.51125,-8.41191 -10.2965,-17.54987 -14.35742,-27.41211 -3.77085,-10.1523 -6.09269,-18.9993 -6.96289,-26.54101 z m 246.26563,0 11.3125,20.88477 c -0.8702,7.54171 -3.33557,16.38871 -7.39649,26.54101 -3.77085,9.86224 -8.41062,19.0002 -13.92187,27.41211 -5.80132,8.99204 -12.32843,17.69356 -19.58008,26.10547 -7.25165,8.70198 -15.95316,16.09807 -26.10547,22.18945 6.09138,-5.80131 12.47302,-13.92286 19.14453,-24.36523 6.96158,-10.44237 12.18132,-20.73832 15.66211,-30.89063 3.48079,-10.1523 5.51167,-18.56481 6.0918,-25.23632 0.8702,-6.96158 1.30664,-14.21415 1.30664,-21.75586 z m -475.99024,321.97461 34.8086,27.8457 V 935.5332 l -33.06836,26.97657 h 89.19531 c 23.49534,0 43.80017,-3.04534 60.91406,-9.13672 17.40395,-5.80132 32.19614,-13.63386 44.37891,-23.4961 12.18277,-9.57217 22.19166,-20.59357 30.02344,-33.0664 7.83177,-12.18277 13.92244,-24.65507 18.27343,-37.41797 10.44237,-30.16685 14.64765,-64.25137 12.61719,-102.25 -0.58013,-22.62514 -3.62547,-42.34806 -9.13672,-59.17188 -5.22118,-17.11388 -11.89183,-31.76254 -20.01367,-43.94531 -8.12184,-12.47283 -17.40528,-22.77073 -27.84766,-30.89258 -10.1523,-8.12184 -20.59373,-14.64896 -31.32617,-19.58008 -24.94566,-11.60263 -53.08304,-17.40234 -84.41015,-17.40234 z m 228.17188,0 44.38086,30.89063 v 315.88281 l -43.51172,29.58594 H 597.18359 L 621.54883,875.05469 562.375,934.22852 H 444.89844 v -147.0625 h 77.88281 l 29.15234,56.99804 V 704.49609 l -30.02148,58.30274 H 444.89844 V 610.51562 h 114.43164 l 61.7832,64.83008 -23.92969,-89.19531 z m 261.73828,0 44.38086,30.89063 v 315.88281 l -43.50977,29.58594 H 748.8418 l -42.20313,-28.28125 v -147.0625 h 77.88281 l 29.1504,56.99804 V 704.49609 l -30.02149,58.30274 H 706.63867 V 610.51562 h 114.42969 l 56.12891,64.83008 -18.27539,-89.19531 z m -405.06641,26.54102 h 8.70313 c 3.77085,0 7.54164,0.14352 11.3125,0.43359 4.06092,0 7.97523,0.14548 11.74609,0.43555 3.77086,0.29006 6.67267,0.72455 8.70313,1.30468 11.0225,3.19073 20.59495,7.68697 28.71679,13.48829 8.41191,5.80131 15.51704,12.61939 21.31836,20.45117 6.09139,7.54171 11.02407,15.66326 14.79492,24.36523 4.06093,8.41191 7.25174,16.96795 9.57227,25.66992 5.51125,20.30462 8.26563,42.34937 8.26563,66.13477 0.87019,30.45692 -1.0152,55.54896 -5.65626,75.27344 -4.64105,19.72448 -10.44271,35.6766 -17.40429,47.85937 -6.67152,11.8927 -13.77665,20.7397 -21.31836,26.54102 -7.25165,6.09138 -13.48975,10.58762 -18.71094,13.48828 -3.19072,2.03046 -8.12145,3.33588 -14.79297,3.91601 -6.67151,0.8702 -13.34215,1.59565 -20.01367,2.17579 -7.83178,0.58013 -16.24429,0.72561 -25.23633,0.43554 z m 212.94336,6.52539 13.05274,100.50781 -12.61719,20.88477 -13.05274,-20.88477 z m 261.74024,0 13.05273,100.50781 -12.61914,20.88477 -13.05273,-20.88477 z m -501.22461,1.74023 13.05273,100.50781 -12.61719,20.88477 -13.05273,-20.88477 z m 115.73633,2.61133 c 10.1523,6.09138 19.14478,13.05299 26.97656,20.88476 7.83178,7.83178 14.06793,14.93887 18.70898,21.32032 1.7404,2.61059 3.77127,5.94493 6.0918,10.00586 2.32053,3.77085 4.49493,7.97808 6.52539,12.61914 2.32053,4.64105 4.20592,9.28082 5.65625,13.92187 1.74039,4.35099 2.90229,8.41274 3.48242,12.1836 L 350.73828,735.38867 337.25,714.50391 c -1.16026,-9.57218 -2.61117,-17.8392 -4.35156,-24.80079 -1.45033,-7.25164 -3.04672,-13.34231 -4.78711,-18.27343 -1.16027,-3.48079 -3.04566,-7.39706 -5.65625,-11.74805 -2.32053,-4.35099 -5.0749,-8.70175 -8.26563,-13.05273 -3.19072,-4.35099 -6.52702,-8.55822 -10.00781,-12.61914 -3.48079,-4.06093 -6.67161,-7.54075 -9.57226,-10.44141 z m 59.17382,126.61328 11.74805,16.5332 -11.74805,16.96875 -12.61718,-16.96875 z m 65.00977,5.2207 11.74805,16.53516 -11.74805,16.96875 -12.61719,-16.96875 z m 261.73828,0 11.74805,16.53516 -11.74805,16.96875 -12.61719,-16.96875 z m -501.22266,1.74024 11.74805,16.53515 -11.74805,16.96875 -12.61718,-16.96875 z m 173.16993,43.94531 11.3125,20.88477 c -0.8702,7.54171 -3.33557,16.38871 -7.39649,26.54101 -3.77086,9.86224 -8.41258,19.0002 -13.92383,27.41211 -5.80131,8.99204 -12.32843,17.69356 -19.58008,26.10547 -7.25164,8.70198 -15.95316,16.09807 -26.10546,22.18945 6.09138,-5.80131 12.47301,-13.92286 19.14453,-24.36523 6.96158,-10.44237 12.18327,-20.74027 15.66406,-30.89258 3.48079,-10.15231 5.50971,-18.56286 6.08984,-25.23437 0.8702,-6.96159 1.30664,-14.21415 1.30664,-21.75586 z m 66.75,4.35156 12.18164,20.44922 -13.48828,103.11914 -11.3125,-103.11914 z m 261.73828,0 12.18359,20.44922 -13.48828,103.11914 -11.3125,-103.11914 z m -501.22266,1.74024 12.18164,20.44922 L 178.4375,930.74805 167.125,827.62891 Z"
       transform="matrix(0.26458333,0,0,0.26458333,0,32.41665)"
       id="text822"
       inkscape:connector-curvature="0" />
  </g>
</svg>
