<?xml version="1.0" encoding="UTF-8" standalone="no"?>
<!-- Created with Inkscape (http://www.inkscape.org/) -->

<svg
   xmlns:dc="http://purl.org/dc/elements/1.1/"
   xmlns:cc="http://creativecommons.org/ns#"
   xmlns:rdf="http://www.w3.org/1999/02/22-rdf-syntax-ns#"
   xmlns:svg="http://www.w3.org/2000/svg"
   xmlns="http://www.w3.org/2000/svg"
   xmlns:sodipodi="http://sodipodi.sourceforge.net/DTD/sodipodi-0.dtd"
   xmlns:inkscape="http://www.inkscape.org/namespaces/inkscape"
   width="1000"
   height="1000"
   viewBox="0 0 264.58333 264.58334"
   version="1.1"
   id="svg8"
   inkscape:version="0.92.4 (5da689c313, 2019-01-14)"
   sodipodi:docname="area.svg">
  <defs
     id="defs2" />
  <sodipodi:namedview
     id="base"
     pagecolor="#ffffff"
     bordercolor="#666666"
     borderopacity="1.0"
     inkscape:pageopacity="0.0"
     inkscape:pageshadow="2"
     inkscape:zoom="0.49497476"
     inkscape:cx="686.68339"
     inkscape:cy="491.37964"
     inkscape:document-units="mm"
     inkscape:current-layer="layer1"
     showgrid="false"
     units="px"
     inkscape:window-width="1920"
     inkscape:window-height="1137"
     inkscape:window-x="-8"
     inkscape:window-y="-8"
     inkscape:window-maximized="1"
     inkscape:snap-smooth-nodes="true"
     inkscape:snap-intersection-paths="true"
     inkscape:snap-bbox="true"
     inkscape:snap-bbox-midpoints="true"
     inkscape:object-paths="false"
     inkscape:snap-nodes="false"
     inkscape:snap-bbox-edge-midpoints="true" />
  <metadata
     id="metadata5">
    <rdf:RDF>
      <cc:Work
         rdf:about="">
        <dc:format>image/svg+xml</dc:format>
        <dc:type
           rdf:resource="http://purl.org/dc/dcmitype/StillImage" />
        <dc:title></dc:title>
      </cc:Work>
    </rdf:RDF>
  </metadata>
  <g
     inkscape:label="Ebene 1"
     inkscape:groupmode="layer"
     id="layer1"
     transform="translate(0,-32.41665)">
    <path
       style="color:#000000;font-style:normal;font-variant:normal;font-weight:normal;font-stretch:normal;font-size:medium;line-height:normal;font-family:sans-serif;font-variant-ligatures:normal;font-variant-position:normal;font-variant-caps:normal;font-variant-numeric:normal;font-variant-alternates:normal;font-feature-settings:normal;text-indent:0;text-align:start;text-decoration:none;text-decoration-line:none;text-decoration-style:solid;text-decoration-color:#000000;letter-spacing:normal;word-spacing:normal;text-transform:none;writing-mode:lr-tb;direction:ltr;text-orientation:mixed;dominant-baseline:auto;baseline-shift:baseline;text-anchor:start;white-space:normal;shape-padding:0;clip-rule:nonzero;display:inline;overflow:visible;visibility:visible;opacity:1;isolation:auto;mix-blend-mode:normal;color-interpolation:sRGB;color-interpolation-filters:linearRGB;solid-color:#000000;solid-opacity:1;vector-effect:none;fill:#000000;fill-opacity:1;fill-rule:nonzero;stroke:none;stroke-width:13.22916603;stroke-linecap:round;stroke-linejoin:miter;stroke-miterlimit:4;stroke-dasharray:none;stroke-dashoffset:0;stroke-opacity:1;paint-order:markers stroke fill;color-rendering:auto;image-rendering:auto;shape-rendering:auto;text-rendering:auto;enable-background:accumulate"
       d="m 132.29299,50.453011 c -31.37975,1e-6 -57.062149,25.680029 -57.062149,57.060079 -2e-6,9.72349 3.414477,19.79861 7.697722,31.17794 4.321296,11.48042 9.924729,24.02007 15.499312,35.75131 0.0024,0.005 0.0047,0.01 0.0072,0.015 -16.242193,2.09229 -30.987605,5.64916 -43.435589,10.51822 -10.314689,4.03461 -19.209284,8.95206 -26.128638,15.351 -6.996893,6.47065 -12.301059,15.17998 -12.301059,25.31732 0,10.13736 5.304314,18.8463 12.301059,25.3168 6.919351,6.39894 15.813955,11.31638 26.128638,15.351 20.654692,8.07913 47.602284,12.65194 77.292434,12.65194 29.69016,0 56.63775,-4.57281 77.29244,-12.65194 10.31475,-4.03465 19.20891,-8.95219 26.12812,-15.351 6.99674,-6.4705 12.30106,-15.17944 12.30106,-25.3168 0,-10.13735 -5.30417,-18.84667 -12.30106,-25.31732 -6.91921,-6.39881 -15.81336,-11.31636 -26.12812,-15.351 -12.44816,-4.86913 -27.19388,-8.4254 -43.43611,-10.5177 0.003,-0.005 0.005,-0.0101 0.008,-0.0155 5.57436,-11.73081 11.17937,-24.27039 15.50086,-35.75131 4.2835,-11.38 7.69565,-21.45559 7.69565,-31.17794 0,-31.379643 -25.67981,-57.060084 -57.05956,-57.060082 z"
       id="path917"
       inkscape:connector-curvature="0"
       sodipodi:nodetypes="cssccssscsssssssccsscc" />
    <path
       style="color:#000000;font-style:normal;font-variant:normal;font-weight:normal;font-stretch:normal;font-size:medium;line-height:normal;font-family:sans-serif;font-variant-ligatures:normal;font-variant-position:normal;font-variant-caps:normal;font-variant-numeric:normal;font-variant-alternates:normal;font-feature-settings:normal;text-indent:0;text-align:start;text-decoration:none;text-decoration-line:none;text-decoration-style:solid;text-decoration-color:#000000;letter-spacing:normal;word-spacing:normal;text-transform:none;writing-mode:lr-tb;direction:ltr;text-orientation:mixed;dominant-baseline:auto;baseline-shift:baseline;text-anchor:start;white-space:normal;shape-padding:0;clip-rule:nonzero;display:inline;overflow:visible;visibility:visible;opacity:1;isolation:auto;mix-blend-mode:normal;color-interpolation:sRGB;color-interpolation-filters:linearRGB;solid-color:#000000;solid-opacity:1;vector-effect:none;fill:#e5e5e5;fill-opacity:1;fill-rule:nonzero;stroke:none;stroke-width:26.45833206;stroke-linecap:round;stroke-linejoin:miter;stroke-miterlimit:4;stroke-dasharray:none;stroke-dashoffset:0;stroke-opacity:1;paint-order:markers stroke fill;color-rendering:auto;image-rendering:auto;shape-rendering:auto;text-rendering:auto;enable-background:accumulate"
       d="m 132.29299,57.067595 c -27.78265,1e-6 -50.447565,22.662874 -50.447565,50.445495 -3e-6,8.0481 3.057721,17.64787 7.273456,28.84785 4.215739,11.19998 9.75613,23.61082 15.283309,35.2423 11.05432,23.26295 22.08599,43.42939 22.08599,43.42938 l 5.80481,10.61124 5.80275,-10.61124 c 0,0 11.03167,-20.16643 22.08599,-43.42938 5.52717,-11.63148 11.06911,-24.04232 15.28485,-35.2423 4.21574,-11.19998 7.27139,-20.79975 7.27139,-28.84785 0,-27.782621 -22.66233,-50.445498 -50.44498,-50.445495 z m 0,13.22865 c 20.63306,-3e-6 37.21686,16.583797 37.21685,37.216845 0,4.05584 -2.4211,13.55342 -6.4239,24.18767 -4.0028,10.63426 -9.42092,22.7954 -14.8518,34.22427 -6.22664,13.10347 -11.75477,23.86034 -15.94115,31.82854 -4.18639,-7.9682 -9.71704,-18.72497 -15.94373,-31.82854 -5.4309,-11.42887 -10.84642,-23.59001 -14.84922,-34.22427 -4.002805,-10.63425 -6.425965,-20.13183 -6.425965,-24.18767 0,-20.633045 16.585855,-37.216845 37.218915,-37.216845 z m -0.001,18.241779 c -10.48023,3e-6 -18.9761,8.495887 -18.9761,18.976096 0,10.48023 8.49587,18.97611 18.9761,18.97611 10.48024,0 18.9761,-8.49588 18.9761,-18.97611 0,-10.480209 -8.49586,-18.976096 -18.9761,-18.976096 z m 0,90.400686 c -0.90961,0 -1.81665,0.005 -2.72076,0.0134 0.91768,1.84817 1.83059,3.6962 2.73213,5.54488 0.92794,-1.84727 1.85727,-3.69566 2.7864,-5.54385 -0.92987,-0.009 -1.86208,-0.0145 -2.79777,-0.0145 z m -30.20022,1.71255 c -16.926238,1.97444 -32.162864,5.58753 -44.682543,10.48463 -9.805291,3.83536 -17.978778,8.43476 -24.047111,14.04669 -6.068332,5.61192 -10.177673,12.64117 -10.177673,20.46128 0,7.82012 4.109341,14.84885 10.177673,20.46077 6.068333,5.61192 14.24182,10.21132 24.047111,14.04669 19.610578,7.67072 45.880933,12.1977 74.882763,12.1977 29.00183,0 55.27219,-4.52698 74.88277,-12.1977 9.80529,-3.83537 17.97826,-8.43477 24.04659,-14.04669 6.06833,-5.61192 10.17768,-12.64065 10.17768,-20.46077 0,-7.82011 -4.10935,-14.84936 -10.17768,-20.46128 -6.06833,-5.61193 -14.2413,-10.21133 -24.04659,-14.04669 -12.49204,-4.88629 -27.68952,-8.49388 -44.57092,-10.47119 -2.08623,4.23363 -4.21762,8.44724 -6.38462,12.64419 17.94208,1.73641 33.88151,5.35333 46.13723,10.14718 8.74232,3.41958 15.57797,7.45882 19.88251,11.43961 4.30453,3.98078 5.93193,7.49763 5.93193,10.74818 0,3.25056 -1.6274,6.7674 -5.93193,10.74818 -4.30454,3.98078 -11.14019,8.01953 -19.88251,11.4391 -17.48463,6.83916 -42.46091,11.28923 -70.06446,11.28923 -27.60355,0 -52.579825,-4.45007 -70.064454,-11.28923 -8.742312,-3.41957 -15.578487,-7.45832 -19.883022,-11.4391 -4.304535,-3.98078 -5.931421,-7.49762 -5.931421,-10.74818 0,-3.25055 1.626886,-6.7674 5.931421,-10.74818 4.304535,-3.98079 11.14071,-8.02003 19.883022,-11.43961 12.255838,-4.7939 28.195452,-8.41079 46.137754,-10.14718 -2.12616,-4.20151 -4.21991,-8.41955 -6.27352,-12.65763 z"
       id="path888"
       inkscape:connector-curvature="0" />
  </g>
</svg>
