<?xml version="1.0" encoding="UTF-8" standalone="no"?>
<!-- Created with Inkscape (http://www.inkscape.org/) -->

<svg
   xmlns:dc="http://purl.org/dc/elements/1.1/"
   xmlns:cc="http://creativecommons.org/ns#"
   xmlns:rdf="http://www.w3.org/1999/02/22-rdf-syntax-ns#"
   xmlns:svg="http://www.w3.org/2000/svg"
   xmlns="http://www.w3.org/2000/svg"
   xmlns:xlink="http://www.w3.org/1999/xlink"
   xmlns:sodipodi="http://sodipodi.sourceforge.net/DTD/sodipodi-0.dtd"
   xmlns:inkscape="http://www.inkscape.org/namespaces/inkscape"
   width="1000"
   height="1000"
   viewBox="0 0 264.58333 264.58334"
   version="1.1"
   id="svg1492"
   inkscape:version="0.92.2 2405546, 2018-03-11"
   sodipodi:docname="fairy.svg">
  <defs
     id="defs1486">
    <radialGradient
       inkscape:collect="always"
       xlink:href="#linearGradient1060"
       id="radialGradient1062"
       cx="11.692875"
       cy="15.336735"
       fx="11.692875"
       fy="15.336735"
       r="22.833893"
       gradientUnits="userSpaceOnUse"
       gradientTransform="matrix(1.1141014,0.15019196,-0.150253,1.1145543,0.97021688,-3.5130645)" />
    <linearGradient
       inkscape:collect="always"
       id="linearGradient1060">
      <stop
         style="stop-color:#ffffff;stop-opacity:1"
         offset="0"
         id="stop1056" />
      <stop
         style="stop-color:#28fef0;stop-opacity:1"
         offset="1"
         id="stop1058" />
    </linearGradient>
    <filter
       inkscape:collect="always"
       style="color-interpolation-filters:sRGB"
       id="filter1448"
       x="-0.1116"
       width="1.2232"
       y="-0.1116"
       height="1.2232">
      <feGaussianBlur
         inkscape:collect="always"
         stdDeviation="1.2682465"
         id="feGaussianBlur1450" />
    </filter>
  </defs>
  <sodipodi:namedview
     id="base"
     pagecolor="#ffffff"
     bordercolor="#666666"
     borderopacity="1.0"
     inkscape:pageopacity="0.0"
     inkscape:pageshadow="2"
     inkscape:zoom="0.24748737"
     inkscape:cx="-707.57435"
     inkscape:cy="-685.86167"
     inkscape:document-units="px"
     inkscape:current-layer="layer1"
     showgrid="false"
     units="px"
     inkscape:window-width="1920"
     inkscape:window-height="1020"
     inkscape:window-x="0"
     inkscape:window-y="0"
     inkscape:window-maximized="1" />
  <metadata
     id="metadata1489">
    <rdf:RDF>
      <cc:Work
         rdf:about="">
        <dc:format>image/svg+xml</dc:format>
        <dc:type
           rdf:resource="http://purl.org/dc/dcmitype/StillImage" />
        <dc:title></dc:title>
      </cc:Work>
    </rdf:RDF>
  </metadata>
  <g
     inkscape:label="Ebene 1"
     inkscape:groupmode="layer"
     id="layer1"
     transform="translate(0,-32.41665)">
    <g
       id="g1466"
       inkscape:label="fairy"
       transform="matrix(8.3517405,0,0,8.3517405,-2889.3087,-755.88058)">
      <path
         style="opacity:1;fill:#ccfefb;fill-opacity:1;fill-rule:nonzero;stroke:none;stroke-width:3.0146153;stroke-linecap:round;stroke-linejoin:round;stroke-miterlimit:4;stroke-dasharray:none;stroke-opacity:1;paint-order:stroke markers fill"
         d="m 374.37819,100.46526 a 3.6711535,8.2826018 56.340966 0 0 -9.09921,4.40762 3.6711535,8.2826018 56.340966 0 0 -1.73942,6.28356 4.8178057,3.7230996 23.585432 0 0 -0.65733,3.86216 4.8178057,3.7230996 23.585432 0 0 6.13555,2.95585 4.8178057,3.7230996 23.585432 0 0 2.40554,-4.68851 4.8178057,3.7230996 23.585432 0 0 -2.83342,-2.56333 3.6711535,8.2826018 56.340966 0 0 5.64049,-3.63559 3.6711535,8.2826018 56.340966 0 0 1.14877,-6.50947 3.6711535,8.2826018 56.340966 0 0 -1.00097,-0.11229 z m -25.17058,0.34454 a 8.2826018,3.6711535 33.659034 0 0 -1.00097,0.11228 8.2826018,3.6711535 33.659034 0 0 1.14877,6.50947 8.2826018,3.6711535 33.659034 0 0 5.64102,3.63559 3.7230996,4.8178057 66.414568 0 0 -2.83395,2.56333 3.7230996,4.8178057 66.414568 0 0 2.40553,4.68851 3.7230996,4.8178057 66.414568 0 0 6.13556,-2.95585 3.7230996,4.8178057 66.414568 0 0 -0.65683,-3.86216 8.2826018,3.6711535 33.659034 0 0 -1.73992,-6.28356 8.2826018,3.6711535 33.659034 0 0 -9.09921,-4.40761 z"
         id="path1452"
         inkscape:connector-curvature="0"
         inkscape:label="wings" />
      <circle
         inkscape:transform-center-y="14.174108"
         inkscape:transform-center-x="-7.9375005"
         r="13.637059"
         style="opacity:1;fill:url(#radialGradient1062);fill-opacity:1;fill-rule:nonzero;stroke:none;stroke-width:11;stroke-linecap:round;stroke-linejoin:round;stroke-miterlimit:4;stroke-dasharray:none;stroke-opacity:1;paint-order:stroke markers fill;filter:url(#filter1448)"
         id="circle1814-4"
         cx="11.692875"
         cy="15.336735"
         transform="matrix(0.423602,-0.05710576,0.05710576,0.423602,355.96396,106.14158)"
         inkscape:label="body" />
    </g>
  </g>
</svg>
