<?xml version="1.0" encoding="UTF-8" standalone="no"?>
<!-- Created with Inkscape (http://www.inkscape.org/) -->

<svg
   xmlns:dc="http://purl.org/dc/elements/1.1/"
   xmlns:cc="http://creativecommons.org/ns#"
   xmlns:rdf="http://www.w3.org/1999/02/22-rdf-syntax-ns#"
   xmlns:svg="http://www.w3.org/2000/svg"
   xmlns="http://www.w3.org/2000/svg"
   xmlns:xlink="http://www.w3.org/1999/xlink"
   xmlns:sodipodi="http://sodipodi.sourceforge.net/DTD/sodipodi-0.dtd"
   xmlns:inkscape="http://www.inkscape.org/namespaces/inkscape"
   width="1000"
   height="1000"
   viewBox="0 0 264.58333 264.58334"
   version="1.1"
   id="svg8"
   inkscape:version="0.92.2 (5c3e80d, 2017-08-06)"
   sodipodi:docname="gossipstone.svg">
  <defs
     id="defs2">
    <linearGradient
       inkscape:collect="always"
       id="linearGradient880">
      <stop
         style="stop-color:#1e1e1e;stop-opacity:1"
         offset="0"
         id="stop876" />
      <stop
         id="stop884"
         offset="0.19647595"
         style="stop-color:#575757;stop-opacity:1" />
      <stop
         style="stop-color:#bbbbbb;stop-opacity:1"
         offset="1"
         id="stop878" />
    </linearGradient>
    <linearGradient
       inkscape:collect="always"
       xlink:href="#linearGradient880"
       id="linearGradient882"
       x1="132.29137"
       y1="284.18396"
       x2="132.29137"
       y2="45.232662"
       gradientUnits="userSpaceOnUse"
       gradientTransform="translate(2.1666666e-6)" />
  </defs>
  <sodipodi:namedview
     id="base"
     pagecolor="#ffffff"
     bordercolor="#666666"
     borderopacity="1.0"
     inkscape:pageopacity="0.0"
     inkscape:pageshadow="2"
     inkscape:zoom="0.98994952"
     inkscape:cx="519.42803"
     inkscape:cy="499.16288"
     inkscape:document-units="mm"
     inkscape:current-layer="layer1"
     showgrid="false"
     units="px"
     inkscape:window-width="1920"
     inkscape:window-height="1137"
     inkscape:window-x="-8"
     inkscape:window-y="-8"
     inkscape:window-maximized="1"
     inkscape:snap-nodes="true"
     inkscape:snap-others="true"
     inkscape:snap-global="true"
     inkscape:snap-bbox="false"
     inkscape:snap-bbox-edge-midpoints="true"
     inkscape:bbox-nodes="true"
     inkscape:bbox-paths="false"
     inkscape:snap-intersection-paths="true"
     inkscape:object-paths="true"
     inkscape:snap-smooth-nodes="true" />
  <metadata
     id="metadata5">
    <rdf:RDF>
      <cc:Work
         rdf:about="">
        <dc:format>image/svg+xml</dc:format>
        <dc:type
           rdf:resource="http://purl.org/dc/dcmitype/StillImage" />
        <dc:title></dc:title>
      </cc:Work>
    </rdf:RDF>
  </metadata>
  <g
     inkscape:label="gossip_stone"
     id="layer1"
     transform="translate(0,-32.41665)">
    <path
       style="opacity:1;fill:url(#linearGradient882);fill-opacity:1;fill-rule:nonzero;stroke:none;stroke-width:3.78929186;stroke-linecap:round;stroke-linejoin:miter;stroke-miterlimit:4;stroke-dasharray:none;stroke-opacity:1"
       d="M 132.29137,45.232663 36.183713,77.246214 12.447121,168.97653 27.813628,271.14393 a 104.47778,13.040178 0 0 0 104.477742,13.04004 104.47778,13.040178 0 0 0 104.47775,-13.04004 l 15.36709,-102.1674 -23.73659,-91.730316 z"
       id="path869"
       inkscape:connector-curvature="0"
       inkscape:label="stone" />
    <path
       style="display:inline;opacity:1;fill:#000000;fill-opacity:1;fill-rule:nonzero;stroke:none;stroke-width:3.97619867;stroke-linecap:round;stroke-linejoin:round;stroke-miterlimit:4;stroke-dasharray:none;stroke-opacity:1"
       d="m 132.29136,73.010997 -1.0939,2.440775 -19.28848,43.068868 h 40.76475 z m 0,6.507463 16.00868,35.74718 h -32.01737 z m -93.796323,16.238785 1.749856,3.25754 23.344996,43.403835 28.867883,-21.56653 z m 187.593263,0.0903 -3.31602,1.54201 -50.64672,23.553465 28.86725,21.56654 z m -181.596839,5.589615 42.245109,19.6457 -22.599414,16.88139 z m 175.597239,0.0909 -19.64315,36.52646 -22.59942,-16.88139 z m -87.79798,21.97206 a 78.014212,61.673186 0 0 0 -68.427516,32.05996 78.014212,61.673186 0 0 0 65.679736,32.10382 c -0.12824,0.34893 -3.45031,9.35339 -5.02838,9.64678 -26.312323,4.61396 -76.042222,-23.25982 -76.042222,-23.25982 0,0 10.010164,6.06196 14.67389,9.57877 11.626891,10.6932 16.526678,27.85581 29.128486,37.38072 11.471056,8.67025 25.590516,16.21847 39.969606,16.22543 14.44861,0.007 28.64742,-7.55963 40.17871,-16.26547 12.63448,-9.53875 17.55285,-26.73184 29.1965,-37.45763 4.67512,-3.53282 14.7044,-9.63534 14.7044,-9.63534 0,0 -49.6679,28.02143 -76.05238,23.55157 -1.65408,-0.29696 -5.21909,-9.71305 -5.24958,-9.79361 a 78.014212,61.673186 0 0 0 65.69752,-31.95063 78.014212,61.673186 0 0 0 -68.42877,-32.18455 z m 0,3.31602 a 72.5852,55.307319 0 0 1 63.66672,28.86216 72.5852,55.307319 0 0 1 -63.66672,28.74966 72.5852,55.307319 0 0 1 -63.665461,-28.86152 72.5852,55.307319 0 0 1 63.665461,-28.7503 z m 6.5e-4,0.91339 a 27.892557,27.892557 0 0 0 -27.89285,27.89283 27.892557,27.892557 0 0 0 27.89285,27.89158 27.892557,27.892557 0 0 0 27.89284,-27.89158 27.892557,27.892557 0 0 0 -27.89284,-27.89283 z m 0,2.67849 a 25.213611,25.213611 0 0 1 25.21371,25.21434 25.213611,25.213611 0 0 1 -25.21371,25.21308 25.213611,25.213611 0 0 1 -25.21371,-25.21308 25.213611,25.213611 0 0 1 25.21371,-25.21434 z m 0,7.42848 a 17.785227,17.785227 0 0 0 -17.78524,17.78523 17.785227,17.785227 0 0 0 17.78524,17.78524 17.785227,17.785227 0 0 0 17.78524,-17.78524 17.785227,17.785227 0 0 0 -17.78524,-17.78524 z m 64.05699,48.3248 c -10.757,9.57844 -15.30074,24.93235 -26.9731,33.45069 -10.65319,7.77456 -23.77114,14.53317 -37.11949,14.52579 -13.28412,-0.006 -26.32808,-6.74743 -36.925626,-14.4902 -11.642186,-8.50599 -16.168672,-23.83274 -26.910177,-33.38204 11.593033,8.45035 20.211578,20.78706 32.923143,27.56995 7.5426,4.02471 17.55934,2.64578 24.73064,7.2613 2.69189,1.73253 2.94807,7.21596 6.18202,7.22826 3.25497,0.0123 3.56568,-5.49374 6.28182,-7.22762 7.21728,-4.60726 17.254,-3.25552 24.82472,-7.29817 12.73702,-6.80142 21.37669,-19.15786 32.98605,-27.63796 z m -63.9769,10.65614 c 2.45984,-9e-5 4.45435,5.66934 4.45441,12.66279 5e-5,6.99366 -1.99449,12.66289 -4.45441,12.66279 -2.45992,1e-4 -4.45383,-5.66913 -4.45378,-12.66279 6e-5,-6.99345 1.99393,-12.66288 4.45378,-12.66279 z"
       id="path814"
       inkscape:connector-curvature="0"
       inkscape:label="painting" />
  </g>
</svg>
