<?xml version="1.0" encoding="UTF-8" standalone="no"?>
<!-- Created with Inkscape (http://www.inkscape.org/) -->

<svg
   xmlns:dc="http://purl.org/dc/elements/1.1/"
   xmlns:cc="http://creativecommons.org/ns#"
   xmlns:rdf="http://www.w3.org/1999/02/22-rdf-syntax-ns#"
   xmlns:svg="http://www.w3.org/2000/svg"
   xmlns="http://www.w3.org/2000/svg"
   xmlns:sodipodi="http://sodipodi.sourceforge.net/DTD/sodipodi-0.dtd"
   xmlns:inkscape="http://www.inkscape.org/namespaces/inkscape"
   width="1000"
   height="1000"
   viewBox="0 0 264.58333 264.58334"
   version="1.1"
   id="svg8"
   inkscape:version="0.92.2 (5c3e80d, 2017-08-06)"
   sodipodi:docname="notes.svg">
  <defs
     id="defs2" />
  <sodipodi:namedview
     id="base"
     pagecolor="#ffffff"
     bordercolor="#666666"
     borderopacity="1.0"
     inkscape:pageopacity="0.0"
     inkscape:pageshadow="2"
     inkscape:zoom="0.49497476"
     inkscape:cx="565.78848"
     inkscape:cy="294.45391"
     inkscape:document-units="mm"
     inkscape:current-layer="svg8"
     showgrid="false"
     units="px"
     inkscape:window-width="1920"
     inkscape:window-height="1137"
     inkscape:window-x="-8"
     inkscape:window-y="-8"
     inkscape:window-maximized="1"
     inkscape:snap-nodes="true"
     inkscape:snap-others="true"
     inkscape:snap-global="true"
     inkscape:snap-bbox="false"
     inkscape:snap-bbox-edge-midpoints="true"
     inkscape:bbox-nodes="true"
     inkscape:bbox-paths="false"
     inkscape:snap-intersection-paths="true"
     inkscape:object-paths="true"
     inkscape:snap-smooth-nodes="true" />
  <metadata
     id="metadata5">
    <rdf:RDF>
      <cc:Work
         rdf:about="">
        <dc:format>image/svg+xml</dc:format>
        <dc:type
           rdf:resource="http://purl.org/dc/dcmitype/StillImage" />
        <dc:title></dc:title>
      </cc:Work>
    </rdf:RDF>
  </metadata>
  <g
     inkscape:label="notes"
     id="layer1"
     transform="matrix(1.2472869,-0.72012143,0.72012143,1.2472869,-136.38153,-58.900604)">
    <g
       id="g1073"
       inkscape:label="paper">
      <path
         inkscape:connector-curvature="0"
         id="path1069"
         d="m 146.88477,411.44922 v 0.002 c -0.006,5e-5 -0.0117,-4e-5 -0.0176,0 -14.23849,0.11188 -27.52219,6.01185 -37.19141,15.49805 -9.66922,9.4862 -15.72647,22.55583 -15.529296,37.0332 0.344275,25.27719 20.683196,47.19196 46.197266,47.69141 v 0.0137 h 58.56055 v 324.03516 h 1.42773 l -1.42969,0.004 c 0.0946,31.07388 25.49667,57.97818 57.04102,57.73047 h 228.57422 v -2.14258 l 0.0176,2.14453 c 14.16173,-0.11603 27.38504,-5.95127 37.04101,-15.35742 9.65601,-9.40611 15.74627,-22.38607 15.66406,-36.7832 -0.14771,-25.88299 -21.27062,-48.41716 -47.63671,-48.10156 v -0.006 l -57.12891,0.002 V 469.19141 h -3.12305 l 3.12891,-0.01 c -0.0945,-31.05876 -25.48206,-57.95315 -57.00781,-57.73047 v -0.002 z"
         style="color:#000000;font-style:normal;font-variant:normal;font-weight:normal;font-stretch:normal;font-size:medium;line-height:normal;font-family:sans-serif;font-variant-ligatures:normal;font-variant-position:normal;font-variant-caps:normal;font-variant-numeric:normal;font-variant-alternates:normal;font-feature-settings:normal;text-indent:0;text-align:start;text-decoration:none;text-decoration-line:none;text-decoration-style:solid;text-decoration-color:#000000;letter-spacing:normal;word-spacing:normal;text-transform:none;writing-mode:lr-tb;direction:ltr;text-orientation:mixed;dominant-baseline:auto;baseline-shift:baseline;text-anchor:start;white-space:normal;shape-padding:0;clip-rule:nonzero;display:inline;overflow:visible;visibility:visible;opacity:1;isolation:auto;mix-blend-mode:normal;color-interpolation:sRGB;color-interpolation-filters:linearRGB;solid-color:#000000;solid-opacity:1;vector-effect:none;fill:#ccc8a7;fill-opacity:1;fill-rule:evenodd;stroke:none;stroke-width:5;stroke-linecap:butt;stroke-linejoin:miter;stroke-miterlimit:4;stroke-dasharray:none;stroke-dashoffset:0;stroke-opacity:1;color-rendering:auto;image-rendering:auto;shape-rendering:auto;text-rendering:auto;enable-background:accumulate"
         transform="matrix(0.26458333,0,0,0.26458333,0,32.41665)" />
      <path
         sodipodi:nodetypes="cccsscccccccccccccccccccccccccccccscccccccccccccccccscccccsscccccccccccccccccsccccccccscccccccccccccccccsccccccccsccccccccsccsscccccccsccccccccccccscccccccccccccccccccc"
         inkscape:connector-curvature="0"
         id="path844"
         transform="matrix(0.26458333,0,0,0.26458333,0,32.41665)"
         d="m 146.88477,411.44922 v 0.002 c -0.006,5e-5 -0.0117,-4e-5 -0.0176,0 -14.23849,0.11188 -27.52219,6.01185 -37.19141,15.49805 -9.66922,9.4862 -15.72647,22.55583 -15.529296,37.0332 0.344275,25.27719 20.683196,47.19196 46.197266,47.69141 v 0.0137 h 58.56055 v 324.03516 h 1.42773 l -1.42969,0.004 c 0.0946,31.07388 25.49667,57.97818 57.04102,57.73047 h 228.57422 v -2.14258 l 0.0176,2.14453 c 14.16173,-0.11603 27.38504,-5.95127 37.04101,-15.35742 9.65601,-9.40611 15.74627,-22.38607 15.66406,-36.7832 -0.14771,-25.88299 -21.27062,-48.41716 -47.63671,-48.10156 v -0.006 l -57.12891,0.002 V 469.19141 h -3.12305 l 3.12891,-0.01 c -0.0945,-31.05876 -25.48206,-57.95315 -57.00781,-57.73047 v -0.002 z m 228.58789,2.85937 0.0176,2.14258 c 28.66443,-0.21468 51.89809,24.39896 51.98438,52.7461 h 0.004 v 324.01562 l -166.78711,0.006 v 0.004 c -0.0183,3.5e-4 -0.0364,-3.8e-4 -0.0547,0 -23.2815,0.48109 -43.38219,19.74859 -42.68164,43.52734 0.60933,20.6826 17.83427,38.52596 39.02734,37.66211 h 32.61719 c -8.7644,8.59055 -20.79865,13.94372 -33.6875,14.04492 -28.67144,0.22526 -51.91759,-24.39031 -52.00391,-52.74414 h -0.006 V 469.19141 h -3.12304 l 3.1289,-0.01 c -0.0698,-22.92867 -13.92705,-43.57122 -33.85547,-52.72656 l 205.41993,-0.008 z m -228.58789,2.14258 v 0.004 h 0.21875 c 13.44287,-0.0498 25.67904,5.35817 34.88086,14.04687 H 148.5625 c -0.90443,-0.0318 -1.81395,-0.0414 -2.73438,-0.004 -18.08254,0.73708 -33.67334,15.93502 -32.63476,34.54492 0.79319,14.21278 11.96248,26.61281 26.19141,27.59765 v 0.002 h 0.0195 c 1.21085,0.0829 2.44272,0.0885 3.69336,0 h 28.12695 c -7.04312,8.37735 -17.66741,13.80562 -29.1543,14.04297 -23.47257,0.48502 -42.612149,-19.60045 -42.927732,-42.77149 -0.355023,-26.06795 21.985742,-47.2532 47.742192,-47.46289 z m -0.95313,19.04688 v 0.002 h 2.50391 c 10.31005,0.3864 19.38671,5.94038 25.10351,14.04688 h -23.72461 c -1.67987,-0.25184 -3.43379,-0.25971 -5.23437,0.0293 -3.83287,0.6152 -7.33428,2.69044 -9.72461,5.6836 -2.39033,2.99312 -3.63775,7.06695 -2.53711,11.23437 0.67308,2.5485 2.30842,4.82566 4.57812,6.32031 2.26971,1.49466 5.52737,2.06149 8.36329,0.44922 1.80073,-1.02376 2.54123,-2.44315 2.94335,-4.26953 0.0115,-0.0522 0.0168,-0.11231 0.0273,-0.16602 h 12.67578 c 0.30913,9.83495 -8.17465,18.01918 -17.94922,18.81055 h -3.41211 c -11.52629,-0.92292 -20.70224,-11.16812 -21.35547,-22.87305 -0.87202,-15.62533 12.38294,-28.58782 27.74219,-29.26757 z m 19.66602,0.002 h 21.04296 c 7.61435,9.26757 12.22341,21.11106 12.26172,33.69727 h 0.002 v 37.49414 h -37.37305 c 13.9876,-7.28474 23.81762,-21.78565 23.32422,-38.53321 -0.40183,-13.63942 -8.03093,-26.03957 -19.25781,-32.6582 z m -20.3711,19.04492 h 4.00586 c 4.84241,0.81996 8.88988,4.57526 10.67969,9.28711 h -15.64844 l -0.93555,4.08594 c -0.0686,0.31143 -0.3032,0.70339 -0.54296,1.00195 -1.11655,0.63477 -1.99916,0.46215 -3.13672,-0.28711 -1.13756,-0.74914 -2.17332,-2.21846 -2.49024,-3.41797 -0.67007,-2.53716 0.0203,-4.85366 1.60157,-6.83398 1.55076,-1.94188 3.9902,-3.3975 6.46679,-3.83594 z m 14.42383,0 h 16.82422 c 2.03558,4.23097 3.24362,8.90844 3.38672,13.76563 0.2074,7.04002 -1.68927,13.64451 -5.07617,19.32812 h -18.34961 c 6.27204,-4.6976 10.27397,-12.21361 9.36328,-20.62305 -0.51585,-4.76341 -2.78853,-9.21877 -6.14844,-12.4707 z m 329.95313,341.24219 0.0332,2.42578 c 23.4887,-0.29934 42.47112,19.95091 42.60351,43.13672 0.14816,25.92741 -22.12252,46.89758 -47.74609,47.10742 v 0.002 H 277.94727 c 5.64146,-2.62338 10.79063,-6.18441 15.1875,-10.49804 9.66921,-9.4862 15.72647,-22.55775 15.52929,-37.03516 -0.2487,-18.2603 -10.93675,-34.76019 -26.46679,-42.70898 h 207.40625 z m -228.86329,2.43555 c 12.44584,-0.25718 23.67226,5.27192 31.52149,13.97461 h -30.95117 v 0.006 c -0.58283,0.006 -1.1687,0.0269 -1.75977,0.0723 -12.87748,0.98944 -23.99634,12.16247 -22.53906,25.61914 1.10367,10.19141 10.18463,19.04242 20.96484,17.47266 h 22.75 c -4.94953,8.09155 -14.01097,13.64382 -23.94726,14.04883 -18.26691,0.74456 -33.30006,-14.82586 -33.83008,-32.81641 -0.61488,-20.87093 17.21059,-37.95168 37.79101,-38.37695 z m 16.35157,18.97265 h 19.07422 c 4.63033,6.89017 7.38386,15.12834 7.50195,23.79883 0.14512,10.65603 -3.50413,20.49485 -9.62695,28.41992 h -20.59571 c 10.04266,-6.06853 16.87031,-17.03199 16.17188,-29.54687 -0.51171,-9.16907 -5.34197,-17.5869 -12.52539,-22.67188 z m -15.94336,0.006 c 9.12752,-0.18235 17.06497,5.51662 20.95703,13.43555 h -20.86133 v 0.0566 c -1.23602,7.3e-4 -2.49949,0.27548 -3.69141,0.95312 -1.80073,1.02377 -2.54319,2.44312 -2.94531,4.26954 -0.20107,0.91321 -0.27666,2.06327 0.40235,3.23046 0.67897,1.1672 2.13685,1.86777 2.83893,1.89873 l 8.02435,0.031 c 0.14881,1.99778 -0.53346,3.83719 -1.82227,5.45117 -1.58146,1.98033 -4.08649,3.46161 -6.61328,3.86719 -7.77442,1.24781 -14.62346,-5.39587 -15.45117,-13.03906 -1.12853,-10.42103 7.71727,-19.30983 17.94531,-20.0957 0.40767,-0.0313 0.81351,-0.0505 1.2168,-0.0586 z m 0.0605,18.40235 c 0.0118,-7.2e-4 0.0234,5.2e-4 0.0352,0 v 0.0312 h 0.45117 c 0.35646,0.0583 0.72613,0.22377 1.11133,0.44335 h -2.75 c 0.0555,-0.0927 0.0721,-0.14862 -0.0312,-0.0898 0.4187,-0.23805 0.80484,-0.36166 1.18359,-0.38476 z m 8.10157,0.0312 h 14.625 c 0.36447,1.46636 0.59993,2.97573 0.68554,4.50976 0.20011,3.58559 -0.34976,7.02783 -1.49218,10.2168 h -15.80079 c 0.21241,-0.23465 0.42931,-0.4654 0.62696,-0.71289 2.39033,-2.99316 3.63775,-7.06504 2.53711,-11.23242 -0.25792,-0.97655 -0.65967,-1.913 -1.18164,-2.78125 z"
         style="color:#000000;font-style:normal;font-variant:normal;font-weight:normal;font-stretch:normal;font-size:medium;line-height:normal;font-family:sans-serif;font-variant-ligatures:normal;font-variant-position:normal;font-variant-caps:normal;font-variant-numeric:normal;font-variant-alternates:normal;font-feature-settings:normal;text-indent:0;text-align:start;text-decoration:none;text-decoration-line:none;text-decoration-style:solid;text-decoration-color:#000000;letter-spacing:normal;word-spacing:normal;text-transform:none;writing-mode:lr-tb;direction:ltr;text-orientation:mixed;dominant-baseline:auto;baseline-shift:baseline;text-anchor:start;white-space:normal;shape-padding:0;clip-rule:nonzero;display:inline;overflow:visible;visibility:visible;opacity:1;isolation:auto;mix-blend-mode:normal;color-interpolation:sRGB;color-interpolation-filters:linearRGB;solid-color:#000000;solid-opacity:1;vector-effect:none;fill:#653907;fill-opacity:1;fill-rule:evenodd;stroke:none;stroke-width:5;stroke-linecap:butt;stroke-linejoin:miter;stroke-miterlimit:4;stroke-dasharray:none;stroke-dashoffset:0;stroke-opacity:1;color-rendering:auto;image-rendering:auto;shape-rendering:auto;text-rendering:auto;enable-background:accumulate" />
      <path
         style="font-style:normal;font-variant:normal;font-weight:normal;font-stretch:normal;font-size:12.43242931px;line-height:1.25;font-family:'Ink Free';-inkscape-font-specification:'Ink Free';letter-spacing:0px;word-spacing:0px;fill:#000000;fill-opacity:1;stroke:none;stroke-width:1.17471766"
         d="m 323.38477,496.73438 c -0.51351,0 -0.86406,0.42087 -1.05079,1.26171 -0.16338,0.71472 -0.27958,1.53406 -0.3496,2.45899 -0.0467,0.88288 -0.0703,2.14551 -0.0703,3.78515 0,1.00901 0.0236,2.48013 0.0703,4.41407 0.0467,1.42943 0.0703,2.58586 0.0703,3.46875 -0.56019,0.16817 -1.62365,0.52572 -3.1875,1.07226 -0.18673,0.0841 -0.61803,0.25166 -1.29492,0.50391 -0.67689,0.21021 -1.1909,0.31445 -1.54102,0.31445 -0.49016,0 -0.84071,0.0857 -1.05078,0.25391 -0.21007,0.16817 -0.31445,0.52376 -0.31445,1.07031 0,0.50451 0.11619,0.90492 0.3496,1.19922 0.25676,0.29429 0.52655,0.44141 0.80665,0.44141 0.23341,0 0.968,-0.2309 2.20507,-0.69336 1.37713,-0.54655 2.72025,-1.0103 4.02735,-1.38868 0,2.14415 0.01,4.37324 0.0332,6.68555 0.0467,2.27027 0.10576,4.26651 0.17578,5.99024 0.07,1.93393 0.16259,3.70122 0.2793,5.29882 0.14005,1.5976 0.28183,2.69071 0.42187,3.2793 0.07,0.33634 0.15078,0.56723 0.24414,0.69336 0.0934,0.16817 0.20957,0.25195 0.34961,0.25195 0.25676,0 0.52655,-0.18998 0.80664,-0.56836 0.30344,-0.33633 0.45508,-0.71434 0.45508,-1.13476 -0.0233,-0.16817 -0.15331,-0.90373 -0.38672,-2.20703 -0.23341,-1.30331 -0.39491,-3.17484 -0.48828,-5.61328 -0.07,-1.80781 -0.1291,-3.90829 -0.17578,-6.30469 -0.0233,-2.3964 -0.0351,-4.68881 -0.0351,-6.875 l 2.27539,-0.69336 c 0.25675,-0.0841 1.46004,-0.46209 3.60742,-1.13477 0.88696,-0.21021 1.49354,-0.50443 1.82031,-0.88281 0.35012,-0.37838 0.52539,-0.92591 0.52539,-1.64062 0,-0.54655 -0.14178,-1.07167 -0.42187,-1.57618 -0.25676,-0.54654 -0.51278,-0.82031 -0.76954,-0.82031 -0.14004,0 -0.27987,0.25331 -0.41992,0.75781 -0.1167,0.50451 -0.26835,0.79873 -0.45508,0.88282 -3.10435,1.26126 -5.18207,2.03773 -6.23242,2.33203 l -0.0351,-1.70117 c -0.0467,-1.93394 -0.0703,-3.67882 -0.0703,-5.23438 0,-2.01802 0.0591,-3.63625 0.17579,-4.85547 0.1167,-1.21922 0.17578,-1.95673 0.17578,-2.20898 0,-0.33634 -0.0355,-0.56724 -0.10547,-0.69336 -0.07,-0.12613 -0.20985,-0.18946 -0.41992,-0.18945 z m -28.78711,1.57812 c -1.00367,0 -1.50586,0.79889 -1.50586,2.39648 0,0.46247 0.0591,1.70269 0.17578,3.72071 0.3968,6.13814 0.5957,11.07661 0.5957,14.81836 0,2.1021 0.0453,4.14121 0.13867,6.11718 0.11671,1.97598 0.23486,3.57375 0.35157,4.79297 0.1167,1.21922 0.19745,1.99765 0.24414,2.33399 -0.30344,-1.05105 -2.11136,-5.38257 -5.42578,-12.99219 -0.07,-0.16817 -0.77113,-1.7864 -2.10157,-4.85547 -0.21007,-0.5045 -0.43065,-1.02962 -0.66406,-1.57617 -0.23341,-0.58859 -0.47958,-1.17704 -0.73633,-1.76563 -1.16705,-2.85886 -2.13599,-5.1084 -2.90625,-6.74804 -0.74691,-1.68169 -1.24911,-2.52149 -1.50586,-2.52149 h -0.17383 c -0.25675,0 -0.43202,0.14711 -0.52539,0.44141 -0.07,0.25225 -0.10546,0.6098 -0.10547,1.07227 v 0.1875 l -0.0351,1.83007 c 0,0.54655 -0.0236,1.99721 -0.0703,4.35157 -0.0467,2.31231 -0.0684,4.77034 -0.0684,7.37695 0,3.27928 -0.10634,7.33703 -0.31641,12.17187 -0.0934,2.60661 -0.14062,4.16151 -0.14062,4.66602 0,0.7988 0.0473,1.34633 0.14062,1.64062 0.11671,0.25226 0.3038,0.37891 0.56055,0.37891 0.23341,0 0.45594,-0.21044 0.66601,-0.63086 0.23341,-0.42042 0.36143,-0.88417 0.38477,-1.38867 0.0467,-2.06006 0.0821,-4.83473 0.10547,-8.32422 0.0467,-3.48949 0.0684,-6.72595 0.0684,-9.71094 l 0.0352,-4.73047 0.0703,-4.85546 c 0.35011,0.7988 1.25998,3.13212 2.73046,7 1.00367,2.6066 1.60039,4.14105 1.78711,4.60351 1.3071,3.1952 2.96338,7.06297 4.97071,11.60352 2.03067,4.4985 3.12763,6.74804 3.29101,6.74804 0.9103,0 1.36524,-0.25135 1.36524,-0.75586 l -0.0352,-2.27148 c 0,-1.00901 -0.0571,-2.50058 -0.17383,-4.47656 -0.07,-1.42943 -0.15273,-3.07007 -0.24609,-4.91992 -0.07,-1.84986 -0.10547,-3.74185 -0.10547,-5.67579 0,-6.0961 -0.0217,-10.53186 -0.0684,-13.30664 -0.0467,-2.77477 -0.12939,-4.58103 -0.24609,-5.42187 -0.11671,-0.88288 -0.29198,-1.32422 -0.52539,-1.32422 z m 63.76172,7 c -0.77026,0 -1.86722,0.48225 -3.29102,1.44922 -1.4238,0.96697 -2.68422,2.29097 -3.78125,3.97266 -1.09703,1.68168 -1.64453,3.53276 -1.64453,5.55078 0,1.13513 0.25603,2.08113 0.76953,2.83789 0.5135,0.71471 1.19097,1.32362 2.03125,1.82812 0.86362,0.46246 2.06496,1.01 3.60547,1.64063 1.40046,0.58859 2.39303,1.05038 2.97656,1.38672 0.60687,0.29429 1.10906,0.77849 1.50586,1.45117 0.3968,0.67267 0.5957,1.5758 0.5957,2.71093 0,1.17718 -0.3151,2.29075 -0.94531,3.3418 -0.63021,1.05105 -1.44751,1.91327 -2.45117,2.58594 -0.98033,0.63063 -1.96108,0.94531 -2.94141,0.94531 -0.42014,0 -0.7825,-0.0838 -1.08594,-0.25195 -0.28009,-0.16817 -0.41992,-0.33574 -0.41992,-0.50391 0,-0.12612 0.0591,-0.27324 0.17578,-0.4414 0.11671,-0.16817 0.17383,-0.33574 0.17383,-0.50391 0,-0.21021 -0.13983,-0.31641 -0.41992,-0.31641 -0.18673,0 -0.54714,0.48421 -1.08398,1.45118 -0.53685,0.92492 -0.80664,1.5767 -0.80664,1.95507 0,0.58859 0.17527,1.05039 0.52539,1.38672 0.35011,0.33634 1.02758,0.50391 2.03125,0.50391 1.47048,0 2.88254,-0.52512 4.23632,-1.57617 1.35379,-1.00901 2.43893,-2.35348 3.25586,-4.03516 0.84028,-1.72372 1.25977,-3.51148 1.25977,-5.36133 0,-1.93393 -0.47856,-3.38459 -1.43555,-4.35156 -0.95698,-0.96697 -2.3336,-1.82918 -4.13086,-2.58594 -0.16338,-0.0841 -0.35047,-0.14546 -0.56054,-0.1875 -0.21007,-0.0841 -0.41884,-0.19028 -0.62891,-0.3164 -1.75058,-0.71472 -2.95387,-1.30317 -3.60742,-1.76563 -0.63021,-0.5045 -0.94531,-1.26052 -0.94531,-2.26953 0,-1.55556 0.40962,-2.87956 1.22656,-3.97266 0.81693,-1.09309 1.7268,-1.91439 2.73047,-2.46093 1.00366,-0.54655 1.73825,-0.81836 2.20508,-0.81836 0.16338,0 0.32684,0.10424 0.49023,0.31445 0.16339,0.16817 0.31503,0.25195 0.45508,0.25195 0.37345,0 0.65311,-0.29422 0.83984,-0.88281 0.18673,-0.63063 0.28125,-1.19862 0.28125,-1.70312 0,-0.84085 -0.39781,-1.25977 -1.1914,-1.25977 z m -15.95899,0.125 c -1.44714,0 -2.84739,1.02978 -4.20117,3.08984 -1.35378,2.01802 -2.45074,4.64558 -3.29102,7.88282 -0.84027,3.19519 -1.25976,6.4336 -1.25976,9.71289 0,3.48949 0.50024,6.07417 1.5039,7.75586 1.00367,1.68168 2.25227,2.52343 3.7461,2.52343 1.8206,0 3.35081,-1.0931 4.58789,-3.27929 1.26041,-2.18619 2.19391,-4.56239 2.80078,-7.12696 0.63021,-2.56456 0.94531,-4.22566 0.94531,-4.98242 0,-0.63063 -0.0827,-0.94531 -0.24609,-0.94531 -0.0934,0 -0.19775,0.25331 -0.31445,0.75781 -0.11671,0.46246 -0.19942,0.77715 -0.2461,0.94531 -0.74691,2.90091 -1.68041,5.508 -2.80078,7.82032 -1.12037,2.31231 -2.57774,3.46679 -4.375,3.46679 -1.19039,0 -2.11208,-0.67223 -2.76562,-2.01757 -0.63021,-1.34535 -0.94532,-3.23735 -0.94532,-5.67579 0,-1.84985 0.13983,-3.74184 0.41992,-5.67578 1.56385,-0.46246 3.0803,-1.21848 4.55079,-2.26953 1.47048,-1.05105 2.66001,-2.27081 3.57031,-3.6582 0.93364,-1.38739 1.40039,-2.81564 1.40039,-4.28711 0,-1.30331 -0.30329,-2.29217 -0.91016,-2.96484 -0.58352,-0.71472 -1.3063,-1.07227 -2.16992,-1.07227 z m -36.0918,2.33398 c -0.46682,0 -0.91189,0.29423 -1.33203,0.88282 -0.42014,0.54654 -0.80418,1.36589 -1.15429,2.45898 -0.32678,1.05105 -0.51387,1.65996 -0.56055,1.82813 -0.74691,2.35435 -1.32986,5.02477 -1.75,8.00976 -0.3968,2.98499 -0.5957,5.48589 -0.5957,7.50391 0,2.31231 0.37418,4.24718 1.12109,5.80273 0.74691,1.55556 1.90099,2.33399 3.46484,2.33399 1.58719,0 2.99926,-0.75797 4.23633,-2.27149 1.23708,-1.55555 2.1942,-3.40468 2.8711,-5.54883 0.67689,-2.14414 1.01562,-4.03614 1.01562,-5.67578 0,-1.93393 -0.3151,-3.61549 -0.94531,-5.04492 -0.63021,-1.42943 -1.41206,-2.83722 -2.34571,-4.22461 -0.46682,-0.71471 -0.69921,-1.13559 -0.69921,-1.26172 0,-0.12612 0.0335,-0.27323 0.10351,-0.4414 0.0934,-0.21021 0.14063,-0.35733 0.14063,-0.44141 0,-0.16817 -0.0473,-0.27436 -0.14063,-0.31641 -0.0934,-0.0841 -0.29032,-0.125 -0.59375,-0.125 -0.53684,0 -1.00359,0.16757 -1.40039,0.50391 -0.3968,0.2943 -0.5957,0.69276 -0.5957,1.19727 0,0.33633 0.13983,0.75721 0.41992,1.26171 0.28009,0.50451 0.72321,1.15628 1.33008,1.95508 0.93364,1.21922 1.66823,2.37566 2.20508,3.46875 0.53684,1.0931 0.80664,2.37619 0.80664,3.84766 0,1.3033 -0.2698,2.75396 -0.80664,4.35156 -0.53685,1.55556 -1.25963,2.87956 -2.16993,3.97266 -0.88696,1.09309 -1.8559,1.63867 -2.90625,1.63867 -2.24074,0 -3.36132,-1.6611 -3.36132,-4.98242 0,-2.48048 0.17527,-4.77094 0.52539,-6.87305 0.37345,-2.1021 0.88746,-4.22499 1.54101,-6.36914 0.49016,-1.68168 1.13219,-3.38565 1.92578,-5.10937 0.07,-0.16817 0.16259,-0.39907 0.2793,-0.69336 0.14005,-0.33634 0.21094,-0.54678 0.21094,-0.63086 0,-0.2943 -0.0945,-0.52519 -0.28125,-0.69336 -0.16339,-0.21021 -0.34853,-0.31446 -0.5586,-0.31446 z m 35.67188,0.25196 c 0.5135,0 0.95662,0.18998 1.33008,0.56836 0.39679,0.37838 0.5957,0.9035 0.5957,1.57617 0,0.67267 -0.40963,1.53488 -1.22656,2.58594 -0.7936,1.05105 -1.78422,2.0175 -2.97461,2.90039 -1.1904,0.88288 -2.3228,1.42846 -3.39649,1.63867 0.16339,-1.13514 0.51394,-2.43868 1.05079,-3.91016 0.56018,-1.47147 1.24751,-2.73215 2.06445,-3.7832 0.81693,-1.05105 1.66968,-1.57617 2.55664,-1.57617 z M 225.875,572.44531 c -0.0627,0 -0.1248,0.0115 -0.1875,0.0332 -0.0603,0.0217 -0.11733,0.0557 -0.16797,0.10351 -0.0482,0.0434 -0.0878,0.10541 -0.11914,0.18359 -0.0313,0.0738 -0.0484,0.16333 -0.0508,0.26758 -0.0169,0.4561 -0.0334,0.98108 -0.0527,1.57618 -0.0193,0.59509 -0.0408,1.22905 -0.0625,1.90234 -0.0217,0.66894 -0.0427,1.36487 -0.0645,2.08594 -0.0217,0.71672 -0.0432,1.42868 -0.0625,2.13672 -0.0193,0.70369 -0.0378,1.38466 -0.0547,2.04492 -0.0169,0.66025 -0.0324,1.26821 -0.0469,1.82422 -0.0121,0.556 -0.0201,1.04544 -0.0273,1.46679 -0.007,0.41701 -0.0117,0.73897 -0.0117,0.96485 0,0.62116 0.004,1.14765 0.0137,1.58203 0.0121,0.43003 0.0376,0.77951 0.0762,1.04883 0.041,0.26931 0.0991,0.46279 0.17383,0.58007 0.0772,0.12163 0.18032,0.1836 0.31055,0.1836 0.10128,0 0.22191,-0.036 0.35937,-0.10547 0.13987,-0.0652 0.28109,-0.15117 0.42578,-0.25977 0.1447,-0.10859 0.28384,-0.2271 0.41406,-0.35742 0.13264,-0.13031 0.24131,-0.25879 0.32813,-0.38476 L 227,588.98242 c -0.13746,0.11294 -0.27315,0.20242 -0.4082,0.26758 -0.13264,0.0608 -0.25729,0.0918 -0.37305,0.0918 -0.0627,0 -0.11824,-0.0115 -0.16406,-0.0332 -0.0458,-0.0261 -0.0854,-0.0731 -0.11914,-0.14257 -0.0338,-0.0695 -0.0618,-0.17047 -0.0859,-0.30079 -0.0217,-0.13031 -0.0402,-0.30082 -0.0547,-0.51367 -0.0121,-0.21284 -0.0221,-0.47479 -0.0293,-0.7832 -0.005,-0.30841 -0.006,-0.67739 -0.006,-1.10742 0,-0.68632 0.007,-1.40326 0.0215,-2.15039 0.0145,-0.74714 0.034,-1.50611 0.0606,-2.2793 0.0265,-0.77754 0.0576,-1.56598 0.0937,-2.36523 0.0362,-0.79926 0.0762,-1.5942 0.11718,-2.38477 0.0434,-0.79491 0.087,-1.58032 0.13282,-2.35352 0.0482,-0.77753 0.0963,-1.53499 0.14453,-2.27343 -0.15917,-0.139 -0.31038,-0.20899 -0.45508,-0.20899 z m 3.97461,8.23047 c -0.13746,0 -0.28569,0.0275 -0.44727,0.084 -0.15916,0.0521 -0.31935,0.13012 -0.47851,0.23437 -0.15917,0.0999 -0.31337,0.22341 -0.46289,0.37109 -0.14952,0.14769 -0.28119,0.31517 -0.39453,0.50196 -0.11335,0.18678 -0.2035,0.39326 -0.27344,0.61914 -0.0675,0.22588 -0.10156,0.46637 -0.10156,0.72265 0,0.15638 0.014,0.29786 0.043,0.42383 0.0314,0.12597 0.0724,0.23344 0.12304,0.32031 0.0531,0.0869 0.11366,0.1534 0.1836,0.20118 0.0723,0.0434 0.15042,0.0664 0.23242,0.0664 0.13987,0 0.27855,-0.062 0.41601,-0.18359 l 0.0137,-0.0723 c -0.082,-0.19981 -0.14409,-0.40282 -0.1875,-0.61132 -0.041,-0.21285 -0.0625,-0.42431 -0.0625,-0.63282 0,-0.17809 0.0175,-0.3421 0.0488,-0.49414 0.0338,-0.15637 0.0859,-0.29136 0.15821,-0.40429 0.0748,-0.11294 0.17089,-0.20243 0.28906,-0.26758 0.11817,-0.0652 0.26237,-0.0977 0.43359,-0.0977 0.12782,0 0.25695,0.039 0.38477,0.11719 0.12781,0.0782 0.24246,0.19865 0.34375,0.35937 0.10129,0.16072 0.18339,0.3672 0.24609,0.61914 0.0627,0.25194 0.0937,0.54942 0.0937,0.89258 0,0.30841 -0.006,0.58942 -0.0176,0.84571 -0.01,0.25628 -0.0241,0.52126 -0.041,0.79492 -0.26287,0 -0.52022,0.031 -0.77344,0.0918 -0.25322,0.0565 -0.49401,0.14596 -0.7207,0.26758 -0.22669,0.11728 -0.43598,0.26678 -0.62891,0.44922 -0.19293,0.1781 -0.36013,0.39108 -0.5,0.63867 -0.13746,0.2476 -0.24463,0.52709 -0.32422,0.83985 -0.0772,0.31275 -0.11719,0.66071 -0.11719,1.04297 0,0.29537 0.027,0.56837 0.0801,0.82031 0.0555,0.24759 0.13205,0.46404 0.22852,0.64648 0.0989,0.18244 0.21605,0.32544 0.35351,0.42969 0.13747,0.10425 0.29064,0.15625 0.45704,0.15625 0.20257,0 0.39484,-0.0895 0.57812,-0.26758 0.18569,-0.17375 0.35991,-0.40125 0.52149,-0.68359 0.16398,-0.28669 0.31221,-0.61017 0.44726,-0.9707 0.13746,-0.36488 0.25958,-0.73386 0.36328,-1.10743 h 0.0215 c -0.0121,0.12597 -0.0206,0.24449 -0.0254,0.35743 -0.002,0.11293 -0.004,0.2269 -0.004,0.33984 0,0.37791 0.027,0.7094 0.0801,0.99609 0.0531,0.28669 0.12814,0.52567 0.22461,0.7168 0.0965,0.18678 0.20916,0.32826 0.34179,0.42383 0.13264,0.0956 0.2788,0.14258 0.43555,0.14258 0.20981,0 0.40909,-0.0765 0.59961,-0.22852 0.19052,-0.15203 0.36772,-0.37303 0.5293,-0.66406 l -0.10547,-0.2793 c -0.2291,0.2476 -0.43736,0.37109 -0.62305,0.37109 -0.20981,0 -0.37954,-0.15599 -0.50976,-0.46875 -0.12782,-0.31709 -0.19141,-0.78855 -0.19141,-1.41406 0,-0.39528 0.006,-0.79373 0.0176,-1.19336 0.0145,-0.39963 0.03,-0.78659 0.0469,-1.16015 0.0169,-0.37791 0.0329,-0.73692 0.0449,-1.08008 0.0145,-0.34316 0.0215,-0.65862 0.0215,-0.94531 0,-0.41701 -0.027,-0.79097 -0.0801,-1.1211 -0.0506,-0.33013 -0.13275,-0.60962 -0.24609,-0.83984 -0.11094,-0.23457 -0.25663,-0.41353 -0.4375,-0.53516 -0.17846,-0.12162 -0.39522,-0.18164 -0.64844,-0.18164 z m -7.41406,0.006 c -0.20258,0 -0.41635,0.11548 -0.64063,0.3457 -0.22428,0.22588 -0.45104,0.56084 -0.67773,1.00391 -0.22428,0.44307 -0.44461,0.98906 -0.66407,1.64063 -0.21704,0.64722 -0.42127,1.39363 -0.60937,2.23632 l -0.043,-0.008 c 0.0241,-0.66026 0.0441,-1.23224 0.0586,-1.71875 0.0169,-0.49085 0.0294,-0.90381 0.0391,-1.23828 0.01,-0.33882 0.0152,-0.6038 0.0176,-0.79492 0.005,-0.19113 0.008,-0.31961 0.008,-0.38477 0,-0.19547 -0.0115,-0.35797 -0.0332,-0.48828 -0.0217,-0.13466 -0.0528,-0.24212 -0.0937,-0.32031 -0.0386,-0.0782 -0.0837,-0.1317 -0.13672,-0.16211 -0.0531,-0.0347 -0.10964,-0.0527 -0.16993,-0.0527 -0.0362,0 -0.0913,0.0115 -0.16601,0.0332 -0.0724,0.0174 -0.17446,0.0514 -0.30469,0.10351 -0.12781,0.0521 -0.28604,0.12363 -0.47656,0.21485 -0.19052,0.0912 -0.42131,0.21168 -0.69141,0.35937 l 0.0547,0.48242 c 0.18087,-0.0825 0.33508,-0.14103 0.46289,-0.17578 0.12782,-0.0347 0.23499,-0.0527 0.32422,-0.0527 0.0868,0 0.15788,0.021 0.21094,0.0645 0.053,0.0391 0.0926,0.10106 0.11914,0.18359 0.0289,0.0825 0.0489,0.18654 0.0586,0.3125 0.01,0.12163 0.0137,0.26463 0.0137,0.42969 0,0.40832 -0.004,0.92528 -0.0137,1.55078 -0.007,0.62117 -0.0187,1.31362 -0.0332,2.07813 -0.0145,0.76451 -0.033,1.58393 -0.0547,2.45703 -0.0217,0.86876 -0.0457,1.75318 -0.0723,2.65234 -0.0265,0.89917 -0.0546,1.79312 -0.0859,2.6836 -0.0314,0.89482 -0.0654,1.74826 -0.10156,2.56054 l 0.0762,0.006 0.75976,-0.15625 c 0.002,-1.26404 0.0164,-2.47844 0.043,-3.64257 0.0265,-1.1598 0.0536,-2.28471 0.0801,-3.375 0.19534,0.35184 0.40313,0.60382 0.625,0.75585 0.22187,0.15204 0.44967,0.22852 0.68359,0.22852 0.21946,0 0.43726,-0.0665 0.6543,-0.20117 0.21946,-0.13032 0.4292,-0.31881 0.62695,-0.56641 0.20017,-0.25194 0.38542,-0.5609 0.55664,-0.92578 0.17123,-0.36488 0.31991,-0.77784 0.44532,-1.23828 0.1254,-0.46479 0.22452,-0.97524 0.29687,-1.53125 0.0724,-0.55601 0.10742,-1.15248 0.10742,-1.79102 0,-0.23456 -0.009,-0.48654 -0.0254,-0.75585 -0.0169,-0.26932 -0.0434,-0.5343 -0.082,-0.79493 -0.0386,-0.26497 -0.0896,-0.51695 -0.15234,-0.75586 -0.0627,-0.24325 -0.14228,-0.45623 -0.23633,-0.63867 -0.0916,-0.18678 -0.19882,-0.33476 -0.32422,-0.44336 -0.1254,-0.11294 -0.2696,-0.16992 -0.43359,-0.16992 z m 14.3164,0.0137 c -0.0482,0 -0.0978,0.008 -0.14843,0.0254 -0.0482,0.013 -0.0948,0.039 -0.14063,0.0781 -0.0458,0.0348 -0.0884,0.0837 -0.12695,0.14453 -0.0362,0.0608 -0.0642,0.13881 -0.0859,0.23437 -0.1254,0.56035 -0.25558,1.14881 -0.39062,1.76563 -0.13505,0.61247 -0.2727,1.22996 -0.41016,1.85547 -0.13505,0.6255 -0.26775,1.24993 -0.40039,1.87109 -0.13023,0.61682 -0.25638,1.21026 -0.37695,1.7793 -0.0579,-0.43004 -0.11699,-0.86597 -0.17969,-1.30469 -0.0627,-0.43872 -0.12825,-0.8662 -0.19336,-1.2832 -0.0627,-0.42135 -0.1248,-0.82434 -0.1875,-1.21094 -0.0627,-0.3866 -0.12227,-0.74257 -0.17774,-1.06836 -0.0555,-0.33013 -0.10606,-0.62457 -0.15429,-0.88086 -0.0458,-0.26063 -0.0854,-0.47361 -0.11914,-0.63867 -0.0506,-0.26063 -0.1017,-0.47512 -0.15235,-0.64453 -0.0506,-0.17375 -0.10469,-0.30873 -0.16015,-0.4043 -0.0531,-0.0999 -0.10814,-0.16989 -0.16602,-0.20898 -0.0555,-0.0391 -0.11503,-0.0586 -0.17773,-0.0586 -0.0531,0 -0.12516,0.0165 -0.2168,0.0469 -0.0916,0.0304 -0.19629,0.0744 -0.31445,0.13086 -0.11817,0.0565 -0.24685,0.12298 -0.38672,0.20117 -0.13746,0.0782 -0.27913,0.1642 -0.42383,0.25977 l 0.0547,0.4707 c 0.12299,-0.0521 0.22913,-0.0946 0.31836,-0.125 0.0868,-0.0304 0.16892,-0.0449 0.24609,-0.0449 0.0675,0 0.12813,0.018 0.18359,0.0527 0.0555,0.0347 0.10952,0.0963 0.16016,0.1875 0.0506,0.0912 0.0987,0.2197 0.14453,0.38477 0.0482,0.16072 0.0978,0.36871 0.14844,0.625 0.0482,0.24759 0.10182,0.54356 0.16211,0.88672 0.0627,0.33881 0.12779,0.70779 0.19531,1.10742 0.0699,0.39963 0.1425,0.8206 0.21484,1.26367 0.0748,0.44307 0.14836,0.89351 0.22071,1.34961 0.0748,0.4561 0.14686,0.90957 0.21679,1.36133 0.0724,0.45175 0.13847,0.88421 0.20118,1.29687 l 0.17773,0.0449 -0.0723,0.34571 c -0.16641,0.78188 -0.31762,1.4648 -0.45508,2.04687 -0.13505,0.58207 -0.2712,1.06653 -0.40625,1.45313 -0.13505,0.38659 -0.27925,0.6741 -0.4336,0.86523 -0.15193,0.19547 -0.32764,0.29297 -0.52539,0.29297 -0.082,0 -0.17364,-0.0225 -0.27734,-0.0703 -0.1037,-0.0478 -0.20731,-0.12925 -0.3086,-0.24219 -0.0772,0.0782 -0.13777,0.19367 -0.18359,0.3457 -0.0482,0.15638 -0.0723,0.30588 -0.0723,0.44922 0,0.13032 0.017,0.25381 0.0508,0.3711 0.0338,0.11728 0.0833,0.21976 0.14843,0.30664 0.0627,0.0912 0.13883,0.16271 0.23047,0.21484 0.0916,0.0565 0.19525,0.0859 0.3086,0.0859 0.18328,0 0.34852,-0.062 0.49804,-0.1836 0.15193,-0.12162 0.29062,-0.2891 0.41602,-0.50195 0.1254,-0.2085 0.24005,-0.45701 0.34375,-0.74805 0.1037,-0.28669 0.20133,-0.59716 0.29297,-0.93164 0.0965,-0.36053 0.19156,-0.74901 0.2832,-1.16601 0.0941,-0.41266 0.18869,-0.84512 0.28516,-1.29688 0.0965,-0.44741 0.19559,-0.91237 0.29687,-1.39453 0.10129,-0.47782 0.20892,-0.96228 0.32227,-1.45312 0.11093,-0.48651 0.22558,-0.97898 0.34375,-1.47852 0.12058,-0.50388 0.24224,-1.00481 0.36523,-1.5 0.12299,-0.49954 0.24615,-0.98703 0.36914,-1.46484 0.12541,-0.47782 0.25006,-0.93628 0.37305,-1.375 0.12299,-0.44307 0.24167,-0.85755 0.35742,-1.24414 0.11817,-0.39095 0.23132,-0.74541 0.33985,-1.0625 -0.0675,-0.0608 -0.13814,-0.1113 -0.21289,-0.15039 -0.0748,-0.0434 -0.15284,-0.0645 -0.23243,-0.0645 z m -14.6289,1.54297 c 0.1254,0 0.23154,0.083 0.31836,0.24805 0.0892,0.16072 0.16178,0.36871 0.21484,0.625 0.0555,0.25194 0.095,0.5349 0.11914,0.84765 0.0265,0.31276 0.0391,0.61674 0.0391,0.91211 0,0.79492 -0.0466,1.49387 -0.14062,2.09766 -0.0916,0.59944 -0.22032,1.1034 -0.38672,1.51172 -0.16399,0.40832 -0.36074,0.71728 -0.58984,0.92578 -0.22669,0.20416 -0.476,0.30664 -0.7461,0.30664 -0.20498,0 -0.41025,-0.075 -0.61523,-0.22266 -0.20258,-0.14768 -0.40634,-0.3767 -0.61133,-0.68945 0.0121,-0.23891 0.0391,-0.51537 0.0801,-0.82812 0.0434,-0.31276 0.0985,-0.64425 0.16601,-0.9961 0.0699,-0.35184 0.15055,-0.71281 0.24219,-1.08203 0.0916,-0.37356 0.19375,-0.73453 0.30469,-1.08203 0.11093,-0.35185 0.22811,-0.68334 0.35351,-0.99609 0.12541,-0.31276 0.25558,-0.58424 0.39063,-0.81446 0.13746,-0.23456 0.27913,-0.42003 0.42383,-0.55468 0.14469,-0.13901 0.29039,-0.20899 0.4375,-0.20899 z m 8.24023,3.38867 c -0.0169,0.30841 -0.052,0.61088 -0.10742,0.90625 -0.0531,0.29104 -0.12113,0.56902 -0.20313,0.83399 -0.082,0.26497 -0.17559,0.51045 -0.27929,0.73633 -0.10129,0.22153 -0.20697,0.41154 -0.32032,0.57226 -0.11093,0.16072 -0.22408,0.28769 -0.33984,0.37891 -0.11576,0.0912 -0.22937,0.13672 -0.33789,0.13672 -0.0965,0 -0.18006,-0.0325 -0.25,-0.0977 -0.0675,-0.0695 -0.1241,-0.16397 -0.16992,-0.28125 -0.0434,-0.11728 -0.076,-0.25031 -0.0977,-0.40234 -0.0193,-0.15638 -0.0273,-0.32083 -0.0273,-0.49024 0,-0.29972 0.0266,-0.56123 0.082,-0.78711 0.0555,-0.23022 0.13205,-0.42868 0.22852,-0.59375 0.0989,-0.16941 0.21651,-0.31089 0.35156,-0.42383 0.13505,-0.11293 0.28074,-0.20393 0.4375,-0.27343 0.15916,-0.0695 0.3259,-0.11803 0.50195,-0.14844 0.17605,-0.0348 0.35279,-0.0577 0.53125,-0.0664 z m -10.63086,20.17969 c -0.0675,0 -0.13261,0.0115 -0.19531,0.0332 -0.0627,0.0217 -0.11928,0.0557 -0.16992,0.10352 -0.0482,0.0434 -0.0878,0.10345 -0.11914,0.18164 -0.0314,0.0738 -0.0484,0.16333 -0.0508,0.26758 -0.0193,0.67763 -0.0408,1.38807 -0.0625,2.13086 -0.0217,0.74279 -0.0443,1.50371 -0.0684,2.28125 -0.0217,0.77319 -0.0442,1.55665 -0.0684,2.35156 -0.0241,0.79491 -0.0481,1.58335 -0.0723,2.36523 -0.0217,0.78189 -0.0442,1.55083 -0.0684,2.30664 -0.0217,0.75148 -0.0447,1.47492 -0.0664,2.16993 -0.0193,0.695 -0.0374,1.35344 -0.0566,1.97461 -0.0169,0.61681 -0.0324,1.18079 -0.0469,1.69336 l 0.0566,0.006 0.77148,-0.16797 c 0.0193,-0.64288 0.0659,-1.28681 0.14063,-1.92969 0.0748,-0.64288 0.16986,-1.25734 0.2832,-1.84375 0.11335,-0.59076 0.24053,-1.1387 0.38282,-1.64258 0.14228,-0.50822 0.28947,-0.94718 0.4414,-1.31641 0.15434,-0.37356 0.30855,-0.66606 0.46289,-0.8789 0.15676,-0.21285 0.30395,-0.31836 0.44141,-0.31836 0.17605,0 0.31622,0.12003 0.41992,0.36328 0.1037,0.23891 0.1543,0.59987 0.1543,1.08203 0,0.19982 -0.009,0.46479 -0.0254,0.79492 -0.0145,0.32579 -0.0315,0.68675 -0.0508,1.08203 -0.0169,0.39529 -0.0319,0.80825 -0.0488,1.23829 -0.0145,0.43003 -0.0234,0.84602 -0.0234,1.25 0,0.33447 0.006,0.64841 0.0156,0.93945 0.0121,0.29103 0.0361,0.54453 0.0723,0.76172 0.0386,0.21719 0.0952,0.38965 0.16992,0.51562 0.0748,0.12597 0.17642,0.1875 0.30664,0.1875 0.11094,0 0.24007,-0.034 0.38477,-0.10351 0.14469,-0.0652 0.2889,-0.15313 0.43359,-0.26172 0.14711,-0.1086 0.28729,-0.22711 0.41992,-0.35742 0.13264,-0.13032 0.24131,-0.2588 0.32813,-0.38477 l -0.0684,-0.33789 c -0.13746,0.11294 -0.27315,0.20047 -0.4082,0.26563 -0.13505,0.0608 -0.26522,0.0918 -0.39063,0.0918 -0.0868,0 -0.16041,-0.021 -0.2207,-0.0645 -0.0603,-0.0478 -0.10836,-0.13228 -0.14453,-0.25391 -0.0362,-0.12597 -0.0632,-0.29692 -0.0801,-0.50976 -0.0145,-0.21285 -0.0215,-0.48736 -0.0215,-0.82617 1e-5,-0.19113 0.003,-0.41863 0.01,-0.6836 0.01,-0.26497 0.0212,-0.54642 0.0332,-0.8418 0.0121,-0.29537 0.0246,-0.59437 0.0391,-0.89843 0.0169,-0.30407 0.0329,-0.59353 0.0449,-0.86719 0.0121,-0.278 0.0221,-0.52847 0.0293,-0.75 0.01,-0.22588 0.0137,-0.40289 0.0137,-0.5332 0,-0.43004 -0.03,-0.79902 -0.0879,-1.10743 -0.0579,-0.3084 -0.1355,-0.56038 -0.23438,-0.75585 -0.0965,-0.19548 -0.20663,-0.33847 -0.33203,-0.42969 -0.1254,-0.0956 -0.25558,-0.14453 -0.39063,-0.14453 -0.19533,0 -0.4006,0.10746 -0.61523,0.32031 -0.21463,0.21284 -0.43139,0.55734 -0.64844,1.03515 -0.21463,0.47348 -0.42691,1.09292 -0.63672,1.85743 -0.20739,0.7645 -0.40415,1.69594 -0.58984,2.79492 l -0.0215,-0.006 c 0.0241,-0.61248 0.0471,-1.1849 0.0664,-1.71484 0.0217,-0.53429 0.0413,-1.04627 0.0606,-1.53711 0.0193,-0.4952 0.0393,-0.98117 0.0586,-1.45899 0.0193,-0.47782 0.0388,-0.96726 0.0606,-1.46679 0.0241,-0.50388 0.0496,-1.02886 0.0762,-1.57618 0.0289,-0.54731 0.06,-1.13577 0.0937,-1.76562 0.0362,-0.6342 0.0757,-1.32015 0.11914,-2.0586 0.0434,-0.74278 0.093,-1.55722 0.14844,-2.44336 -0.15917,-0.139 -0.31038,-0.20898 -0.45508,-0.20898 z m 25.40235,0.006 c -0.15917,0 -0.32384,0.036 -0.49024,0.10547 -0.1664,0.0652 -0.32866,0.17067 -0.49023,0.31836 -0.16158,0.14334 -0.32027,0.32881 -0.47461,0.55469 -0.15193,0.22587 -0.2951,0.49735 -0.42774,0.81445 -0.13022,0.31275 -0.24591,0.67176 -0.34961,1.08008 -0.1037,0.40397 -0.18879,0.86091 -0.2539,1.36914 -0.0506,0.39094 -0.0932,0.76793 -0.12696,1.13281 -0.0338,0.36488 -0.0618,0.73082 -0.0859,1.0957 -0.0217,0.36054 -0.0402,0.728 -0.0547,1.10157 -0.0145,0.36922 -0.0255,0.75769 -0.0352,1.16601 -0.17122,0.013 -0.32842,0.0405 -0.4707,0.084 -0.13987,0.0434 -0.26004,0.10042 -0.36133,0.16992 -0.0989,0.0695 -0.17695,0.14901 -0.23242,0.24023 -0.0555,0.0869 -0.084,0.18286 -0.084,0.28711 0,0.0434 0.006,0.0859 0.0156,0.125 0.13023,-0.0869 0.29145,-0.14386 0.48438,-0.16992 0.19292,-0.0261 0.40221,-0.0425 0.6289,-0.0469 -0.005,1.30749 -0.0148,2.55937 -0.0293,3.75391 -0.0121,1.1902 -0.0371,2.3006 -0.0781,3.33008 -0.0386,1.02513 -0.0952,1.95657 -0.16992,2.79492 -0.0748,0.83835 -0.17986,1.55182 -0.3125,2.14258 -0.13023,0.5951 -0.29294,1.05356 -0.48828,1.375 -0.19293,0.32578 -0.42775,0.48828 -0.70508,0.48828 -0.10611,0 -0.21076,-0.0225 -0.31445,-0.0703 -0.1037,-0.0478 -0.20432,-0.12427 -0.30079,-0.22852 -0.0965,-0.0999 -0.18707,-0.2299 -0.27148,-0.39062 -0.0844,-0.15638 -0.16053,-0.34834 -0.23047,-0.57422 -0.0748,0 -0.14433,0.0245 -0.20703,0.0723 -0.0651,0.0521 -0.1202,0.11713 -0.16602,0.19532 -0.0482,0.0782 -0.0848,0.16767 -0.11132,0.26757 -0.0265,0.10426 -0.041,0.20825 -0.041,0.3125 0,0.18679 0.034,0.36228 0.10156,0.52735 0.0651,0.16941 0.15573,0.31739 0.27149,0.44336 0.11575,0.12597 0.25294,0.22693 0.41211,0.30078 0.15675,0.0738 0.32798,0.10937 0.51367,0.10937 0.21463,0 0.43139,-0.065 0.64844,-0.19531 0.21463,-0.12597 0.42093,-0.34046 0.62109,-0.64453 0.20257,-0.29972 0.39381,-0.69968 0.57227,-1.19922 0.17845,-0.49519 0.33818,-1.11463 0.48046,-1.85742 0.0892,-0.47347 0.16881,-0.99996 0.23633,-1.58203 0.0675,-0.57773 0.1256,-1.18568 0.17383,-1.82422 0.0506,-0.63854 0.0912,-1.29395 0.125,-1.96289 0.0338,-0.67329 0.0623,-1.33476 0.084,-1.98633 0.0241,-0.65157 0.0441,-1.28249 0.0586,-1.89062 0.0145,-0.60814 0.0255,-1.17059 0.0352,-1.6875 0.24598,0.0304 0.47079,0.0629 0.67578,0.0977 0.20498,0.0304 0.39219,0.0469 0.55859,0.0469 0.1664,0 0.29209,-0.031 0.37891,-0.0918 0.0892,-0.0608 0.13476,-0.18583 0.13476,-0.37695 0,-0.0956 -0.0145,-0.22752 -0.041,-0.39258 -0.0699,0.013 -0.15308,0.026 -0.25196,0.0391 -0.0989,0.013 -0.20352,0.0195 -0.31445,0.0195 h -0.20312 c -0.0772,-0.004 -0.1648,-0.006 -0.26368,-0.006 -0.0965,-0.004 -0.2011,-0.009 -0.31445,-0.0137 -0.11093,-0.004 -0.22708,-0.0108 -0.34766,-0.0195 0.0121,-0.64723 0.0246,-1.29418 0.0391,-1.94141 0.0169,-0.65157 0.0439,-1.27404 0.0801,-1.86914 0.0386,-0.5951 0.0937,-1.14954 0.16602,-1.66211 0.0724,-0.51691 0.16998,-0.96388 0.29297,-1.34179 0.1254,-0.38226 0.2811,-0.68125 0.4668,-0.89844 0.1881,-0.21719 0.4174,-0.32617 0.6875,-0.32617 0.0916,0 0.18375,0.021 0.27539,0.0644 0.0941,0.0434 0.17719,0.11342 0.25195,0.20899 0.0772,0.0956 0.13973,0.21906 0.18555,0.37109 0.0482,0.14769 0.0723,0.32665 0.0723,0.53515 0,0.15204 -0.013,0.29807 -0.0371,0.44141 -0.0217,0.14335 -0.0557,0.31083 -0.10156,0.50195 l 0.0156,0.0723 c 0.123,0.0999 0.23868,0.15039 0.34961,0.15039 0.0844,0 0.16548,-0.026 0.24024,-0.0781 0.0748,-0.0521 0.13984,-0.1271 0.19531,-0.22266 0.0579,-0.0999 0.10146,-0.22189 0.13281,-0.36524 0.0338,-0.14334 0.0508,-0.30584 0.0508,-0.48828 0,-0.23456 -0.034,-0.46357 -0.10157,-0.68945 -0.0651,-0.22588 -0.16125,-0.42933 -0.28906,-0.60742 -0.1254,-0.18244 -0.27961,-0.32695 -0.46289,-0.43555 -0.18087,-0.11294 -0.38717,-0.16992 -0.62109,-0.16992 z m -12.23438,8.02734 c -0.0386,0 -0.0781,0.003 -0.11914,0.008 -0.041,0.004 -0.0835,0.0108 -0.12695,0.0195 l -0.041,0.15625 c 0.18328,0.26063 0.31391,0.56113 0.38867,0.90429 0.0772,0.34316 0.11524,0.71063 0.11524,1.10157 0,0.31275 -0.0215,0.63623 -0.0625,0.9707 -0.041,0.33447 -0.0976,0.67593 -0.16992,1.02344 -0.0724,0.3475 -0.15549,0.69849 -0.25196,1.05468 -0.0965,0.35185 -0.20306,0.70133 -0.3164,1.04883 -0.11094,0.34751 -0.22662,0.69244 -0.34961,1.03125 -0.12058,0.33882 -0.24075,0.66533 -0.36133,0.98242 -0.0289,-0.43872 -0.0645,-0.88418 -0.10547,-1.33593 -0.0386,-0.4561 -0.0811,-0.90308 -0.12695,-1.3418 -0.0458,-0.43872 -0.0939,-0.86121 -0.14453,-1.26953 -0.0482,-0.41266 -0.0948,-0.79659 -0.14063,-1.14844 -0.0458,-0.35185 -0.0914,-0.66384 -0.13477,-0.9375 -0.041,-0.278 -0.0761,-0.50398 -0.10742,-0.67773 -0.0458,-0.26063 -0.0928,-0.47513 -0.13867,-0.64453 -0.0458,-0.17376 -0.0939,-0.31025 -0.14453,-0.41016 -0.0506,-0.0999 -0.10274,-0.16989 -0.1582,-0.20898 -0.0531,-0.0434 -0.11262,-0.0645 -0.17774,-0.0645 -0.0531,0 -0.12515,0.0145 -0.21679,0.0449 -0.0917,0.0304 -0.19629,0.0744 -0.31446,0.13086 -0.11817,0.0565 -0.24684,0.1245 -0.38672,0.20704 -0.13746,0.0782 -0.27913,0.16615 -0.42382,0.26171 l 0.0547,0.46875 c 0.12299,-0.0521 0.22764,-0.0926 0.31446,-0.12304 0.0892,-0.0304 0.17283,-0.0469 0.25,-0.0469 0.0675,0 0.12663,0.018 0.17968,0.0527 0.0531,0.0348 0.10113,0.0997 0.14453,0.19531 0.0458,0.0912 0.0899,0.2197 0.13086,0.38476 0.041,0.16072 0.085,0.36872 0.13086,0.625 0.0434,0.25194 0.09,0.55289 0.14063,0.90039 0.0506,0.34751 0.10124,0.72602 0.1543,1.13868 0.0555,0.41266 0.111,0.84859 0.16406,1.30468 0.0555,0.4561 0.10606,0.91759 0.15429,1.38672 0.0506,0.46479 0.0992,0.92823 0.14258,1.38868 0.0434,0.45609 0.08,0.89158 0.11133,1.30859 l 0.38281,0.0723 c 0.13746,-0.31709 0.29615,-0.69257 0.47461,-1.12695 0.17846,-0.43872 0.36268,-0.90867 0.55078,-1.4082 0.18811,-0.49954 0.37187,-1.0165 0.55274,-1.55078 0.18087,-0.53863 0.34209,-1.06512 0.48437,-1.58203 0.14229,-0.51692 0.25694,-1.01134 0.34375,-1.48047 0.0868,-0.47348 0.13086,-0.89445 0.13086,-1.26368 0,-0.4865 -0.0821,-0.86696 -0.24609,-1.14062 -0.16399,-0.27366 -0.40732,-0.41016 -0.73047,-0.41016 z m -5.91601,0.19532 c -0.13747,0 -0.28569,0.0295 -0.44727,0.0859 -0.15917,0.0521 -0.31935,0.13013 -0.47852,0.23438 -0.15916,0.0999 -0.31337,0.2234 -0.46289,0.37109 -0.14952,0.14769 -0.28118,0.31517 -0.39453,0.50196 -0.11334,0.18678 -0.2035,0.39326 -0.27344,0.61914 -0.0675,0.22587 -0.10156,0.46637 -0.10156,0.72265 0,0.15638 0.014,0.29786 0.043,0.42383 0.0314,0.12597 0.0724,0.23148 0.12305,0.31836 0.0531,0.0869 0.11365,0.15534 0.18359,0.20312 0.0724,0.0434 0.15043,0.0645 0.23242,0.0645 0.13988,0 0.27856,-0.06 0.41602,-0.18164 l 0.0137,-0.0723 c -0.082,-0.19981 -0.14409,-0.40478 -0.1875,-0.61328 -0.041,-0.21285 -0.0605,-0.42236 -0.0605,-0.63086 0,-0.17809 0.0155,-0.34406 0.0469,-0.49609 0.0338,-0.15638 0.0858,-0.29136 0.1582,-0.4043 0.0748,-0.11294 0.1709,-0.20047 0.28906,-0.26562 0.11817,-0.0652 0.26433,-0.0977 0.43555,-0.0977 0.12782,0 0.255,0.039 0.38281,0.11719 0.12782,0.0782 0.24247,0.1967 0.34375,0.35742 0.10129,0.16072 0.1834,0.3672 0.2461,0.61914 0.0627,0.25194 0.0937,0.54942 0.0937,0.89258 0,0.30841 -0.006,0.59137 -0.0176,0.84765 -0.01,0.25629 -0.0241,0.52127 -0.041,0.79493 -0.26286,0 -0.52022,0.029 -0.77343,0.0898 -0.25322,0.0565 -0.49402,0.14595 -0.72071,0.26758 -0.22669,0.11728 -0.43598,0.26678 -0.6289,0.44922 -0.19293,0.17809 -0.35818,0.39107 -0.49805,0.63867 -0.13746,0.24759 -0.24659,0.52904 -0.32617,0.8418 -0.0772,0.31275 -0.11524,0.65876 -0.11524,1.04101 0,0.29538 0.0251,0.57033 0.0781,0.82227 0.0555,0.24759 0.13205,0.46209 0.22851,0.64453 0.0989,0.18244 0.21606,0.32543 0.35352,0.42969 0.13746,0.10425 0.29063,0.15624 0.45703,0.15624 0.20258,0 0.39484,-0.0875 0.57813,-0.26562 0.18569,-0.17375 0.3599,-0.4032 0.52148,-0.68555 0.16399,-0.28669 0.31417,-0.61017 0.44922,-0.9707 0.13746,-0.36488 0.25763,-0.73386 0.36133,-1.10742 h 0.0215 c -0.0121,0.12597 -0.0206,0.24643 -0.0254,0.35937 -0.002,0.11294 -0.004,0.22496 -0.004,0.33789 0,0.37791 0.027,0.70941 0.0801,0.9961 0.0531,0.28669 0.12815,0.52567 0.22461,0.71679 0.0965,0.18679 0.21111,0.32827 0.34375,0.42383 0.13264,0.0956 0.27684,0.14453 0.4336,0.14453 0.20981,0 0.40909,-0.0765 0.59961,-0.22851 0.19051,-0.15203 0.36772,-0.37303 0.52929,-0.66406 l -0.10547,-0.28125 c -0.2291,0.24759 -0.43735,0.37109 -0.62304,0.37109 -0.20981,0 -0.37954,-0.156 -0.50977,-0.46875 -0.12781,-0.3171 -0.19141,-0.78856 -0.19141,-1.41406 0,-0.39529 0.006,-0.79178 0.0176,-1.19141 0.0145,-0.39963 0.03,-0.78659 0.0469,-1.16016 0.0169,-0.37791 0.0329,-0.73887 0.0449,-1.08203 0.0145,-0.34316 0.0215,-0.65862 0.0215,-0.94531 0,-0.417 -0.027,-0.78901 -0.0801,-1.11914 -0.0506,-0.33013 -0.13275,-0.61158 -0.2461,-0.8418 -0.11093,-0.23456 -0.25663,-0.41157 -0.4375,-0.5332 -0.17846,-0.12163 -0.39522,-0.18359 -0.64843,-0.18359 z m 27.94531,0 c -0.19534,0 -0.4006,0.10746 -0.61524,0.32031 -0.21463,0.21284 -0.42944,0.55885 -0.64648,1.04101 -0.21705,0.47782 -0.43082,1.10376 -0.64063,1.87696 -0.20981,0.76885 -0.40656,1.71328 -0.58984,2.83398 l -0.0215,-0.006 c 0.0217,-0.37791 0.0412,-0.7549 0.0605,-1.13281 0.0193,-0.38225 0.0363,-0.75318 0.0508,-1.10937 0.0169,-0.3562 0.0309,-0.68921 0.043,-1.00196 0.0121,-0.31709 0.0221,-0.59854 0.0293,-0.8418 0.01,-0.24325 0.0167,-0.44323 0.0215,-0.5996 0.005,-0.16072 0.008,-0.26125 0.008,-0.30469 0,-0.36488 -0.0396,-0.62184 -0.11914,-0.76953 -0.0772,-0.15204 -0.1863,-0.22852 -0.32618,-0.22852 -0.0579,0 -0.13699,0.018 -0.23828,0.0527 -0.10128,0.0348 -0.21892,0.0852 -0.35156,0.15039 -0.13264,0.0652 -0.27833,0.14315 -0.4375,0.23437 -0.15675,0.0869 -0.32096,0.18438 -0.49219,0.29297 l 0.0547,0.46875 c 0.15434,-0.0738 0.29153,-0.13234 0.41211,-0.17578 0.12058,-0.0434 0.22568,-0.0644 0.3125,-0.0644 0.0627,0 0.11629,0.0145 0.16211,0.0449 0.0458,0.0304 0.0824,0.0824 0.11133,0.15625 0.0314,0.0695 0.0558,0.16548 0.0703,0.28711 0.0145,0.12162 0.0215,0.27112 0.0215,0.44922 0,0.19547 -0.003,0.46196 -0.008,0.80078 -0.002,0.33881 -0.008,0.72426 -0.0176,1.15429 -0.007,0.4257 -0.0172,0.88567 -0.0293,1.38086 -0.01,0.49085 -0.0226,0.98831 -0.0371,1.49219 -0.0145,0.49954 -0.03,0.99201 -0.0469,1.47852 -0.0169,0.4865 -0.0354,0.93695 -0.0547,1.34961 l 0.0586,0.006 0.75586,-0.16797 c 0.0193,-0.64288 0.0659,-1.28681 0.14062,-1.92969 0.0748,-0.64288 0.16986,-1.25734 0.28321,-1.84375 0.11334,-0.59076 0.23903,-1.1387 0.3789,-1.64258 0.14229,-0.50822 0.28948,-0.94718 0.44141,-1.31641 0.15434,-0.37356 0.30855,-0.66606 0.46289,-0.8789 0.15434,-0.21285 0.30153,-0.31836 0.4414,-0.31836 0.17605,0 0.31772,0.12003 0.42383,0.36328 0.10611,0.23891 0.16016,0.61287 0.16016,1.12109 0,0.19113 -0.009,0.44809 -0.0254,0.76953 -0.0145,0.3171 -0.0315,0.67156 -0.0508,1.0625 -0.0193,0.39095 -0.0378,0.80195 -0.0547,1.23633 -0.0145,0.43004 -0.0215,0.8495 -0.0215,1.25782 0,0.33447 0.004,0.64841 0.0137,0.93945 0.0121,0.29103 0.0361,0.54453 0.0723,0.76172 0.0386,0.21719 0.0952,0.38965 0.16992,0.51562 0.0748,0.12597 0.17837,0.1875 0.3086,0.1875 0.11093,0 0.23812,-0.034 0.38281,-0.10351 0.1447,-0.0652 0.2889,-0.15313 0.43359,-0.26172 0.14711,-0.1086 0.28729,-0.22711 0.41993,-0.35742 0.13263,-0.13032 0.24326,-0.2588 0.33007,-0.38477 l -0.0703,-0.33789 c -0.13746,0.11294 -0.27315,0.20047 -0.4082,0.26563 -0.13505,0.0608 -0.26522,0.0918 -0.39063,0.0918 -0.0868,0 -0.16041,-0.021 -0.2207,-0.0645 -0.0603,-0.0478 -0.10836,-0.13228 -0.14453,-0.25391 -0.0362,-0.12597 -0.0632,-0.29692 -0.0801,-0.50976 -0.0145,-0.21285 -0.0215,-0.48736 -0.0215,-0.82617 0,-0.19548 0.004,-0.42297 0.0117,-0.6836 0.01,-0.26497 0.0192,-0.54295 0.0312,-0.83398 0.0121,-0.29104 0.0265,-0.587 0.041,-0.88672 0.0169,-0.30407 0.0309,-0.59201 0.043,-0.86133 0.0121,-0.26932 0.0221,-0.51133 0.0293,-0.72852 0.01,-0.22153 0.0137,-0.39703 0.0137,-0.52734 0,-0.44741 -0.0281,-0.82787 -0.0859,-1.14062 -0.0579,-0.3171 -0.13745,-0.57558 -0.23633,-0.77539 -0.0965,-0.19982 -0.20662,-0.34629 -0.33203,-0.4375 -0.1254,-0.0912 -0.25557,-0.13672 -0.39062,-0.13672 z m -8.88867,0.0195 c -0.0434,0 -0.0855,0.006 -0.12891,0.0195 -0.0434,0.013 -0.083,0.039 -0.11914,0.0781 -0.0362,0.0391 -0.0687,0.0961 -0.0977,0.16993 -0.0265,0.0738 -0.0465,0.17134 -0.0586,0.29296 -0.0338,0.33013 -0.0678,0.70561 -0.10156,1.12696 -0.0314,0.417 -0.0594,0.85943 -0.0859,1.32422 -0.0241,0.46044 -0.0456,0.92994 -0.0625,1.41211 -0.0145,0.47781 -0.0215,0.94624 -0.0215,1.40234 0,0.53863 0.017,1.04909 0.0508,1.53125 0.0362,0.47782 0.0972,0.89879 0.18164,1.26367 0.0868,0.36054 0.20146,0.64501 0.34375,0.85352 0.14469,0.21284 0.32397,0.31836 0.54101,0.31836 0.18328,0 0.37751,-0.0975 0.58008,-0.29297 0.20257,-0.19113 0.40335,-0.51309 0.60352,-0.96485 0.20257,-0.45175 0.39932,-1.04671 0.58984,-1.78515 0.19293,-0.73845 0.37117,-1.6519 0.53516,-2.74219 l 0.0391,0.0137 c -0.0217,0.29538 -0.0398,0.56339 -0.0566,0.80664 -0.0169,0.24325 -0.0309,0.4727 -0.043,0.68555 -0.01,0.21285 -0.0186,0.41434 -0.0234,0.60547 -0.005,0.18678 -0.006,0.37376 -0.006,0.56055 0,0.58206 0.0311,1.06955 0.0937,1.46484 0.0627,0.39094 0.14481,0.7064 0.2461,0.94531 0.10369,0.23457 0.21938,0.40205 0.3496,0.50195 0.13264,0.0999 0.27029,0.1504 0.41016,0.1504 0.11093,0 0.2196,-0.0245 0.32813,-0.0723 0.10852,-0.0478 0.21362,-0.1143 0.3125,-0.20117 0.0989,-0.0825 0.19202,-0.18199 0.28125,-0.29492 0.0892,-0.11729 0.16834,-0.24078 0.23828,-0.3711 l -0.11914,-0.29883 c -0.0289,0.0348 -0.0645,0.0738 -0.10547,0.11719 -0.0386,0.0434 -0.0807,0.0839 -0.12891,0.12305 -0.0482,0.0348 -0.10078,0.0657 -0.15625,0.0918 -0.053,0.0261 -0.10664,0.0391 -0.16211,0.0391 -0.0941,0 -0.18915,-0.047 -0.2832,-0.14258 -0.0916,-0.0999 -0.17375,-0.27887 -0.24609,-0.53516 -0.0724,-0.26062 -0.12997,-0.61509 -0.17579,-1.0625 -0.0458,-0.45175 -0.0703,-1.03219 -0.0703,-1.74023 0,-0.37357 0.004,-0.78154 0.0117,-1.22461 0.007,-0.44307 0.0187,-0.89503 0.0332,-1.35547 0.0145,-0.46479 0.03,-0.92628 0.0469,-1.38672 0.0193,-0.46478 0.0388,-0.90374 0.0606,-1.3164 l -0.0566,-0.006 -0.76758,0.16796 c -0.0386,1.10333 -0.12621,2.13421 -0.26368,3.08985 -0.13746,0.95129 -0.30466,1.80776 -0.5,2.57226 -0.19533,0.76451 -0.4006,1.34647 -0.61523,1.7461 -0.21463,0.39528 -0.42392,0.59375 -0.62891,0.59375 -0.12058,0 -0.22223,-0.0635 -0.30664,-0.18946 -0.082,-0.13031 -0.15007,-0.31231 -0.20312,-0.54687 -0.0531,-0.23456 -0.0911,-0.51406 -0.11524,-0.83984 -0.0217,-0.33013 -0.0332,-0.69608 -0.0332,-1.09571 0,-0.36922 0.007,-0.76571 0.0215,-1.1914 0.0169,-0.42569 0.0379,-0.86617 0.0644,-1.32227 0.0289,-0.46044 0.0615,-0.93537 0.0977,-1.42187 0.0386,-0.48651 0.0796,-0.974 0.12304,-1.46485 -0.0699,-0.0651 -0.14054,-0.11564 -0.21289,-0.15039 -0.0699,-0.0348 -0.14652,-0.0527 -0.22851,-0.0527 z m -9.08204,0.008 c -0.27009,0 -0.52342,0.0745 -0.75976,0.22656 -0.23393,0.15204 -0.45069,0.3635 -0.64844,0.63282 -0.19534,0.26497 -0.36909,0.58043 -0.52344,0.94531 -0.15434,0.36053 -0.28601,0.75052 -0.39453,1.17187 -0.10611,0.42135 -0.18821,0.86529 -0.24609,1.33008 -0.0555,0.46479 -0.084,0.92975 -0.084,1.39453 0,0.56904 0.0481,1.10203 0.14454,1.60156 0.0989,0.4952 0.23652,0.92766 0.41015,1.29688 0.17364,0.36922 0.37994,0.6602 0.6211,0.87305 0.24116,0.21284 0.50748,0.32031 0.79687,0.32031 0.16881,0 0.34004,-0.0425 0.51367,-0.125 0.17364,-0.0782 0.34337,-0.20017 0.50977,-0.36524 0.16881,-0.1694 0.33003,-0.3774 0.48437,-0.625 0.15676,-0.25194 0.30245,-0.5479 0.4375,-0.88671 0.007,-0.0174 0.0117,-0.0334 0.0117,-0.0508 0,-0.0304 -0.007,-0.0614 -0.0215,-0.0918 -0.0145,-0.0348 -0.0315,-0.0657 -0.0508,-0.0918 -0.0193,-0.0304 -0.0423,-0.0564 -0.0664,-0.0781 -0.0217,-0.0261 -0.0383,-0.0456 -0.0527,-0.0586 -0.23393,0.43438 -0.46621,0.74984 -0.69532,0.94531 -0.22669,0.19113 -0.44897,0.28711 -0.66601,0.28711 -0.21463,0 -0.41392,-0.091 -0.59961,-0.27343 -0.1857,-0.18244 -0.34887,-0.43789 -0.48633,-0.76368 -0.13746,-0.33012 -0.24464,-0.7251 -0.32422,-1.18554 -0.0772,-0.46044 -0.11523,-0.96743 -0.11523,-1.52344 v -0.11133 c 0.44373,-0.0695 0.85529,-0.1735 1.23632,-0.3125 0.38345,-0.14334 0.71589,-0.33032 0.99805,-0.56054 0.28216,-0.23023 0.50295,-0.50972 0.66211,-0.83985 0.16158,-0.33013 0.24219,-0.71709 0.24219,-1.16015 0,-0.30407 -0.0351,-0.57555 -0.10742,-0.81446 -0.0724,-0.23891 -0.16998,-0.43889 -0.29297,-0.59961 -0.12058,-0.16506 -0.26225,-0.29203 -0.42383,-0.3789 -0.16158,-0.0869 -0.33131,-0.12891 -0.50977,-0.12891 z m -0.34375,0.76172 c 0.10611,0 0.20524,0.0375 0.29688,0.11133 0.0916,0.0738 0.16926,0.17437 0.23437,0.30468 0.0675,0.12597 0.12008,0.27742 0.15625,0.45118 0.0386,0.17375 0.0566,0.35878 0.0566,0.55859 0,0.29972 -0.0496,0.56817 -0.14844,0.80273 -0.0989,0.23023 -0.24159,0.43021 -0.42969,0.59961 -0.18569,0.16507 -0.41499,0.30157 -0.6875,0.41016 -0.2701,0.10425 -0.57552,0.17727 -0.91797,0.2207 0.0145,-0.25628 0.0385,-0.51779 0.0723,-0.78711 0.0338,-0.26931 0.0759,-0.53278 0.1289,-0.78906 0.0555,-0.25628 0.12205,-0.49678 0.19922,-0.72265 0.0772,-0.23023 0.16629,-0.43021 0.26758,-0.59961 0.10129,-0.17376 0.21594,-0.31025 0.34375,-0.41016 0.12781,-0.0999 0.27098,-0.15039 0.42773,-0.15039 z m -9.11718,4.16406 c -0.0169,0.30841 -0.052,0.60892 -0.10743,0.9043 -0.0531,0.29103 -0.12113,0.56901 -0.20312,0.83398 -0.082,0.26497 -0.17364,0.51045 -0.27734,0.73633 -0.10129,0.22153 -0.20892,0.4135 -0.32227,0.57422 -0.11093,0.16072 -0.22409,0.28573 -0.33984,0.37695 -0.11576,0.0912 -0.22937,0.13672 -0.33789,0.13672 -0.0965,0 -0.17811,-0.0325 -0.24805,-0.0977 -0.0675,-0.0695 -0.1241,-0.16201 -0.16992,-0.27929 -0.0434,-0.11728 -0.076,-0.25227 -0.0977,-0.4043 -0.0193,-0.15638 -0.0293,-0.31887 -0.0293,-0.48828 0,-0.29972 0.0266,-0.56319 0.082,-0.78906 0.0555,-0.23022 0.13205,-0.42674 0.22851,-0.5918 0.0989,-0.16941 0.21651,-0.31089 0.35156,-0.42383 0.13505,-0.11294 0.28075,-0.20393 0.4375,-0.27344 0.15917,-0.0695 0.32591,-0.11998 0.50196,-0.15039 0.17604,-0.0348 0.35279,-0.0558 0.53125,-0.0644 z m 11.55078,20.17774 c -0.0627,0 -0.12331,0.0115 -0.1836,0.0332 -0.0603,0.0217 -0.11583,0.0557 -0.16406,0.10351 -0.0482,0.0434 -0.0878,0.10541 -0.11914,0.1836 -0.0314,0.0738 -0.0494,0.16333 -0.0566,0.26758 -0.0338,0.50388 -0.0648,1.07587 -0.0937,1.71875 -0.0289,0.64288 -0.056,1.3258 -0.0801,2.04687 -0.0241,0.72107 -0.0471,1.46401 -0.0664,2.22852 -0.0169,0.76016 -0.0309,1.5096 -0.043,2.24804 -0.18811,-0.19981 -0.37785,-0.34476 -0.56836,-0.43164 -0.18811,-0.0869 -0.37589,-0.1289 -0.56641,-0.1289 -0.27251,0 -0.53285,0.083 -0.78125,0.24804 -0.24598,0.16072 -0.47528,0.38324 -0.6875,0.66993 -0.21222,0.28669 -0.40495,0.62966 -0.57617,1.02929 -0.17122,0.39529 -0.31841,0.82623 -0.44141,1.29102 -0.12058,0.46478 -0.21223,0.95726 -0.27734,1.47851 -0.0651,0.51692 -0.0977,1.04189 -0.0977,1.57618 0,0.44306 0.024,0.87552 0.0723,1.29687 0.0482,0.417 0.12183,0.78945 0.2207,1.11523 0.10129,0.32145 0.22997,0.57992 0.38672,0.7754 0.15676,0.19981 0.3435,0.29882 0.56055,0.29882 0.21463,0 0.43795,-0.13498 0.67187,-0.40429 0.23393,-0.27366 0.46771,-0.66214 0.69922,-1.16602 0.23152,-0.50388 0.45483,-1.11184 0.67188,-1.82422 0.21945,-0.71238 0.42368,-1.50883 0.60937,-2.39062 l 0.0312,0.0117 c -0.041,0.44741 -0.0705,0.89785 -0.0898,1.34961 -0.0169,0.44741 -0.0254,0.88788 -0.0254,1.32226 0,0.40832 0.006,0.78726 0.0176,1.13477 0.0145,0.3475 0.033,0.65148 0.0547,0.91211 0.0169,0.19547 0.0379,0.35645 0.0645,0.48242 0.0289,0.12597 0.063,0.22498 0.10156,0.29883 0.041,0.0782 0.0891,0.1317 0.14453,0.16211 0.0555,0.0304 0.12055,0.0469 0.19531,0.0469 0.10129,0 0.22192,-0.036 0.35938,-0.10547 0.13987,-0.0652 0.28108,-0.15117 0.42578,-0.25976 0.14469,-0.1086 0.28188,-0.22906 0.41211,-0.35938 0.13264,-0.13031 0.24326,-0.25684 0.33008,-0.38281 l -0.0684,-0.33985 c -0.13746,0.11294 -0.27511,0.20243 -0.41016,0.26758 -0.13264,0.0608 -0.25534,0.0918 -0.37109,0.0918 -0.0627,0 -0.11825,-0.0115 -0.16407,-0.0332 -0.0458,-0.0261 -0.0869,-0.0781 -0.12304,-0.15625 -0.0338,-0.0782 -0.0618,-0.18869 -0.0859,-0.33203 -0.0217,-0.14335 -0.0402,-0.33683 -0.0547,-0.58008 -0.0121,-0.24325 -0.0221,-0.54073 -0.0293,-0.89258 -0.005,-0.35185 -0.006,-0.77282 -0.006,-1.26367 0,-1.02079 0.0166,-2.08721 0.0527,-3.19922 0.0362,-1.11201 0.0842,-2.24191 0.14453,-3.38867 0.0603,-1.14676 0.13136,-2.29768 0.21094,-3.45313 0.0796,-1.15545 0.16318,-2.28535 0.25,-3.38867 -0.15917,-0.139 -0.31234,-0.20898 -0.45703,-0.20898 z m 5.375,0 c -0.0627,0 -0.1248,0.0115 -0.1875,0.0332 -0.0603,0.0217 -0.11537,0.0557 -0.16602,0.10351 -0.0482,0.0434 -0.0878,0.10541 -0.11914,0.1836 -0.0314,0.0738 -0.0484,0.16333 -0.0508,0.26758 -0.0169,0.45609 -0.0354,0.98107 -0.0547,1.57617 -0.0193,0.5951 -0.0388,1.22905 -0.0605,1.90234 -0.0217,0.66895 -0.0447,1.36487 -0.0664,2.08594 -0.0217,0.71673 -0.0412,1.42868 -0.0606,2.13672 -0.0193,0.70369 -0.0378,1.38466 -0.0547,2.04492 -0.0169,0.66026 -0.0324,1.26821 -0.0469,1.82422 -0.0121,0.556 -0.0221,1.04545 -0.0293,1.4668 -0.007,0.417 -0.01,0.73896 -0.01,0.96484 0,0.62116 0.004,1.14765 0.0137,1.58203 0.0121,0.43004 0.0376,0.77951 0.0762,1.04883 0.041,0.26931 0.0991,0.46279 0.17383,0.58008 0.0772,0.12162 0.18032,0.18359 0.31055,0.18359 0.10128,0 0.21996,-0.036 0.35742,-0.10547 0.13987,-0.0652 0.28304,-0.15117 0.42773,-0.25976 0.1447,-0.1086 0.28189,-0.22906 0.41211,-0.35938 0.13264,-0.13031 0.24326,-0.25684 0.33008,-0.38281 l -0.0684,-0.33985 c -0.13746,0.11294 -0.27511,0.20243 -0.41016,0.26758 -0.13263,0.0608 -0.25729,0.0918 -0.37304,0.0918 -0.0627,0 -0.11629,-0.0115 -0.16211,-0.0332 -0.0458,-0.0261 -0.0854,-0.0731 -0.11914,-0.14258 -0.0338,-0.0695 -0.0618,-0.17047 -0.0859,-0.30078 -0.0217,-0.13032 -0.0402,-0.30083 -0.0547,-0.51367 -0.012,-0.21285 -0.0221,-0.4748 -0.0293,-0.78321 -0.005,-0.30841 -0.008,-0.67738 -0.008,-1.10742 0,-0.68632 0.007,-1.40326 0.0215,-2.15039 0.0145,-0.74713 0.036,-1.5061 0.0625,-2.2793 0.0265,-0.77754 0.0576,-1.56597 0.0937,-2.36523 0.0362,-0.79926 0.0742,-1.5942 0.11523,-2.38477 0.0434,-0.79491 0.0889,-1.58032 0.13477,-2.35351 0.0482,-0.77754 0.0963,-1.535 0.14453,-2.27344 -0.15917,-0.139 -0.31234,-0.20898 -0.45703,-0.20898 z m 13.5664,0 c -0.0675,0 -0.13261,0.0115 -0.19531,0.0332 -0.0627,0.0217 -0.11928,0.0557 -0.16992,0.10351 -0.0482,0.0434 -0.0878,0.10541 -0.11914,0.1836 -0.0313,0.0738 -0.0484,0.16333 -0.0508,0.26758 -0.0193,0.67763 -0.0408,1.38611 -0.0625,2.1289 -0.0217,0.74279 -0.0443,1.50371 -0.0684,2.28125 -0.0217,0.7732 -0.0442,1.55665 -0.0684,2.35156 -0.0241,0.79492 -0.0481,1.58336 -0.0723,2.36524 -0.0217,0.78188 -0.0442,1.55082 -0.0684,2.30664 -0.0217,0.75148 -0.0447,1.47492 -0.0664,2.16992 -0.0193,0.69501 -0.0374,1.35345 -0.0566,1.97461 -0.0169,0.61682 -0.0324,1.18079 -0.0469,1.69336 l 0.0566,0.008 0.73047,-0.16992 c 0.0627,-0.8036 0.1463,-1.55954 0.25,-2.26758 0.1037,-0.70803 0.22134,-1.35651 0.35156,-1.94726 0.13023,-0.59076 0.2719,-1.1192 0.42383,-1.58399 0.15193,-0.46478 0.30568,-0.85824 0.46485,-1.17968 0.16157,-0.32144 0.32475,-0.56692 0.48632,-0.73633 0.16399,-0.16941 0.32073,-0.25391 0.47266,-0.25391 0.0651,0 0.12617,0.0195 0.18164,0.0586 0.0579,0.0391 0.10744,0.0961 0.14844,0.16993 0.0434,0.0695 0.0774,0.15551 0.10156,0.25976 0.0265,0.0999 0.0391,0.21041 0.0391,0.33203 0,0.29104 -0.0466,0.57552 -0.14062,0.85352 -0.0941,0.278 -0.22871,0.54298 -0.40234,0.79492 -0.17123,0.25194 -0.37649,0.48941 -0.61524,0.71094 -0.23875,0.22153 -0.50162,0.42 -0.79102,0.59375 l -0.0156,0.0781 c 0.23151,0.76885 0.43678,1.43033 0.61523,1.98633 0.17846,0.55166 0.34118,1.00861 0.48829,1.36914 0.14951,0.36054 0.2882,0.62552 0.41601,0.79492 0.13023,0.17376 0.2604,0.25977 0.39063,0.25977 0.11093,0 0.24007,-0.034 0.38476,-0.10352 0.14711,-0.0652 0.2943,-0.15312 0.44141,-0.26171 0.14952,-0.1086 0.28924,-0.22711 0.42187,-0.35743 0.13264,-0.13031 0.24326,-0.25879 0.33008,-0.38476 l -0.0684,-0.33789 c -0.13746,0.11294 -0.2751,0.20393 -0.41015,0.27344 -0.13505,0.0695 -0.26523,0.10351 -0.39063,0.10351 -0.0627,0 -0.1248,-0.0115 -0.1875,-0.0332 -0.0627,-0.0261 -0.13078,-0.0781 -0.20312,-0.15625 -0.0699,-0.0782 -0.14607,-0.19367 -0.23047,-0.34571 -0.0844,-0.15203 -0.181,-0.35504 -0.28711,-0.61132 -0.1037,-0.26063 -0.21939,-0.58108 -0.34961,-0.95899 -0.12782,-0.38225 -0.27397,-0.83876 -0.43555,-1.37304 0.27251,-0.23891 0.52032,-0.49739 0.74219,-0.7754 0.22428,-0.28234 0.41701,-0.57982 0.57617,-0.89257 0.15917,-0.31276 0.28232,-0.6397 0.36914,-0.97852 0.0868,-0.33882 0.12891,-0.68829 0.12891,-1.04883 0,-0.23022 -0.0211,-0.43821 -0.0645,-0.625 -0.041,-0.18678 -0.10056,-0.34625 -0.17773,-0.47656 -0.0748,-0.13466 -0.16388,-0.23714 -0.26758,-0.30664 -0.1037,-0.0738 -0.21685,-0.10938 -0.33984,-0.10938 -0.19534,0 -0.38761,0.0795 -0.57813,0.24024 -0.19051,0.15638 -0.37623,0.37434 -0.55468,0.65234 -0.17846,0.27801 -0.34969,0.6095 -0.51368,0.9961 -0.16399,0.38225 -0.3167,0.80171 -0.45898,1.25781 -0.14228,0.45175 -0.27246,0.92971 -0.39063,1.43359 -0.11816,0.50388 -0.21982,1.01434 -0.30664,1.53125 l -0.0215,-0.006 c 0.0241,-0.61247 0.0452,-1.18641 0.0645,-1.7207 0.0217,-0.53429 0.0413,-1.05125 0.0605,-1.55078 0.0193,-0.49954 0.0393,-0.9905 0.0586,-1.47266 0.0217,-0.4865 0.0427,-0.98245 0.0645,-1.48633 0.0241,-0.50822 0.0511,-1.03818 0.0801,-1.58984 0.0289,-0.556 0.06,-1.15096 0.0937,-1.78516 0.0362,-0.63853 0.0757,-1.32947 0.11915,-2.07226 0.0434,-0.74279 0.093,-1.55874 0.14843,-2.44922 -0.15916,-0.139 -0.31038,-0.20898 -0.45508,-0.20898 z m -34.84961,7.5332 -0.0469,0.0586 c 0.002,0.0348 0.002,0.0657 0.002,0.0918 0.002,0.0261 0.004,0.0536 0.004,0.084 0,0.19547 -0.0196,0.37097 -0.0606,0.52735 -0.0386,0.15203 -0.0926,0.28203 -0.16015,0.39062 -0.0675,0.10425 -0.14515,0.18572 -0.23438,0.24219 -0.0892,0.0565 -0.18283,0.084 -0.2793,0.084 -0.11575,0 -0.21741,-0.031 -0.30664,-0.0918 -0.0868,-0.0652 -0.17593,-0.13817 -0.26757,-0.22071 -0.0603,-0.0521 -0.12538,-0.10412 -0.19532,-0.15625 -0.0675,-0.0565 -0.14261,-0.10695 -0.22461,-0.15039 -0.082,-0.0478 -0.17111,-0.0868 -0.26757,-0.11718 -0.0965,-0.0304 -0.20261,-0.0449 -0.31836,-0.0449 -0.30387,0 -0.59422,0.099 -0.86914,0.29883 -0.27493,0.19982 -0.51676,0.47628 -0.72657,0.82813 -0.20739,0.35184 -0.3731,0.77131 -0.49609,1.25781 -0.12299,0.48216 -0.18359,1.00714 -0.18359,1.57617 0,0.33447 0.027,0.65644 0.0801,0.96485 0.0531,0.30406 0.12769,0.58507 0.22657,0.8457 0.10128,0.26063 0.22444,0.49311 0.36914,0.69726 0.1471,0.20416 0.3143,0.37164 0.5,0.50196 -0.0965,0.0738 -0.19709,0.16181 -0.30078,0.26172 -0.1037,0.0999 -0.19834,0.21842 -0.28516,0.35742 -0.0868,0.13466 -0.15892,0.29065 -0.2168,0.46875 -0.0555,0.17375 -0.084,0.37221 -0.084,0.59375 0,0.19547 0.0215,0.37097 0.0625,0.52734 0.0434,0.15203 0.0985,0.28853 0.16601,0.41016 0.0699,0.12162 0.14607,0.22758 0.23047,0.31445 0.0868,0.0912 0.1764,0.17073 0.26563,0.24024 l -0.008,0.0332 c -0.12299,0.0652 -0.25017,0.15117 -0.38281,0.25976 -0.13022,0.11294 -0.26085,0.24641 -0.38867,0.39844 -0.1254,0.15203 -0.24408,0.32255 -0.35742,0.51367 -0.11335,0.19113 -0.21396,0.39761 -0.30078,0.61914 -0.0844,0.22154 -0.15053,0.46052 -0.20117,0.7168 -0.0506,0.25628 -0.0762,0.52278 -0.0762,0.80078 0,0.33447 0.0336,0.63195 0.10352,0.89258 0.0699,0.26063 0.16503,0.49159 0.2832,0.69141 0.12058,0.19981 0.25777,0.36881 0.41211,0.50781 0.15676,0.14334 0.32097,0.25883 0.49219,0.3457 0.17122,0.0912 0.34544,0.15622 0.52148,0.19531 0.17605,0.0434 0.34279,0.0645 0.50196,0.0645 0.27492,0 0.54078,-0.0485 0.79883,-0.14844 0.26045,-0.0956 0.50527,-0.23553 0.73437,-0.41797 0.2291,-0.17809 0.44034,-0.39259 0.63086,-0.64453 0.19052,-0.25194 0.35277,-0.52992 0.49023,-0.83398 0.13746,-0.30407 0.2436,-0.63253 0.31836,-0.98438 0.0772,-0.3475 0.11719,-0.70998 0.11719,-1.08789 0,-0.29972 -0.0285,-0.5647 -0.084,-0.79492 -0.0555,-0.22588 -0.1316,-0.42586 -0.23047,-0.59961 -0.0989,-0.16941 -0.21652,-0.31891 -0.35156,-0.44922 -0.13505,-0.12597 -0.28225,-0.23647 -0.44141,-0.33203 -0.15917,-0.0956 -0.32591,-0.18006 -0.50195,-0.25391 -0.17605,-0.0738 -0.35624,-0.14534 -0.53711,-0.21484 -0.20017,-0.0782 -0.39244,-0.15467 -0.57813,-0.22852 -0.18328,-0.0782 -0.3445,-0.16767 -0.48437,-0.26757 -0.13988,-0.0999 -0.25154,-0.21691 -0.33594,-0.35157 -0.082,-0.13465 -0.12305,-0.29715 -0.12305,-0.48828 0,-0.0956 0.014,-0.19003 0.043,-0.28125 0.0289,-0.0956 0.07,-0.18309 0.12305,-0.26562 0.0531,-0.0825 0.11365,-0.15599 0.18359,-0.2168 0.0699,-0.0608 0.14802,-0.10631 0.23242,-0.13672 0.0555,0.013 0.10756,0.0245 0.15821,0.0332 0.0531,0.009 0.1071,0.0137 0.16015,0.0137 0.20499,0 0.40174,-0.0505 0.58985,-0.15039 0.1881,-0.0999 0.36335,-0.23988 0.52734,-0.41797 0.16399,-0.18244 0.31267,-0.39347 0.44531,-0.63672 0.13505,-0.2476 0.2497,-0.51756 0.34375,-0.8086 0.0965,-0.29537 0.17006,-0.60585 0.22071,-0.93164 0.053,-0.33012 0.0801,-0.6666 0.0801,-1.00976 0,-0.33013 -0.024,-0.65708 -0.0723,-0.97852 -0.0482,-0.32144 -0.13482,-0.63993 -0.25781,-0.95703 l 0.0156,-0.0332 c 0.19534,0.12162 0.37611,0.18359 0.54492,0.18359 0.11094,0 0.21305,-0.0245 0.30469,-0.0723 0.0916,-0.0478 0.16926,-0.11777 0.23438,-0.20899 0.0675,-0.0912 0.12007,-0.2002 0.15624,-0.32617 0.0362,-0.13031 0.0547,-0.27634 0.0547,-0.44141 0,-0.2085 -0.0411,-0.41498 -0.12304,-0.61914 -0.0796,-0.2085 -0.20274,-0.38248 -0.36915,-0.52148 z m 3.17969,0.70312 c -0.27492,0 -0.52974,0.0815 -0.76367,0.24219 -0.23392,0.16072 -0.4462,0.37825 -0.63672,0.65625 -0.19051,0.278 -0.35875,0.60495 -0.50586,0.97852 -0.14469,0.36922 -0.26636,0.76571 -0.36523,1.1914 -0.0989,0.42135 -0.17397,0.8588 -0.22461,1.31055 -0.0506,0.45175 -0.0762,0.89721 -0.0762,1.33594 0,0.51256 0.041,1.01306 0.12304,1.5039 0.0844,0.49085 0.20607,0.92981 0.36524,1.31641 0.16158,0.38225 0.35936,0.69122 0.5957,0.92578 0.23875,0.23457 0.51358,0.35156 0.82227,0.35156 0.27492,0 0.52974,-0.0795 0.76367,-0.24023 0.23392,-0.16072 0.4462,-0.3802 0.63672,-0.6582 0.19051,-0.27801 0.35725,-0.60148 0.50195,-0.97071 0.14711,-0.37356 0.27027,-0.77201 0.36914,-1.19336 0.10129,-0.42569 0.17787,-0.86465 0.22852,-1.3164 0.0506,-0.45176 0.0762,-0.89722 0.0762,-1.33594 0,-0.51257 -0.0426,-1.01306 -0.12695,-1.50391 -0.082,-0.49084 -0.20366,-0.92829 -0.36524,-1.31054 -0.16158,-0.3866 -0.36281,-0.69708 -0.60156,-0.93164 -0.23634,-0.23457 -0.50772,-0.35157 -0.81641,-0.35157 z m 5.26563,0 c -0.27492,0 -0.5278,0.0815 -0.76172,0.24219 -0.23393,0.16072 -0.4462,0.37825 -0.63672,0.65625 -0.19052,0.278 -0.3607,0.60495 -0.50781,0.97852 -0.1447,0.36922 -0.26636,0.76571 -0.36524,1.1914 -0.0989,0.42135 -0.17396,0.8588 -0.22461,1.31055 -0.0506,0.45175 -0.0742,0.89721 -0.0742,1.33594 0,0.51256 0.0391,1.01306 0.1211,1.5039 0.0844,0.49085 0.20802,0.92981 0.36719,1.31641 0.16157,0.38225 0.35936,0.69122 0.5957,0.92578 0.23875,0.23457 0.51358,0.35156 0.82227,0.35156 0.27492,0 0.52779,-0.0795 0.76171,-0.24023 0.23393,-0.16072 0.44621,-0.3802 0.63672,-0.6582 0.19052,-0.27801 0.35921,-0.60148 0.50391,-0.97071 0.14711,-0.37356 0.27026,-0.77201 0.36914,-1.19336 0.10129,-0.42569 0.17592,-0.86465 0.22656,-1.3164 0.0507,-0.45176 0.0762,-0.89722 0.0762,-1.33594 0,-0.51257 -0.0425,-1.01306 -0.12695,-1.50391 -0.082,-0.49084 -0.20366,-0.92829 -0.36523,-1.31054 -0.16158,-0.3866 -0.36086,-0.69708 -0.59961,-0.93164 -0.23634,-0.23457 -0.50968,-0.35157 -0.81836,-0.35157 z m 23.11523,0.0254 c -0.26527,0 -0.51412,0.08 -0.74805,0.23633 -0.23392,0.15204 -0.44919,0.36306 -0.64453,0.63672 -0.19292,0.26932 -0.36519,0.58976 -0.51953,0.95899 -0.15193,0.36487 -0.2821,0.75985 -0.39062,1.18554 -0.10611,0.42135 -0.18868,0.86183 -0.24414,1.32227 -0.0555,0.4561 -0.082,0.91304 -0.082,1.36914 0,0.33881 0.0185,0.67529 0.0547,1.00976 0.0386,0.33013 0.0937,0.64711 0.16602,0.95118 0.0748,0.29972 0.16687,0.57921 0.27539,0.83984 0.11093,0.25628 0.23812,0.48075 0.38281,0.67188 0.1447,0.18678 0.30592,0.33129 0.48438,0.43554 0.17846,0.1086 0.37371,0.16406 0.58593,0.16406 0.39068,0 0.75015,-0.16899 1.07813,-0.50781 0.32798,-0.33881 0.60982,-0.84927 0.84375,-1.53125 l 0.006,-0.0273 c 0.002,-0.004 0.004,-0.0139 0.004,-0.0312 0,-0.0261 -0.007,-0.0555 -0.0215,-0.0859 -0.0145,-0.0304 -0.0315,-0.0594 -0.0508,-0.0898 -0.0193,-0.0304 -0.0403,-0.0584 -0.0645,-0.0801 -0.0217,-0.0261 -0.0402,-0.0456 -0.0547,-0.0586 -0.21222,0.46044 -0.43151,0.7954 -0.6582,1.0039 -0.22428,0.20416 -0.44656,0.30664 -0.66602,0.30664 -0.2074,0 -0.40266,-0.0895 -0.58594,-0.26758 -0.18328,-0.17809 -0.34301,-0.4266 -0.48047,-0.74804 -0.13746,-0.32579 -0.24808,-0.71773 -0.33007,-1.17383 -0.0796,-0.46044 -0.11914,-0.9709 -0.11914,-1.53125 0,-0.31275 0.013,-0.63125 0.0371,-0.95703 0.0241,-0.33013 0.0607,-0.65209 0.11133,-0.96485 0.0531,-0.31275 0.11964,-0.60524 0.19922,-0.8789 0.082,-0.27366 0.17962,-0.51611 0.29297,-0.72461 0.11576,-0.2085 0.24892,-0.371 0.39844,-0.48828 0.14952,-0.12163 0.31775,-0.18164 0.50586,-0.18164 0.13022,0 0.24338,0.034 0.33984,0.10351 0.0989,0.0652 0.18098,0.15616 0.24609,0.27344 0.0651,0.11294 0.11318,0.2464 0.14454,0.39844 0.0338,0.14769 0.0508,0.3052 0.0508,0.47461 0,0.24759 -0.034,0.49156 -0.10157,0.73047 l 0.0156,0.0723 c 0.0555,0.0434 0.11055,0.0759 0.16601,0.0977 0.0579,0.0174 0.11297,0.0254 0.16602,0.0254 0.0868,0 0.16593,-0.0245 0.23828,-0.0723 0.0748,-0.0521 0.13835,-0.12514 0.19141,-0.2207 0.0555,-0.0999 0.098,-0.21691 0.12695,-0.35156 0.0314,-0.13901 0.0469,-0.29847 0.0469,-0.47657 0,-0.27366 -0.0351,-0.52065 -0.10743,-0.74218 -0.0699,-0.22588 -0.16756,-0.41785 -0.29296,-0.57422 -0.123,-0.16072 -0.27019,-0.28422 -0.44141,-0.3711 -0.17122,-0.0869 -0.35694,-0.13086 -0.55469,-0.13086 z m -7.67187,0.0332 c -0.0434,0 -0.11298,0.0145 -0.20703,0.0449 -0.0917,0.0304 -0.2048,0.0779 -0.33985,0.13867 -0.13264,0.0608 -0.28385,0.13881 -0.45508,0.23438 -0.16881,0.0912 -0.35303,0.19825 -0.55078,0.32421 l 0.0547,0.47071 c 0.1447,-0.0738 0.28188,-0.13235 0.41211,-0.17578 0.13264,-0.0434 0.24027,-0.0664 0.32226,-0.0664 0.082,0 0.14559,0.023 0.19141,0.0664 0.0482,0.0434 0.0853,0.10995 0.10938,0.20117 0.0241,0.0912 0.0396,0.2067 0.0469,0.3457 0.007,0.139 0.0117,0.30302 0.0117,0.49414 0,0.47348 -0.01,0.9549 -0.0293,1.44141 -0.0193,0.48216 -0.0423,0.95015 -0.0664,1.40625 -0.0217,0.45175 -0.0413,0.87923 -0.0606,1.2832 -0.0193,0.39963 -0.0293,0.75258 -0.0293,1.05664 0,0.46479 0.03,0.85478 0.0879,1.17188 0.0603,0.31709 0.13941,0.57406 0.23828,0.76953 0.0989,0.19113 0.21054,0.32762 0.33594,0.41015 0.12782,0.0869 0.26098,0.13086 0.39844,0.13086 0.18328,0 0.37555,-0.0975 0.57812,-0.29296 0.20258,-0.19113 0.40336,-0.51309 0.60352,-0.96485 0.20257,-0.45175 0.39933,-1.04671 0.58984,-1.78515 0.19293,-0.73845 0.37117,-1.65385 0.53516,-2.74414 l 0.041,0.0137 c -0.0217,0.29537 -0.0417,0.56685 -0.0586,0.81445 -0.0145,0.24325 -0.0255,0.47075 -0.0352,0.68359 -0.01,0.21285 -0.0167,0.4163 -0.0215,0.60743 -0.005,0.19112 -0.008,0.37962 -0.008,0.5664 0,0.58207 0.0296,1.06804 0.0898,1.45899 0.0627,0.39094 0.14481,0.70488 0.2461,0.93945 0.10128,0.23456 0.21743,0.40009 0.34765,0.5 0.13264,0.0999 0.26833,0.15039 0.40821,0.15039 0.11093,0 0.22155,-0.0245 0.33007,-0.0723 0.10853,-0.0478 0.21168,-0.11429 0.31055,-0.20117 0.0989,-0.0825 0.19202,-0.18003 0.28125,-0.29297 0.0892,-0.11728 0.1703,-0.24078 0.24024,-0.37109 l -0.11914,-0.30078 c -0.0289,0.0348 -0.0645,0.0738 -0.10547,0.11719 -0.0386,0.0434 -0.0826,0.0859 -0.13086,0.125 -0.0482,0.0348 -0.0988,0.0638 -0.1543,0.0898 -0.0531,0.0261 -0.1086,0.0391 -0.16406,0.0391 -0.094,0 -0.1872,-0.047 -0.28125,-0.14258 -0.0916,-0.0999 -0.17375,-0.27887 -0.2461,-0.53515 -0.0723,-0.26063 -0.13191,-0.61314 -0.17773,-1.06055 -0.0458,-0.45175 -0.0684,-1.0322 -0.0684,-1.74023 0,-0.37357 0.003,-0.78155 0.01,-1.22461 0.007,-0.44307 0.0187,-0.89503 0.0332,-1.35547 0.0145,-0.46479 0.03,-0.92823 0.0469,-1.38867 0.0193,-0.46479 0.0408,-0.90375 0.0625,-1.31641 l -0.0586,-0.006 -0.76758,0.16992 c -0.0386,1.10333 -0.12621,2.13226 -0.26367,3.08789 -0.13746,0.95129 -0.30271,1.80972 -0.49805,2.57422 -0.19534,0.76451 -0.4006,1.34647 -0.61523,1.7461 -0.21463,0.39528 -0.42587,0.59375 -0.63086,0.59375 -0.18087,0 -0.32507,-0.12047 -0.43359,-0.35938 -0.10853,-0.23891 -0.16211,-0.6159 -0.16211,-1.13281 0,-0.17375 0.004,-0.3902 0.0137,-0.64649 0.0121,-0.26062 0.0265,-0.5451 0.041,-0.85351 0.0169,-0.30841 0.0339,-0.6334 0.0508,-0.97656 0.0193,-0.34751 0.0344,-0.69547 0.0488,-1.04297 0.0169,-0.34751 0.0314,-0.68897 0.041,-1.02344 0.0121,-0.33882 0.0176,-0.65579 0.0176,-0.95117 0,-0.19547 -0.007,-0.36945 -0.0215,-0.52149 -0.0121,-0.15203 -0.0346,-0.28203 -0.0684,-0.39062 -0.0338,-0.1086 -0.0793,-0.19158 -0.13476,-0.24805 -0.0555,-0.0565 -0.12608,-0.084 -0.21289,-0.084 z M 220.5,648.125 c 0.14711,0 0.27981,0.044 0.40039,0.13086 0.12058,0.0869 0.22821,0.20734 0.32227,0.35937 0.0941,0.14769 0.17615,0.31972 0.24609,0.51954 0.0724,0.19981 0.13191,0.41626 0.17773,0.64648 0.0458,0.23022 0.0799,0.4692 0.10157,0.7168 0.0241,0.24325 0.0351,0.48374 0.0351,0.72265 0,0.19113 -0.01,0.39111 -0.0293,0.59961 -0.0169,0.20416 -0.0434,0.40566 -0.082,0.60547 -0.0362,0.19547 -0.0827,0.38397 -0.14063,0.56641 -0.0579,0.17809 -0.12894,0.33604 -0.21094,0.4707 -0.082,0.13466 -0.17514,0.24169 -0.28125,0.32422 -0.1037,0.0782 -0.22133,0.11719 -0.35156,0.11719 -0.14711,0 -0.28131,-0.042 -0.4043,-0.12891 -0.12299,-0.0869 -0.23511,-0.20734 -0.33398,-0.35937 -0.0965,-0.15204 -0.1811,-0.32905 -0.25586,-0.53321 -0.0724,-0.20416 -0.13341,-0.42212 -0.18164,-0.65234 -0.0482,-0.23022 -0.0853,-0.4692 -0.10938,-0.7168 -0.0241,-0.25194 -0.0352,-0.49742 -0.0352,-0.73633 0,-0.18678 0.009,-0.38178 0.0254,-0.58593 0.0193,-0.20416 0.0478,-0.40414 0.084,-0.59961 0.0386,-0.19982 0.0867,-0.3868 0.14453,-0.56055 0.0603,-0.1781 0.13239,-0.33409 0.2168,-0.46875 0.0844,-0.13466 0.18054,-0.24212 0.28906,-0.32031 0.11094,-0.0782 0.23559,-0.11719 0.37305,-0.11719 z m 16.73633,0.0137 c 0.32074,0 0.64514,0.13997 0.9707,0.41797 -0.0169,0.42135 -0.0654,0.88934 -0.14258,1.40625 -0.0748,0.51257 -0.17239,1.03451 -0.29297,1.56445 -0.11816,0.5256 -0.25386,1.03758 -0.4082,1.53711 -0.15193,0.49954 -0.31464,0.94348 -0.48828,1.33008 -0.17122,0.3866 -0.34647,0.69708 -0.52734,0.93164 -0.18087,0.23457 -0.35957,0.35156 -0.53321,0.35156 -0.0965,0 -0.1796,-0.044 -0.25195,-0.13085 -0.0699,-0.0912 -0.131,-0.20974 -0.18164,-0.35743 -0.0506,-0.14769 -0.0932,-0.31365 -0.12695,-0.49609 -0.0338,-0.18678 -0.0603,-0.37528 -0.082,-0.56641 -0.0193,-0.19547 -0.0338,-0.38245 -0.041,-0.56054 -0.007,-0.18244 -0.01,-0.34342 -0.01,-0.48243 0,-0.39094 0.02,-0.7844 0.0586,-1.17968 0.041,-0.39529 0.0986,-0.77575 0.17578,-1.14063 0.0772,-0.36922 0.1748,-0.7122 0.29297,-1.02929 0.11817,-0.32145 0.25535,-0.59942 0.41211,-0.83399 0.15675,-0.23891 0.33395,-0.42589 0.52929,-0.56055 0.19775,-0.13465 0.41256,-0.20117 0.64649,-0.20117 z m -11.31055,0.18164 c 0.16158,0 0.30877,0.054 0.44141,0.15821 0.13505,0.10425 0.25522,0.24724 0.36133,0.42968 0.10852,0.1781 0.20212,0.39108 0.27929,0.63868 0.0796,0.24325 0.14421,0.50476 0.19727,0.7871 0.053,0.27801 0.0931,0.56899 0.11719,0.87305 0.0265,0.29972 0.0391,0.60067 0.0391,0.90039 0,0.25629 -0.009,0.53578 -0.0254,0.83985 -0.0145,0.30406 -0.0415,0.61302 -0.0801,0.92578 -0.0386,0.30841 -0.0892,0.6074 -0.1543,0.89843 -0.0627,0.29104 -0.14331,0.54952 -0.24218,0.7754 -0.0965,0.22587 -0.21261,0.40787 -0.34766,0.54687 -0.13264,0.13466 -0.28685,0.20313 -0.46289,0.20313 -0.16158,0 -0.31026,-0.052 -0.44531,-0.15626 -0.13264,-0.10425 -0.25281,-0.24724 -0.36133,-0.42968 -0.10611,-0.18244 -0.19972,-0.39542 -0.2793,-0.63867 -0.0772,-0.2476 -0.14226,-0.51258 -0.19531,-0.79493 -0.0531,-0.28234 -0.0926,-0.57679 -0.11914,-0.88086 -0.0241,-0.30406 -0.0371,-0.60306 -0.0371,-0.89843 0,-0.25194 0.009,-0.52992 0.0234,-0.83399 0.0169,-0.30841 0.0434,-0.61737 0.082,-0.92578 0.0386,-0.30841 0.0896,-0.6074 0.15234,-0.89844 0.0651,-0.29103 0.14572,-0.54951 0.24219,-0.77539 0.0989,-0.22587 0.21502,-0.40635 0.34765,-0.54101 0.13505,-0.13466 0.29075,-0.20313 0.4668,-0.20313 z m 5.26563,0 c 0.16157,0 0.30876,0.054 0.4414,0.15821 0.13505,0.10425 0.25717,0.24724 0.36328,0.42968 0.10853,0.1781 0.20018,0.39108 0.27735,0.63868 0.0796,0.24325 0.14616,0.50476 0.19922,0.7871 0.0531,0.27801 0.0911,0.56899 0.11523,0.87305 0.0265,0.29972 0.041,0.60067 0.041,0.90039 0,0.25629 -0.009,0.53578 -0.0254,0.83985 -0.0145,0.30406 -0.0415,0.61302 -0.0801,0.92578 -0.0386,0.30841 -0.0911,0.6074 -0.15625,0.89843 -0.0627,0.29104 -0.14331,0.54952 -0.24219,0.7754 -0.0965,0.22587 -0.21065,0.40787 -0.3457,0.54687 -0.13264,0.13466 -0.2888,0.20313 -0.46485,0.20313 -0.16157,0 -0.30831,-0.052 -0.44336,-0.15626 -0.13263,-0.10425 -0.25476,-0.24724 -0.36328,-0.42968 -0.10611,-0.18244 -0.19776,-0.39542 -0.27734,-0.63867 -0.0772,-0.2476 -0.14226,-0.51258 -0.19531,-0.79493 -0.0531,-0.28234 -0.0926,-0.57679 -0.11914,-0.88086 -0.0241,-0.30406 -0.0371,-0.60306 -0.0371,-0.89843 0,-0.25194 0.007,-0.52992 0.0215,-0.83399 0.0169,-0.30841 0.0454,-0.61737 0.084,-0.92578 0.0386,-0.30841 0.0896,-0.6074 0.15234,-0.89844 0.0651,-0.29103 0.14572,-0.54951 0.24219,-0.77539 0.0989,-0.22587 0.21501,-0.40635 0.34765,-0.54101 0.13505,-0.13466 0.2888,-0.20313 0.46485,-0.20313 z m -11.25,9.52735 c 0.24116,0.10859 0.47643,0.20457 0.70312,0.28711 0.2291,0.0825 0.44541,0.17353 0.65039,0.27343 0.15193,0.0738 0.29211,0.15336 0.41992,0.24024 0.12782,0.0869 0.23844,0.19087 0.33008,0.3125 0.0941,0.12597 0.1657,0.27243 0.21875,0.4375 0.0531,0.16941 0.0801,0.3709 0.0801,0.60547 0,0.417 -0.0536,0.80049 -0.16211,1.15234 -0.10611,0.35185 -0.25031,0.65583 -0.43359,0.91211 -0.18087,0.26063 -0.39166,0.46408 -0.63282,0.60742 -0.24116,0.14769 -0.49449,0.2207 -0.75976,0.2207 -0.19534,0 -0.39359,-0.047 -0.59375,-0.14257 -0.20016,-0.0956 -0.38289,-0.24355 -0.54688,-0.44336 -0.16157,-0.19982 -0.29473,-0.4518 -0.39843,-0.75586 -0.10129,-0.29972 -0.15039,-0.65917 -0.15039,-1.07617 0,-0.33882 0.0321,-0.65081 0.0996,-0.9375 0.0699,-0.28669 0.16504,-0.54366 0.28321,-0.76954 0.11817,-0.22153 0.25236,-0.41003 0.40429,-0.5664 0.15435,-0.15638 0.31706,-0.27489 0.48829,-0.35742 z"
         transform="matrix(0.26458333,0,0,0.26458333,0,32.41665)"
         id="text1077"
         inkscape:connector-curvature="0" />
    </g>
    <g
       id="g848"
       inkscape:label="feather"
       transform="translate(-63.932063,22.156106)">
      <path
         inkscape:connector-curvature="0"
         id="path839"
         d="m 270.48678,171.66105 c 0,0 -15.83953,6.55805 -24.04908,5.78935 -8.21496,-0.76922 -14.57097,-8.14377 -22.57179,-10.15977 -0.19727,-0.0497 -8.01824,8.26417 -8.01824,8.26417 0,0 6.96633,-8.52442 6.73621,-8.57972 -11.85675,-2.8492 -24.36789,-3.93972 -36.47935,-2.59436 -0.21036,0.0234 -4.54512,3.8012 -4.54512,3.8012 0,0 3.50574,-3.67987 3.30159,-3.65431 -8.71415,1.09125 -25.01019,8.28456 -25.01019,8.28456 -0.69937,-2.37041 -0.43447,-5.4823 4.56935,-5.85747 -2.83594,-1.30074 -7.26247,-0.59266 -7.22211,6.69099 -0.19344,-4.83239 -1.03986,-6.41812 -2.3093,-5.89753 2.08037,1.59086 1.04894,3.99452 0.3248,6.04426 -1.518,0.15604 -3.42062,0.74316 -0.70978,-3.84076 -1.45575,1.38791 -3.57099,3.24589 -1.20946,6.32583 -3.13624,-3.43377 -6.24658,-1.3943 -6.21932,0.61309 3.04524,-3.84433 5.00378,0.55604 8.07485,1.71049 l -0.0567,0.0751 c -1.78565,0.12828 -3.50094,0.28167 -5.12274,0.46558 -2.67446,0.3033 -6.75206,0.65676 -10.11448,1.65575 -3.97792,1.18185 -6.50122,3.00266 -6.55655,3.0428 l 0.62132,0.49677 1.84407,-0.6536 c 0.46157,-0.11653 0.92103,-0.22584 1.27311,-0.28516 0.6836,-0.11519 2.39839,0.12855 3.02591,-0.14522 3.67522,-1.43131 9.81036,-2.79986 15.06693,-3.37375 -2.61626,3.72104 -2.54817,4.30744 -2.46461,6.14956 1.13822,-3.9243 2.4298,-3.38486 3.3591,-5.17078 -1.33542,3.02407 0.76583,-0.88218 0.35086,5.81585 l 1.18716,-4.6412 c 4.95953,-1.10956 0.13169,2.39092 -0.0414,3.41455 3.60564,-1.4104 2.89806,-3.49289 3.30564,-4.66362 0.69924,-0.46131 1.49013,3.03939 -0.6953,4.93194 2.34879,-1.32251 5.74655,1.15302 4.75555,-3.80968 0,0 12.01415,6.37485 18.59305,7.65609 5.38501,1.04874 10.8783,0.92308 16.39283,0.57947 0.27653,-0.0172 -3.76365,-7.44437 -3.76365,-7.44437 0,0 5.23238,7.34854 5.55195,7.32656 4.17709,-0.2873 8.36096,-0.64026 12.51389,-0.64401 9.62902,-0.009 19.64946,2.83864 28.88659,0.11951 0.33753,-0.0994 -3.74627,-3.0282 -3.74627,-3.0282 0,0 5.34879,2.48859 5.63946,2.37502 10.49003,-4.09853 25.53117,-17.18496 25.53116,-17.18495 z"
         style="color:#000000;font-style:normal;font-variant:normal;font-weight:normal;font-stretch:normal;font-size:medium;line-height:normal;font-family:sans-serif;font-variant-ligatures:normal;font-variant-position:normal;font-variant-caps:normal;font-variant-numeric:normal;font-variant-alternates:normal;font-feature-settings:normal;text-indent:0;text-align:start;text-decoration:none;text-decoration-line:none;text-decoration-style:solid;text-decoration-color:#000000;letter-spacing:normal;word-spacing:normal;text-transform:none;writing-mode:lr-tb;direction:ltr;text-orientation:mixed;dominant-baseline:auto;baseline-shift:baseline;text-anchor:start;white-space:normal;shape-padding:0;clip-rule:nonzero;display:inline;overflow:visible;visibility:visible;opacity:1;isolation:auto;mix-blend-mode:normal;color-interpolation:sRGB;color-interpolation-filters:linearRGB;solid-color:#000000;solid-opacity:1;vector-effect:none;fill:#f2f2f2;fill-opacity:1;fill-rule:nonzero;stroke:none;stroke-width:0.26458332px;stroke-linecap:butt;stroke-linejoin:miter;stroke-miterlimit:4;stroke-dasharray:none;stroke-dashoffset:0;stroke-opacity:1;color-rendering:auto;image-rendering:auto;shape-rendering:auto;text-rendering:auto;enable-background:accumulate"
         inkscape:label="white" />
      <path
         inkscape:label="black"
         sodipodi:nodetypes="csscsscsccccccccccsscccsccccccccccsscssscsccccccccccccsscccccsccc"
         inkscape:connector-curvature="0"
         id="path1092"
         d="m 270.48678,171.66105 c 0,0 -15.83953,6.55805 -24.04908,5.78935 -8.21496,-0.76922 -14.57097,-8.14377 -22.57179,-10.15977 -0.19727,-0.0497 -8.01824,8.26417 -8.01824,8.26417 0,0 6.96633,-8.52442 6.73621,-8.57972 -11.85675,-2.8492 -24.36789,-3.93972 -36.47935,-2.59436 -0.21036,0.0234 -4.54512,3.8012 -4.54512,3.8012 0,0 3.50574,-3.67987 3.30159,-3.65431 -8.71415,1.09125 -25.01019,8.28456 -25.01019,8.28456 -0.69937,-2.37041 -0.43447,-5.4823 4.56935,-5.85747 -2.83594,-1.30074 -7.26247,-0.59266 -7.22211,6.69099 -0.19344,-4.83239 -1.03986,-6.41812 -2.3093,-5.89753 2.08037,1.59086 1.04894,3.99452 0.3248,6.04426 -1.518,0.15604 -3.42062,0.74316 -0.70978,-3.84076 -1.45575,1.38791 -3.57099,3.24589 -1.20946,6.32583 -3.13624,-3.43377 -6.24658,-1.3943 -6.21932,0.61309 3.04524,-3.84433 5.00378,0.55604 8.07485,1.71049 l -0.0567,0.0751 c -1.78565,0.12828 -3.50094,0.28167 -5.12274,0.46558 -2.67446,0.3033 -6.75206,0.65676 -10.11448,1.65575 -3.97792,1.18185 -6.50122,3.00266 -6.55655,3.0428 l 0.62132,0.49677 1.84407,-0.6536 c 0.46157,-0.11653 0.92103,-0.22584 1.27311,-0.28516 0.6836,-0.11519 2.39839,0.12855 3.02591,-0.14522 3.67522,-1.43131 9.81036,-2.79986 15.06693,-3.37375 -2.61626,3.72104 -2.54817,4.30744 -2.46461,6.14956 1.13822,-3.9243 2.4298,-3.38486 3.3591,-5.17078 -1.33542,3.02407 0.76583,-0.88218 0.35086,5.81585 l 1.18716,-4.6412 c 4.95953,-1.10956 0.13169,2.39092 -0.0414,3.41455 3.60564,-1.4104 2.89806,-3.49289 3.30564,-4.66362 0.69924,-0.46131 1.49013,3.03939 -0.6953,4.93194 2.34879,-1.32251 5.74655,1.15302 4.75555,-3.80968 0,0 12.01415,6.37485 18.59305,7.65609 5.38501,1.04874 10.8783,0.92308 16.39283,0.57947 0.27653,-0.0172 -3.76365,-7.44437 -3.76365,-7.44437 0,0 5.23238,7.34854 5.55195,7.32656 4.17709,-0.2873 8.36096,-0.64026 12.51389,-0.64401 9.62902,-0.009 19.64946,2.83864 28.88659,0.11951 0.33753,-0.0994 -3.74627,-3.0282 -3.74627,-3.0282 0,0 5.34879,2.48859 5.63946,2.37502 10.49003,-4.09853 25.53117,-17.18496 25.53116,-17.18495 z m -35.21834,11.00368 c -0.33214,-0.003 -0.7249,-0.015 -1.31946,-0.0486 -1.29226,-0.073 -3.23451,-0.21902 -5.5738,-0.40434 -14.69192,-1.3869 -47.52639,-4.67623 -68.11057,-2.98984 -1.36948,0.0724 -2.68585,0.16241 -3.93949,0.27178 -5.51275,0.48092 -12.21573,1.9477 -16.2231,3.50307 -1.02688,-0.41663 -1.76401,-0.61323 -2.63294,-0.46105 -0.87077,0.1525 -0.96429,0.16067 -0.96429,0.16067 l -0.30946,-0.0996 c 0,0 -0.0953,-0.40639 3.73691,-1.54493 3.32265,-0.98718 7.38665,-1.34284 10.0681,-1.64692 14.22608,-1.61332 35.41134,-0.98456 53.18283,0.16438 8.88574,0.57448 16.91898,1.27881 22.80502,1.89647 2.94302,0.30884 5.34801,0.59613 7.05446,0.83456 0.85322,0.11922 1.53203,0.22624 2.01336,0.31727 0.0896,0.0169 0.13671,0.0312 0.21245,0.047 z m -8.75257,-1.40661 c -0.17108,-0.0182 -0.3253,-0.0357 -0.50021,-0.054 -5.89013,-0.61809 -13.92648,-1.32289 -22.81587,-1.8976 -14.07663,-0.91007 -30.27827,-1.49158 -43.4997,-0.89345 21.76223,-1.49711 51.75995,1.0433 66.81578,2.84507 z"
         style="color:#000000;font-style:normal;font-variant:normal;font-weight:normal;font-stretch:normal;font-size:medium;line-height:normal;font-family:sans-serif;font-variant-ligatures:normal;font-variant-position:normal;font-variant-caps:normal;font-variant-numeric:normal;font-variant-alternates:normal;font-feature-settings:normal;text-indent:0;text-align:start;text-decoration:none;text-decoration-line:none;text-decoration-style:solid;text-decoration-color:#000000;letter-spacing:normal;word-spacing:normal;text-transform:none;writing-mode:lr-tb;direction:ltr;text-orientation:mixed;dominant-baseline:auto;baseline-shift:baseline;text-anchor:start;white-space:normal;shape-padding:0;clip-rule:nonzero;display:inline;overflow:visible;visibility:visible;opacity:1;isolation:auto;mix-blend-mode:normal;color-interpolation:sRGB;color-interpolation-filters:linearRGB;solid-color:#000000;solid-opacity:1;vector-effect:none;fill:#000000;fill-opacity:1;fill-rule:nonzero;stroke:none;stroke-width:0.26458332px;stroke-linecap:butt;stroke-linejoin:miter;stroke-miterlimit:4;stroke-dasharray:none;stroke-dashoffset:0;stroke-opacity:1;color-rendering:auto;image-rendering:auto;shape-rendering:auto;text-rendering:auto;enable-background:accumulate" />
    </g>
  </g>
</svg>
