<?xml version="1.0" encoding="UTF-8" standalone="no"?>
<!-- Created with Inkscape (http://www.inkscape.org/) -->

<svg
   xmlns:dc="http://purl.org/dc/elements/1.1/"
   xmlns:cc="http://creativecommons.org/ns#"
   xmlns:rdf="http://www.w3.org/1999/02/22-rdf-syntax-ns#"
   xmlns:svg="http://www.w3.org/2000/svg"
   xmlns="http://www.w3.org/2000/svg"
   xmlns:sodipodi="http://sodipodi.sourceforge.net/DTD/sodipodi-0.dtd"
   xmlns:inkscape="http://www.inkscape.org/namespaces/inkscape"
   width="150"
   height="200"
   viewBox="0 0 39.687497 52.916668"
   version="1.1"
   id="svg8"
   inkscape:version="0.92.2 (5c3e80d, 2017-08-06)"
   sodipodi:docname="stave_1.svg">
  <defs
     id="defs2" />
  <sodipodi:namedview
     id="base"
     pagecolor="#ffffff"
     bordercolor="#666666"
     borderopacity="1.0"
     inkscape:pageopacity="0.0"
     inkscape:pageshadow="2"
     inkscape:zoom="1.9798991"
     inkscape:cx="-85.128343"
     inkscape:cy="75.696929"
     inkscape:document-units="mm"
     inkscape:current-layer="layer1"
     showgrid="false"
     units="px"
     inkscape:window-width="1920"
     inkscape:window-height="1137"
     inkscape:window-x="-8"
     inkscape:window-y="-8"
     inkscape:window-maximized="1" />
  <metadata
     id="metadata5">
    <rdf:RDF>
      <cc:Work
         rdf:about="">
        <dc:format>image/svg+xml</dc:format>
        <dc:type
           rdf:resource="http://purl.org/dc/dcmitype/StillImage" />
        <dc:title></dc:title>
      </cc:Work>
    </rdf:RDF>
  </metadata>
  <g
     inkscape:label="stave"
     id="layer1"
     transform="translate(0.404026,-145.42152)">
    <path
       style="fill:#ec600d;fill-opacity:1;stroke:none;stroke-width:0.26458332px;stroke-linecap:butt;stroke-linejoin:miter;stroke-opacity:1"
       d="m 20.132429,153.29742 c -0.645507,0.0212 -1.294141,0.13989 -1.899109,0.31574 -1.208708,0.35137 -2.340496,1.07683 -3.212723,1.98438 -0.977313,1.01689 -1.732193,2.31795 -2.078943,3.68505 -0.460825,1.81687 0.09457,5.62239 0.09457,5.62239 0,0 1.585201,-4.43233 3.118155,-6.14174 1.230704,-1.37237 2.826069,-2.64582 4.630209,-3.02411 0.375034,-0.0786 0.86934,-0.0877 1.134298,0.18914 0.449782,0.46993 0.349783,1.29686 0.23616,1.93735 -0.139022,0.78367 -0.616788,1.48363 -1.086755,2.12597 -1.21652,1.66272 -2.948209,2.87881 -4.394047,4.3465 -1.532102,1.55526 -3.363002,2.88328 -4.53564,4.72477 -0.961422,1.5098 -1.784593,3.08327 -1.93735,5.00848 -0.07698,1.35552 -0.2419976,3.05403 0.189136,4.4881 0.492232,1.63731 1.401143,3.22196 2.645834,4.39405 0.84106,0.792 1.929261,1.43116 3.07113,1.60662 1.945043,0.29888 5.811532,-1.03973 5.811532,-1.03973 0,0 -3.695627,0.15223 -5.386235,-0.47232 -0.889584,-0.32863 -1.739843,-0.8997 -2.315104,-1.65365 -0.967193,-1.26762 -1.451262,-2.90704 -1.653646,-4.48861 -0.162707,-1.2715 0.04212,-2.58949 0.377755,-3.82664 0.285992,-1.05416 0.711715,-2.10531 1.370459,-2.97657 0.862301,-1.14049 2.186873,-1.84284 3.259749,-2.78794 0.861722,-0.75909 1.778984,-1.46518 2.551265,-2.3151 0.938374,-1.03271 1.870953,-2.11094 2.504241,-3.35432 0.651108,-1.27837 1.149403,-2.68129 1.275889,-4.11034 0.07837,-0.88534 0.09209,-1.86403 -0.330729,-2.64583 -0.324236,-0.59953 -0.917781,-1.09205 -1.559077,-1.32292 -0.592766,-0.2134 -1.235515,-0.2899 -1.881022,-0.26872 z m 0.559656,15.5112 c -0.601002,0.0147 -1.192087,0.10607 -1.749764,0.30127 -1.539771,0.53896 -2.951383,1.73354 -3.732589,3.1657 -0.806355,1.47827 -1.052504,3.37062 -0.661458,5.00848 0.336795,1.41063 1.150354,2.96059 2.456698,3.59048 1.180509,0.56922 2.777117,0.35516 3.921724,-0.28319 0.916203,-0.51097 1.536755,-1.5482 1.842264,-2.55178 0.266176,-0.87437 0.332557,-1.93158 -0.09405,-2.73989 -0.310227,-0.5878 -0.952637,-1.06279 -1.606622,-1.18132 -0.740761,-0.13426 -1.531281,0.22112 -2.17351,0.61391 -0.513361,0.31399 -0.987585,0.77142 -1.228349,1.32292 -0.252751,0.57897 -0.141594,1.89033 -0.141594,1.89033 0,0 -0.66461,-0.89238 -0.803051,-1.41749 -0.176656,-0.67006 -0.221404,-1.42231 0,-2.07894 0.290853,-0.8626 0.904505,-1.65634 1.653646,-2.17351 0.729949,-0.50391 1.664273,-0.75554 2.551265,-0.75603 1.001642,-5.3e-4 2.108633,0.21403 2.881994,0.8506 0.973537,0.80131 1.481548,2.12193 1.748213,3.35431 0.4303,1.98859 0.285464,4.15618 -0.330729,6.09524 -0.394356,1.24097 -1.314418,2.25324 -2.078942,3.30729 -1.359153,1.87388 -4.441072,5.33869 -4.441072,5.33869 0,0 4.518288,-1.58497 6.283855,-3.11815 1.240173,-1.07694 2.171279,-2.54076 2.787425,-4.06332 0.743006,-1.83604 1.038365,-3.87841 0.992187,-5.85856 -0.0466,-1.99809 -0.113678,-4.23258 -1.275889,-5.85856 -0.866979,-1.21293 -2.396707,-1.89303 -3.82664,-2.3151 -0.944472,-0.27877 -1.973342,-0.46791 -2.975012,-0.44338 z"
       id="path1087"
       inkscape:connector-curvature="0"
       inkscape:label="key" />
  </g>
</svg>
