<?xml version="1.0" encoding="UTF-8" standalone="no"?>
<!-- Created with Inkscape (http://www.inkscape.org/) -->

<svg
   xmlns:dc="http://purl.org/dc/elements/1.1/"
   xmlns:cc="http://creativecommons.org/ns#"
   xmlns:rdf="http://www.w3.org/1999/02/22-rdf-syntax-ns#"
   xmlns:svg="http://www.w3.org/2000/svg"
   xmlns="http://www.w3.org/2000/svg"
   xmlns:sodipodi="http://sodipodi.sourceforge.net/DTD/sodipodi-0.dtd"
   xmlns:inkscape="http://www.inkscape.org/namespaces/inkscape"
   width="1000"
   height="1000"
   viewBox="0 0 264.58333 264.58334"
   version="1.1"
   id="svg8"
   inkscape:version="0.92.2 (5c3e80d, 2017-08-06)"
   sodipodi:docname="unknown.svg">
  <defs
     id="defs2">
    <inkscape:path-effect
       effect="mirror_symmetry"
       start_point="132.29167,127.79927"
       end_point="132.29167,201.61738"
       center_point="132.29167,164.70833"
       id="path-effect849"
       is_visible="true"
       mode="free"
       discard_orig_path="false"
       fuse_paths="false"
       oposite_fuse="false" />
    <inkscape:path-effect
       effect="mirror_symmetry"
       start_point="134.30435,158.75637"
       end_point="134.30435,184.30165"
       center_point="134.30435,171.52901"
       id="path-effect847"
       is_visible="true"
       mode="free"
       discard_orig_path="false"
       fuse_paths="false"
       oposite_fuse="false" />
    <inkscape:path-effect
       effect="mirror_symmetry"
       start_point="134.30435,160.23932"
       end_point="134.30435,193.39032"
       center_point="134.30435,176.81482"
       id="path-effect840"
       is_visible="true"
       mode="free"
       discard_orig_path="false"
       fuse_paths="false"
       oposite_fuse="false" />
    <inkscape:path-effect
       effect="mirror_symmetry"
       start_point="134.30435,188.05949"
       end_point="134.30435,329.92485"
       center_point="134.30435,258.99217"
       id="path-effect832"
       is_visible="true"
       mode="free"
       discard_orig_path="false"
       fuse_paths="true"
       oposite_fuse="false" />
    <inkscape:path-effect
       effect="mirror_symmetry"
       start_point="134.30435,201.31741"
       end_point="134.30435,260.11705"
       center_point="134.30435,230.71723"
       id="path-effect825"
       is_visible="true"
       mode="free"
       discard_orig_path="false"
       fuse_paths="true"
       oposite_fuse="false" />
  </defs>
  <sodipodi:namedview
     id="base"
     pagecolor="#ffffff"
     bordercolor="#666666"
     borderopacity="1.0"
     inkscape:pageopacity="0.0"
     inkscape:pageshadow="2"
     inkscape:zoom="0.49497475"
     inkscape:cx="845.954"
     inkscape:cy="362.95837"
     inkscape:document-units="mm"
     inkscape:current-layer="layer1"
     showgrid="false"
     units="px"
     inkscape:window-width="1920"
     inkscape:window-height="1137"
     inkscape:window-x="-8"
     inkscape:window-y="-8"
     inkscape:window-maximized="1"
     inkscape:snap-object-midpoints="true" />
  <metadata
     id="metadata5">
    <rdf:RDF>
      <cc:Work
         rdf:about="">
        <dc:format>image/svg+xml</dc:format>
        <dc:type
           rdf:resource="http://purl.org/dc/dcmitype/StillImage" />
        <dc:title></dc:title>
      </cc:Work>
    </rdf:RDF>
  </metadata>
  <g
     inkscape:label="Ebene 1"
     inkscape:groupmode="layer"
     id="layer1"
     transform="translate(0,-32.41665)">
    <path
       style="font-style:normal;font-variant:normal;font-weight:normal;font-stretch:normal;font-size:294.03887939px;line-height:1.25;font-family:Triforce;-inkscape-font-specification:Triforce;letter-spacing:0px;word-spacing:0px;fill:#ffffff;fill-opacity:1;stroke:none;stroke-width:4.00629568"
       d="m 136.71863,94.277779 c -7.05108,0 -12.82015,0.427339 -17.3072,1.282015 -4.48705,0.854676 -8.06601,1.816187 -10.73688,2.884533 -3.0982,1.17518 -5.39514,2.617443 -6.89082,4.326793 l -10.095872,29.16555 24.358282,-23.39648 c 0.74784,-0.96151 1.8696,-1.86961 3.36529,-2.72428 1.28201,-0.74785 3.04478,-1.38885 5.28831,-1.92303 2.24352,-0.641 5.07464,-1.06834 8.49335,-1.28201 3.4187,-0.10683 6.5169,0.69442 9.2946,2.40378 2.7777,1.70935 5.12806,3.84604 7.05108,6.41007 1.92302,2.4572 3.36529,5.12806 4.3268,8.01259 0.96151,2.7777 1.38885,5.28803 1.28202,7.53156 -0.21367,3.20503 -0.58759,5.92931 -1.12177,8.17284 -0.42733,2.24353 -1.38885,4.48705 -2.88453,6.73058 -1.38885,2.24352 -3.57896,4.75414 -6.57032,7.53183 -2.88454,2.67087 -6.94425,6.08957 -12.17914,10.25612 -5.98274,4.70072 -10.73688,9.02752 -14.26242,12.9804 -3.52554,3.95288 -5.92931,7.63867 -7.21133,11.05738 -1.28201,3.4187 -1.49568,6.73057 -0.64101,9.93561 0.85468,3.0982 2.72428,6.19641 5.60882,9.29461 0,0.10683 0.53417,-0.16026 1.60252,-0.80126 1.06834,-0.74784 2.24352,-1.5491 3.52554,-2.40378 1.49568,-0.96151 3.20503,-2.08327 5.12806,-3.36529 -0.85468,-0.85467 -1.54911,-1.76277 -2.08328,-2.72428 -0.53417,-0.85468 -1.01493,-1.81619 -1.44227,-2.88453 -0.42733,-1.06835 -0.58759,-2.29695 -0.48075,-3.68579 0.10683,-2.7777 2.56403,-6.30324 7.37158,-10.57663 4.91439,-4.38021 11.48472,-8.9741 19.71098,-13.78165 4.05971,-2.35036 7.63867,-5.02123 10.73687,-8.0126 3.0982,-2.99136 5.60882,-6.14298 7.53184,-9.45485 2.02985,-3.41871 3.47212,-6.83742 4.3268,-10.25612 0.96151,-3.41871 1.28201,-6.73058 0.96151,-9.93562 -0.21367,-2.24352 -0.9081,-5.07435 -2.08328,-8.49306 -1.06834,-3.41871 -2.93795,-6.73058 -5.60881,-9.93561 -2.67086,-3.31188 -6.30324,-6.14299 -10.89712,-8.493347 -4.48706,-2.457194 -10.30954,-3.739209 -17.46745,-3.846044 z m 26.6018,19.230211 5.44856,11.85836 -5.12806,12.82015 -4.48705,-12.82015 z m -47.27429,98.71485 v 22.91601 h 16.34569 v -22.91601 z"
       id="text822"
       inkscape:connector-curvature="0" />
  </g>
</svg>
