<svg width="1e3" height="1e3" enable-background="new" version="1.1" viewBox="0 0 264.58 264.58" xmlns="http://www.w3.org/2000/svg" xmlns:xlink="http://www.w3.org/1999/xlink">
 <defs>
  <linearGradient id="linearGradient4777">
   <stop stop-color="#d4d400" offset="0"/>
   <stop stop-color="#564a00" offset="1"/>
  </linearGradient>
  <linearGradient id="linearGradient994">
   <stop stop-color="#cdcdcd" offset="0"/>
   <stop stop-color="#333" offset="1"/>
  </linearGradient>
  <linearGradient id="linearGradient1170">
   <stop stop-color="#7f7a7a" offset="0"/>
   <stop stop-color="#e5e4e4" offset="1"/>
  </linearGradient>
  <linearGradient id="linearGradient1380">
   <stop stop-color="#dfdfdf" offset="0"/>
   <stop stop-color="#7d7d7d" offset="1"/>
  </linearGradient>
  <linearGradient id="linearGradient1718" x1="-38.761" x2="-34.584" y1="33.02" y2="139.26" gradientTransform="matrix(14.206 0 0 14.206 797.96 -419.52)" gradientUnits="userSpaceOnUse">
   <stop stop-color="#ababab" offset="0"/>
   <stop stop-color="#e0e0e0" offset=".13641"/>
   <stop stop-color="#e0e0e0" offset=".97292"/>
   <stop stop-color="#b8b8b8" offset="1"/>
  </linearGradient>
  <linearGradient id="linearGradient1731" x1="-38.761" x2="-42.9" y1="33.02" y2="139.26" gradientTransform="matrix(14.206 0 0 14.206 797.96 -419.52)" gradientUnits="userSpaceOnUse">
   <stop stop-color="#7c7c7c" offset="0"/>
   <stop stop-color="#c0c0c0" offset=".13874"/>
   <stop stop-color="#c0c0c0" offset=".97859"/>
   <stop stop-color="#808080" offset="1"/>
  </linearGradient>
  <linearGradient id="linearGradient1760" x1="-34.584" x2="-37.15" y1="142.03" y2="147.16" gradientTransform="matrix(14.206 0 0 14.206 797.96 -419.52)" gradientUnits="userSpaceOnUse">
   <stop stop-color="#fff" offset="0"/>
   <stop stop-color="#c9c9c9" offset="1"/>
  </linearGradient>
  <linearGradient id="linearGradient1757" x1="-42.938" x2="-40.373" y1="142.03" y2="147.16" gradientTransform="matrix(14.206 0 0 14.206 797.96 -419.52)" gradientUnits="userSpaceOnUse">
   <stop stop-color="#ebebeb" offset="0"/>
   <stop stop-color="#b3b3b3" offset="1"/>
  </linearGradient>
  <linearGradient id="linearGradient956" x1="-39.602" x2="-39.602" y1="154.3" y2="152.24" gradientUnits="userSpaceOnUse" xlink:href="#handle"/>
  <linearGradient id="handle">
   <stop stop-color="#5014e2" offset="0"/>
   <stop stop-color="#3c0fa9" offset="1"/>
  </linearGradient>
  <linearGradient id="linearGradient968" x1="-39.602" x2="-39.602" y1="154.3" y2="152.24" gradientTransform="translate(0 2.0587)" gradientUnits="userSpaceOnUse" xlink:href="#handle"/>
  <linearGradient id="linearGradient972" x1="-39.602" x2="-39.602" y1="154.3" y2="152.24" gradientTransform="translate(0 4.1173)" gradientUnits="userSpaceOnUse" xlink:href="#handle"/>
  <linearGradient id="linearGradient976" x1="-39.602" x2="-39.602" y1="154.3" y2="152.24" gradientTransform="translate(0 6.176)" gradientUnits="userSpaceOnUse" xlink:href="#handle"/>
  <linearGradient id="linearGradient980" x1="-39.602" x2="-39.602" y1="154.3" y2="152.24" gradientTransform="translate(0 8.2347)" gradientUnits="userSpaceOnUse" xlink:href="#handle"/>
  <linearGradient id="linearGradient984" x1="-39.602" x2="-39.602" y1="154.3" y2="152.24" gradientTransform="translate(0 10.293)" gradientUnits="userSpaceOnUse" xlink:href="#handle"/>
  <linearGradient id="linearGradient988" x1="-29.858" x2="-29.858" y1="219.35" y2="216.64" gradientTransform="scale(1.3163 .75973)" gradientUnits="userSpaceOnUse">
   <stop stop-color="#5014e2" offset="0"/>
   <stop stop-color="#3c0fa9" offset="1"/>
  </linearGradient>
  <linearGradient id="linearGradient1004" x1="-39.602" x2="-39.602" y1="154.3" y2="152.24" gradientTransform="translate(0 14.411)" gradientUnits="userSpaceOnUse" xlink:href="#handle"/>
  <linearGradient id="linearGradient1006" x1="-39.602" x2="-39.602" y1="154.3" y2="152.24" gradientTransform="translate(0 16.469)" gradientUnits="userSpaceOnUse" xlink:href="#handle"/>
  <linearGradient id="linearGradient1008" x1="-39.602" x2="-39.602" y1="154.3" y2="152.24" gradientTransform="translate(0 18.528)" gradientUnits="userSpaceOnUse" xlink:href="#handle"/>
  <linearGradient id="linearGradient1010" x1="-29.858" x2="-29.858" y1="230.19" y2="227.48" gradientTransform="scale(1.3163 .75973)" gradientUnits="userSpaceOnUse">
   <stop stop-color="#5014e2" offset="0"/>
   <stop stop-color="#3c0fa9" offset="1"/>
  </linearGradient>
  <linearGradient id="linearGradient1012" x1="-39.602" x2="-39.602" y1="154.3" y2="152.24" gradientTransform="translate(0 22.645)" gradientUnits="userSpaceOnUse" xlink:href="#handle"/>
  <linearGradient id="linearGradient1014" x1="-39.602" x2="-39.602" y1="154.3" y2="152.24" gradientTransform="translate(0 24.704)" gradientUnits="userSpaceOnUse" xlink:href="#handle"/>
  <linearGradient id="linearGradient925" x1="-38.761" x2="-38.761" y1="149.74" y2="147.57" gradientUnits="userSpaceOnUse" xlink:href="#guard"/>
  <linearGradient id="guard">
   <stop stop-color="#2a0cff" offset="0"/>
   <stop stop-color="#120090" offset="1"/>
  </linearGradient>
  <linearGradient id="linearGradient917" x1="-31.754" x2="-33.059" y1="146.54" y2="145.68" gradientTransform="matrix(-14.206 0 0 14.206 -303.36 -196.06)" gradientUnits="userSpaceOnUse" xlink:href="#guard"/>
  <linearGradient id="linearGradient877" x1="-31.754" x2="-33.059" y1="146.54" y2="145.68" gradientTransform="matrix(14.206 0 0 14.206 797.96 -196.06)" gradientUnits="userSpaceOnUse" xlink:href="#guard"/>
  <linearGradient id="linearGradient913" x1="-29.879" x2="-31.073" y1="147" y2="146.19" gradientTransform="matrix(-14.206 0 0 14.206 -303.36 -196.06)" gradientUnits="userSpaceOnUse" xlink:href="#guard"/>
  <linearGradient id="linearGradient897" x1="-29.879" x2="-31.073" y1="147" y2="146.19" gradientTransform="matrix(14.206 0 0 14.206 797.96 -196.06)" gradientUnits="userSpaceOnUse" xlink:href="#guard"/>
  <linearGradient id="linearGradient909" x1="-27.868" x2="-28.745" y1="147.49" y2="146.68" gradientTransform="matrix(-14.206 0 0 14.206 -303.36 -196.06)" gradientUnits="userSpaceOnUse" xlink:href="#guard"/>
  <linearGradient id="linearGradient905" x1="-27.868" x2="-28.745" y1="147.49" y2="146.68" gradientTransform="matrix(14.206 0 0 14.206 797.96 -196.06)" gradientUnits="userSpaceOnUse" xlink:href="#guard"/>
  <linearGradient id="linearGradient949" x1="-38.745" x2="-38.745" y1="178.45" y2="174.91" gradientTransform="translate(216.58 .55507)" gradientUnits="userSpaceOnUse" xlink:href="#guard"/>
  <linearGradient id="linearGradient941" x1="-38.766" x2="-38.766" y1="179.18" y2="177.37" gradientTransform="translate(216.58 .69585)" gradientUnits="userSpaceOnUse" xlink:href="#guard"/>
  <linearGradient id="linearGradient957" x1="177.83" x2="177.82" y1="151.96" y2="150.2" gradientUnits="userSpaceOnUse" xlink:href="#handle"/>
  <linearGradient id="linearGradient933" x1="177.83" x2="177.83" y1="151.34" y2="150.54" gradientUnits="userSpaceOnUse" xlink:href="#handle"/>
  <linearGradient id="linearGradient4800" x1="158.93" x2="152.48" y1="490.86" y2="502.04" gradientUnits="userSpaceOnUse" xlink:href="#linearGradient4777"/>
  <linearGradient id="linearGradient856" x1="29.355" x2="28.164" y1="141.28" y2="143.92" gradientTransform="translate(-65.878 4.3524)" gradientUnits="userSpaceOnUse" xlink:href="#linearGradient4777"/>
  <linearGradient id="linearGradient1333" x1="29.355" x2="28.164" y1="141.28" y2="143.92" gradientTransform="translate(-69.713 4.3524)" gradientUnits="userSpaceOnUse" xlink:href="#linearGradient4777"/>
  <linearGradient id="linearGradient1502-1" x1="14.899" x2="285.64" y1="11.746" y2="11.746" gradientTransform="scale(.88792 1.1262)" gradientUnits="userSpaceOnUse">
   <stop stop-color="#d4d400" offset="0"/>
   <stop stop-color="#564a00" offset="1"/>
  </linearGradient>
  <radialGradient id="radialGradient1384-4-5" cx="29.318" cy="77.628" r="6.6452" gradientUnits="userSpaceOnUse" xlink:href="#linearGradient1380"/>
  <radialGradient id="radialGradient1388-7-4" cx="29.318" cy="77.628" r="6.6452" gradientTransform="translate(213.11)" gradientUnits="userSpaceOnUse" xlink:href="#linearGradient1380"/>
  <radialGradient id="radialGradient1392-9-5" cx="29.318" cy="77.628" r="6.6452" gradientTransform="translate(106.56 216.68)" gradientUnits="userSpaceOnUse" xlink:href="#linearGradient1380"/>
  <linearGradient id="linearGradient1634" x1="80.16" x2="215.28" y1="247.3" y2="84.508" gradientTransform="translate(0 -2.7698)" gradientUnits="userSpaceOnUse">
   <stop stop-color="#151588" offset="0"/>
   <stop stop-color="#6a6ae8" offset="1"/>
  </linearGradient>
  <linearGradient id="linearGradient1636" x1="294.81" x2="344.15" y1="182.6" y2="298.78" gradientUnits="userSpaceOnUse" xlink:href="#linearGradient994"/>
  <linearGradient id="linearGradient1638" x1="716.18" x2="893.8" y1="339.74" y2="191.88" gradientUnits="userSpaceOnUse" xlink:href="#linearGradient994"/>
  <linearGradient id="linearGradient1640" x1="691.19" x2="-160.71" y1="930.39" y2="608.7" gradientUnits="userSpaceOnUse" xlink:href="#linearGradient994"/>
  <linearGradient id="linearGradient1642" x1="969.69" x2="1389.3" y1="726.44" y2="800.99" gradientUnits="userSpaceOnUse" xlink:href="#linearGradient994"/>
  <linearGradient id="linearGradient1644" x1="427.18" x2="200.36" y1="1013.4" y2="1095.4" gradientUnits="userSpaceOnUse" xlink:href="#linearGradient994"/>
  <linearGradient id="linearGradient1646" x1="783.6" x2="808.49" y1="1126.2" y2="1149.4" gradientUnits="userSpaceOnUse" xlink:href="#linearGradient994"/>
  <linearGradient id="linearGradient1648" x1="105.03" x2="217.06" y1="300.76" y2="52.308" gradientUnits="userSpaceOnUse" xlink:href="#linearGradient1170"/>
  <linearGradient id="linearGradient1650" x1="83.58" x2="285.61" y1="297.5" y2="-9.2466" gradientTransform="matrix(4.3324 0 0 4.3324 -7.3138 -7.3138)" gradientUnits="userSpaceOnUse" xlink:href="#linearGradient1170"/>
  <linearGradient id="linearGradient1652" x1="18.294" x2="313.12" y1="332.01" y2="14.536" gradientTransform="matrix(4.3324 0 0 4.3324 -7.3138 -7.3138)" gradientUnits="userSpaceOnUse" xlink:href="#linearGradient1170"/>
  <linearGradient id="linearGradient1654" x1="113.15" x2="215.56" y1="224.4" y2="84.508" gradientTransform="matrix(.93207 0 0 .93207 9.0642 12.232)" gradientUnits="userSpaceOnUse">
   <stop stop-color="#a60000" offset="0"/>
   <stop stop-color="#ff5b5b" offset="1"/>
  </linearGradient>
  <linearGradient id="linearGradient1656" x1="211.93" x2="190.08" y1="81.832" y2="127.28" gradientUnits="userSpaceOnUse" xlink:href="#linearGradient994"/>
  <linearGradient id="linearGradient1658" x1="830" x2="909.41" y1="431.56" y2="346.56" gradientUnits="userSpaceOnUse" xlink:href="#linearGradient994"/>
  <linearGradient id="linearGradient1660" x1="170.97" x2="183.26" y1="121.41" y2="102.34" gradientUnits="userSpaceOnUse" xlink:href="#linearGradient994"/>
  <linearGradient id="linearGradient1662" x1="146.96" x2="160.38" y1="83.808" y2="72.079" gradientUnits="userSpaceOnUse" xlink:href="#linearGradient994"/>
  <linearGradient id="linearGradient1664" x1="783.56" x2="747.4" y1="439.41" y2="493.95" gradientUnits="userSpaceOnUse" xlink:href="#linearGradient994"/>
  <linearGradient id="linearGradient1666" x1="682.76" x2="631.63" y1="293.97" y2="336.62" gradientUnits="userSpaceOnUse" xlink:href="#linearGradient994"/>
  <linearGradient id="linearGradient1668" x1="207.22" x2="231.33" y1="73.378" y2="114.87" gradientUnits="userSpaceOnUse" xlink:href="#linearGradient994"/>
  <linearGradient id="linearGradient1670" x1="957.44" x2="744.82" y1="444.49" y2="274.05" gradientTransform="scale(.99864 1.0014)" gradientUnits="userSpaceOnUse">
   <stop stop-color="#cdcdcd" offset="0"/>
   <stop stop-color="#333" offset="1"/>
  </linearGradient>
  <linearGradient id="linearGradient1672" x1="170.97" x2="177.16" y1="121.41" y2="94.099" gradientUnits="userSpaceOnUse" xlink:href="#linearGradient994"/>
  <linearGradient id="linearGradient1674" x1="155.11" x2="143.91" y1="83.506" y2="62.956" gradientUnits="userSpaceOnUse" xlink:href="#linearGradient994"/>
  <linearGradient id="linearGradient1678" x1="635.6" x2="678.77" y1="270.82" y2="393.77" gradientUnits="userSpaceOnUse" xlink:href="#linearGradient994"/>
 </defs>
 <rect x="-.37798" y="-.045617" width="264.58" height="264.58" ry="42.636" fill="#cb9c3d"/>
 <g transform="matrix(2.846 0 0 2.846 -37.382 -20.102)">
  <g transform="matrix(1.0907 0 0 1.0907 -6.3751 -33.365)" stroke-width=".3232" aria-label="Tracker">
   <path d="m59.653 98.206q0 0.10342-0.0905 0.21978-0.0905 0.10342-0.2327 0.10342-0.03878 0-0.27149-0.06464-0.21978-0.07757-0.4137-0.07757-0.62054 0-1.4091 0.06464-0.78861 0.06464-1.3057 0.18099 0.03878 0.62054 0.06464 1.965 0.03878 1.3316 0.03878 2.8054 0 0.62055-0.02586 1.3833-0.01293 0.76275-0.05171 0.94374-0.02586 0.14221-0.18099 0.2327-0.14221 0.0905-0.29734 0.0905-0.0905 0-0.15514-0.0776-0.06464-0.0776-0.06464-0.18099l0.01293-0.45248q0.07757-1.0084 0.07757-2.4822 0-1.0601-0.02586-2.4175-0.02586-1.3704-0.05171-1.6936-2.5856 0.28442-3.4518 0.53005-0.15514 0.05171-0.34906 0.05171-0.2327 0-0.45248-0.16806-0.21978-0.16806-0.21978-0.36198 0-0.12928 0.07757-0.18099 0.07757-0.06464 0.19392-0.06464 0.73689-0.03878 1.2411-0.07757 1.1506-0.10342 2.8959-0.3232 0-0.40077 0.01293-0.56883 0.02586-0.16806 0.0905-0.16806 0.24563 0 0.43955 0.19392 0.03878 0.03878 0.06464 0.20685 0.02586 0.15514 0.02586 0.20685 0.28442-0.01293 0.93081-0.12928 1.3962-0.21978 1.9133-0.21978 0.62054 0 0.82739 0.15514 0.14221 0.10342 0.14221 0.37491z"/>
   <path d="m65.006 100.66q0 0.11636-0.16806 0.27149-0.15514 0.14221-0.27149 0.14221-0.0905 0-0.18099-0.0776-0.07757-0.0776-0.18099-0.21978-0.0905-0.12928-0.24563-0.21977-0.14221-0.0905-0.29734-0.0905-0.37491 0-1.0084 0.99545-0.63347 0.98253-1.2411 2.4822 0.01293 0.29735 0.03878 0.74983 0.03878 0.45248 0.05171 0.67225l0.03878 0.51712q0 0.18099-0.07757 0.31027-0.07757 0.14221-0.28442 0.14221-0.21978 0-0.28442-0.58176-0.06464-0.59469-0.07757-1.7194-0.01293-0.28442-0.02586-0.81446 0-0.53005-0.02586-1.2669-0.03878-1.1118-0.03878-1.5902 0-0.29734 0.36198-0.29734 0.21978 0 0.25856 0.19392 0.05171 0.18099 0.05171 0.71104v2.0556q0.38784-0.99546 0.84032-1.7194 0.45248-0.72397 0.8791-1.0989 0.43955-0.38784 0.77568-0.38784 0.28442 0 0.54298 0.12928 0.25856 0.12928 0.4137 0.33613 0.15514 0.19392 0.15514 0.37491z"/>
   <path d="m71.277 105.28q0.01293 0.0905 0.10342 0.19392 0.0905 0.0905 0.0905 0.15514 0 0.15513-0.12928 0.36198-0.12928 0.19392-0.25856 0.19392-0.21978 0-0.33613-0.27149-0.11635-0.27148-0.11635-0.63347 0-0.31027 0.03878-1.8616l0.01293-0.49126q0-0.29734-0.15514-0.42662-0.58176 0.98252-1.086 1.7065t-1.2799 1.3704q-0.77568 0.63347-1.6289 0.63347-0.4137 0-0.6464-0.25856-0.21978-0.25856-0.21978-0.67226 0-0.51712 0.46541-1.4092 0.46541-0.90496 1.1894-1.8228 0.72397-0.93082 1.4479-1.5255 0.47834-0.38784 0.76275-0.51712 0.28442-0.14221 0.50419-0.14221 0.20685 0 0.42662 0.12928 0.21978 0.12928 0.37491 0.36198 0.15514 0.23271 0.15514 0.53005 0 0.40077-0.21978 0.76275l0.21978-0.0646q0.14221 0 0.16806 0.34906 0.01293 0.20684 0.02586 0.84031 0.02586 0.63348 0.03878 1.0472 0.01293 0.42662 0.02586 0.82739t0.02586 0.63347zm-4.5636 0.23271q0.69811 0 1.3445-0.51712t1.1506-1.2282q0.51712-0.72397 1.1377-1.7711 0.15514-0.38784 0.15514-0.84032 0-0.27149-0.16806-0.46541-0.15514-0.20685-0.42662-0.20685-0.3232 0-0.82739 0.43955-0.58176 0.49127-1.2282 1.3187-0.6464 0.81446-1.073 1.616-0.42662 0.80154-0.42662 1.267 0 0.38784 0.36198 0.38784z"/>
   <path d="m76.685 103.26q0 0.0776-0.27149 0.47833-0.25856 0.40077-0.53005 0.72397-0.67226 0.81446-1.2152 1.254-0.53005 0.43955-1.1118 0.43955-0.49126 0-0.81446-0.42662-0.31027-0.42662-0.31027-0.98252 0-0.8274 0.43955-2.0943 0.43955-1.2669 1.1118-2.1978 0.67225-0.93082 1.3445-0.93082 0.28442 0 0.49126 0.20685 0.11635 0.11635 0.21978 0.31027 0.10342 0.19392 0.10342 0.34906 0 0.21977-0.06464 0.51712-0.05171 0.28441-0.11635 0.28441-0.12928 0-0.16806-0.14221-0.03878-0.1422-0.05171-0.36198-0.03878-0.33613-0.07757-0.43955-0.03878-0.11635-0.11635-0.11635-0.60762 0-1.1764 0.85324-0.56883 0.84032-0.93081 1.9651-0.36198 1.1118-0.36198 1.7194 0 0.85324 0.56883 0.85324 0.4137 0 0.74982-0.20684 0.34906-0.20685 0.72397-0.58176 0.69811-0.71104 1.086-1.2282 0.02586-0.0388 0.14221-0.19392 0.12928-0.16806 0.18099-0.16806 0.15514 0 0.15514 0.11635z"/>
   <path d="m83.447 100.53q0 0.181-0.18099 0.38784-0.16806 0.19392-0.3232 0.19392-0.10342 0-0.2327-0.10342-0.12928-0.11635-0.18099-0.11635-0.34906 0-1.1118 0.47833-0.76275 0.47834-1.5643 1.1247-0.80154 0.6464-1.2282 1.0989l0.01293 0.2327q0.98253 0.45248 2.1848 0.9696t1.6677 0.60761q0.18099 0.0259 0.36198 0.0388 0.18099 0.0129 0.25856 0.0129 0.11635 0 0.19392 0.0129 0.07757 0.0129 0.07757 0.0517 0 0.15514-0.24563 0.31027-0.2327 0.15514-0.71104 0.15514-0.42662 0-1.1635-0.31027-0.72397-0.3232-1.7194-0.84032l-0.81446-0.40077q0.16806 1.6418 0.16806 1.8099 0 0.14221-0.14221 0.2327-0.14221 0.0905-0.31027 0.0905-0.10342 0-0.16806-0.31027-0.06464-0.31027-0.15514-1.2282l-0.0905-0.7886q-0.15514-0.0646-0.27149-0.181-0.11635-0.12928-0.11635-0.2327 0-0.15514 0.25856-0.36198-0.01293-0.69811-0.07757-1.9909-0.05171-1.2928-0.07757-1.8875l-0.06464-1.797q0-0.36198 0.0905-0.62054 0.0905-0.25856 0.40077-0.25856 0.11635 0 0.15514 0.05171 0.03878 0.03878 0.03878 0.16806 0 0.59469 0.07757 2.7666 0.0905 2.159 0.14221 3.0769 2.8829-2.7407 4.2145-2.7407 0.27149 0 0.45248 0.10343 0.19392 0.0905 0.19392 0.19391z"/>
   <path d="m88.714 102.81q0.0905 0 0.0905 0.19392 0 0.2327-0.34906 1.0213-0.33613 0.7886-1.0342 1.4609-0.68518 0.67225-1.6936 0.67225-0.82739 0-1.3833-0.51711-0.5559-0.51712-0.5559-1.5902 0-1.0084 0.46541-1.9909 0.46541-0.99546 1.2152-1.616 0.74982-0.63347 1.5514-0.63347 0.47834 0 0.80153 0.21977 0.33613 0.20685 0.33613 0.60762 0 0.45248-0.51712 0.8791-0.50419 0.42662-1.3187 0.74982-0.81446 0.3232-1.6806 0.46541-0.15514 0.59469-0.15514 1.1635 0 0.74982 0.34906 1.1635 0.36198 0.41369 1.0213 0.41369 0.99545 0 1.616-0.71104t1.0342-1.6031q0.02586-0.0517 0.0905-0.19392 0.06464-0.15513 0.11635-0.15513zm-1.1377-2.0297q0-0.20685-0.21978-0.3232-0.20685-0.11635-0.49126-0.11635-0.49126 0-0.94374 0.32319-0.45248 0.3232-0.76275 0.77568-0.29734 0.45248-0.38784 0.80154 0.59469-0.0646 1.254-0.33613 0.65933-0.27149 1.0989-0.59469 0.45248-0.3232 0.45248-0.53004z"/>
   <path d="m94.271 100.66q0 0.11636-0.16806 0.27149-0.15514 0.14221-0.27149 0.14221-0.0905 0-0.18099-0.0776-0.07757-0.0776-0.18099-0.21978-0.0905-0.12928-0.24563-0.21977-0.14221-0.0905-0.29734-0.0905-0.37491 0-1.0084 0.99545-0.63347 0.98253-1.2411 2.4822 0.01293 0.29735 0.03878 0.74983 0.03878 0.45248 0.05171 0.67225l0.03878 0.51712q0 0.18099-0.07757 0.31027-0.07757 0.14221-0.28442 0.14221-0.21978 0-0.28442-0.58176-0.06464-0.59469-0.07757-1.7194-0.01293-0.28442-0.02586-0.81446 0-0.53005-0.02586-1.2669-0.03878-1.1118-0.03878-1.5902 0-0.29734 0.36198-0.29734 0.21978 0 0.25856 0.19392 0.05171 0.18099 0.05171 0.71104v2.0556q0.38784-0.99546 0.84032-1.7194 0.45248-0.72397 0.8791-1.0989 0.43955-0.38784 0.77568-0.38784 0.28442 0 0.54298 0.12928 0.25856 0.12928 0.4137 0.33613 0.15514 0.19392 0.15514 0.37491z"/>
  </g>
  <g transform="matrix(.14791 0 0 .14791 17.272 13.494)" enable-background="new">
   <g transform="matrix(3.4168 1.5666 1.5666 -3.4168 -608.56 358.79)" enable-background="new">
    <g transform="translate(216.58 .045849)">
     <path d="m-42.938 142.03v-2.7687l0.61806-89.32 3.559-16.921 3.5589 16.921 0.61806 89.32v2.7687l-1.8757 2.2794-0.58405 5.1796-1.7172 0.0536-1.7172-0.0536-0.58405-5.1796z" fill="#d4dcfb"/>
     <path d="m-38.733 137-1.2792 2.2158h2.5584zm1.2792 2.2158-1.2792 2.2158h2.5584zm-1.2792 2.2158-1.2792-2.2158-1.2797 2.2158zm-3.728-2.0785v0.49694h1.2797c-0.42635 0.73874-0.85312 1.4772-1.2797 2.2158h3.1762v1.1147h0.49693v-1.6116h-2.7462l1.2792-2.2158zm5.2498 0 1.2792 2.2158h-2.7467v1.6116h0.49693v-1.1147h3.1767c-0.42657-0.73859-0.85335-1.4771-1.2797-2.2158h1.2797v-0.49694z" fill="#fff"/>
     <path transform="matrix(.07039 0 0 .07039 -56.169 29.53)" d="m247.3 49.58v92.391c42.982 87.851 42.559 210 42.559 210v1184s0.90607 9.3144 3.6934 12.752c1.1978 1.4774 13.088 10.203 13.088 10.203v-1203.6s1.3563-208.16-59.34-305.75z" fill="url(#linearGradient1718)"/>
     <path transform="matrix(.07039 0 0 .07039 -56.169 29.53)" d="m247.3 49.58c-60.696 97.586-59.342 305.75-59.342 305.75v1203.6s11.892-8.7258 13.09-10.203c2.7872-3.4375 3.6914-12.752 3.6914-12.752v-1184s-0.42188-122.15 42.561-210z" fill="url(#linearGradient1731)"/>
     <path transform="matrix(.07039 0 0 .07039 -56.169 29.53)" d="m306.64 1598.2s-24.75 18.741-30.648 32.383c-4.3943 10.163-5.6896 26.095-5.7988 40.549h8.5156c0.36909-12.042 1.2902-24.374 3.3652-32.121 4.6757-17.455 24.566-40.81 24.566-40.81z" fill="url(#linearGradient1760)"/>
     <path transform="matrix(.07039 0 0 .07039 -56.169 29.53)" d="m187.96 1598.2s19.891 23.353 24.566 40.808c2.075 7.7467 2.996 20.078 3.3652 32.121h8.5156c-0.10926-14.454-1.4046-30.386-5.7988-40.549-5.8968-13.638-30.634-32.371-30.646-32.381h-2e-3z" fill="url(#linearGradient1757)"/>
    </g>
    <g transform="translate(215.64 -1.2926)">
     <path d="m-39.3 152.24h2.9634v26.763h-2.9634z" fill="#5518ea"/>
     <path d="m-39.3 152.24h2.9634c0.16713 0 0.30167 0.13455 0.30167 0.30167v1.4553c0 0.16712-0.13455 0.30167-0.30167 0.30167h-2.9634c-0.16713 0-0.30167-0.13455-0.30167-0.30167v-1.4553c0-0.16712 0.13455-0.30167 0.30167-0.30167z" fill="url(#linearGradient956)"/>
     <path d="m-39.3 154.3h2.9634c0.16713 0 0.30167 0.13455 0.30167 0.30167v1.4553c0 0.16712-0.13455 0.30167-0.30167 0.30167h-2.9634c-0.16713 0-0.30167-0.13455-0.30167-0.30167v-1.4553c0-0.16712 0.13455-0.30167 0.30167-0.30167z" fill="url(#linearGradient968)"/>
     <path d="m-39.3 156.36h2.9634c0.16713 0 0.30167 0.13455 0.30167 0.30167v1.4553c0 0.16712-0.13455 0.30167-0.30167 0.30167h-2.9634c-0.16713 0-0.30167-0.13455-0.30167-0.30167v-1.4553c0-0.16712 0.13455-0.30167 0.30167-0.30167z" fill="url(#linearGradient972)"/>
     <path d="m-39.3 158.42h2.9634c0.16713 0 0.30167 0.13455 0.30167 0.30167v1.4553c0 0.16712-0.13455 0.30167-0.30167 0.30167h-2.9634c-0.16713 0-0.30167-0.13455-0.30167-0.30167v-1.4553c0-0.16712 0.13455-0.30167 0.30167-0.30167z" fill="url(#linearGradient976)"/>
     <path d="m-39.3 160.47h2.9634c0.16713 0 0.30167 0.13455 0.30167 0.30167v1.4553c0 0.16712-0.13455 0.30167-0.30167 0.30167h-2.9634c-0.16713 0-0.30167-0.13455-0.30167-0.30167v-1.4553c0-0.16712 0.13455-0.30167 0.30167-0.30167z" fill="url(#linearGradient980)"/>
     <path d="m-39.3 162.53h2.9634c0.16713 0 0.30167 0.13455 0.30167 0.30167v1.4553c0 0.16712-0.13455 0.30167-0.30167 0.30167h-2.9634c-0.16713 0-0.30167-0.13455-0.30167-0.30167v-1.4553c0-0.16712 0.13455-0.30167 0.30167-0.30167z" fill="url(#linearGradient984)"/>
     <path d="m-39.3 164.59h2.9634c0.16713 0 0.30167 0.13455 0.30167 0.30167v1.4553c0 0.16712-0.13455 0.30167-0.30167 0.30167h-2.9634c-0.16713 0-0.30167-0.13455-0.30167-0.30167v-1.4553c0-0.16712 0.13455-0.30167 0.30167-0.30167z" fill="url(#linearGradient988)"/>
     <path d="m-39.3 166.65h2.9634c0.16713 0 0.30167 0.13455 0.30167 0.30167v1.4553c0 0.16712-0.13455 0.30167-0.30167 0.30167h-2.9634c-0.16713 0-0.30167-0.13455-0.30167-0.30167v-1.4553c0-0.16712 0.13455-0.30167 0.30167-0.30167z" fill="url(#linearGradient1004)"/>
     <path d="m-39.3 168.71h2.9634c0.16713 0 0.30167 0.13455 0.30167 0.30167v1.4553c0 0.16712-0.13455 0.30167-0.30167 0.30167h-2.9634c-0.16713 0-0.30167-0.13455-0.30167-0.30167v-1.4553c0-0.16712 0.13455-0.30167 0.30167-0.30167z" fill="url(#linearGradient1006)"/>
     <path d="m-39.3 170.77h2.9634c0.16713 0 0.30167 0.13455 0.30167 0.30167v1.4553c0 0.16712-0.13455 0.30167-0.30167 0.30167h-2.9634c-0.16713 0-0.30167-0.13455-0.30167-0.30167v-1.4553c0-0.16712 0.13455-0.30167 0.30167-0.30167z" fill="url(#linearGradient1008)"/>
     <path d="m-39.3 172.83h2.9634c0.16713 0 0.30167 0.13455 0.30167 0.30167v1.4553c0 0.16712-0.13455 0.30167-0.30167 0.30167h-2.9634c-0.16713 0-0.30167-0.13455-0.30167-0.30167v-1.4553c0-0.16712 0.13455-0.30167 0.30167-0.30167z" fill="url(#linearGradient1010)"/>
     <path d="m-39.3 174.88h2.9634c0.16713 0 0.30167 0.13455 0.30167 0.30167v1.4553c0 0.16712-0.13455 0.30167-0.30167 0.30167h-2.9634c-0.16713 0-0.30167-0.13455-0.30167-0.30167v-1.4553c0-0.16712 0.13455-0.30167 0.30167-0.30167z" fill="url(#linearGradient1012)"/>
     <path d="m-39.3 176.94h2.9634c0.16713 0 0.30167 0.13455 0.30167 0.30167v1.4553c0 0.16712-0.13455 0.30167-0.30167 0.30167h-2.9634c-0.16713 0-0.30167-0.13455-0.30167-0.30167v-1.4553c0-0.16712 0.13455-0.30167 0.30167-0.30167z" fill="url(#linearGradient1014)"/>
    </g>
    <g>
     <g transform="translate(216.58 1.1339)">
      <path d="m-40.977 146.45-0.03146 0.46822-2.4165 0.58133s-5.104 0.24546-4.1208 2.5744l3.2408 0.82432 5.5441-1.4722 5.5441 1.4722 3.2408-0.82432c0.98315-2.3289-4.1208-2.5744-4.1208-2.5744l-2.4165-0.58133-0.03146-0.46822-0.59897-3e-5 -0.1 2.357-1.5172-0.21368-1.5172 0.21368-0.1-2.357z" fill="url(#linearGradient925)"/>
      <path transform="matrix(.07039 0 0 .07039 -56.169 13.801)" d="m124.18 1839.3c-2.7404 26.93-2.423 28.796 30.742 79.787 2.3536-0.8254 4.65-1.5697 6.7734-2.166 7.2837-2.0454 17.507-5.1962 26.988-7.0781-3.2079-3.3368-5.4439-6.8092-7.6426-10.482l0.16016-0.039c-19.649-26.837-20.568-44.788-23.068-60.022z" fill="url(#linearGradient917)"/>
      <path transform="matrix(.07039 0 0 .07039 -56.169 13.801)" d="m336.47 1839.3c-2.4999 15.233-3.4176 33.185-23.066 60.022l0.15821 0.039c-2.1987 3.6732-4.4346 7.1456-7.6426 10.482 9.4811 1.8819 19.705 5.0327 26.988 7.0781 2.1234 0.5963 4.4198 1.3406 6.7734 2.166 33.165-50.991 33.483-52.857 30.742-79.787z" fill="url(#linearGradient877)"/>
      <path transform="matrix(.07039 0 0 .07039 -56.169 13.801)" d="m124.18 1839.3-37.119 6.1621c-8.2166 13.437 11.876 61.95 44.221 84.402 2.0846-1.3435 4.1862-2.6149 5.8633-3.4219 7.1405-3.436 16.922-7.3792 24.551-9.5215 1.1362-0.3191 2.4516-0.7006 3.7168-1.0644-26.383-20.997-39.502-60.832-41.232-76.557z" fill="url(#linearGradient913)"/>
      <path transform="matrix(.07039 0 0 .07039 -56.169 13.801)" d="m370.42 1839.3c-1.7307 15.725-14.848 55.56-41.23 76.557 1.2646 0.3636 2.5792 0.7455 3.7148 1.0644 7.6291 2.1423 17.41 6.0855 24.551 9.5215 1.677 0.807 3.7787 2.0784 5.8633 3.4219 32.344-22.452 52.437-70.965 44.221-84.402z" fill="url(#linearGradient897)"/>
      <path transform="matrix(.07039 0 0 .07039 -56.169 13.801)" d="m87.059 1845.4-37.059 16.17s18.976 42.6 72.496 74.303h2e-3s9.4024-6.9697 14.645-9.4922c1.4335-0.6898 2.992-1.4014 4.5996-2.1133-33.874-20.864-52.684-62.383-54.684-78.867z" fill="url(#linearGradient909)"/>
      <path transform="matrix(.07039 0 0 .07039 -56.169 13.801)" d="m407.54 1845.4c-1.9991 16.484-20.81 58.004-54.684 78.867 1.6076 0.7119 3.1662 1.4235 4.5996 2.1133 5.2422 2.5225 14.646 9.4922 14.646 9.4922 53.52-31.703 72.496-74.303 72.496-74.303z" fill="url(#linearGradient905)"/>
     </g>
     <path d="m176.03 178.51 0.73226 2.8825h2.1125l0.73225-2.8825h-1.7885z" fill="url(#linearGradient949)"/>
     <path d="m175.93 176.92-0.43816 1.7244h4.6354l-0.43721-1.7244h-1.8805z" fill="url(#linearGradient941)"/>
     <path d="m175.92 151.7c-0.18964-0.11773-0.20563-0.63728-0.20563-0.63728l2.1046-0.0201 2.1046 0.0201s-0.016 0.51955-0.20563 0.63728v4e-5c-0.28017 0.17393-1.0443 0.25473-1.899 0.27301-0.85471-0.0183-1.6188-0.0991-1.899-0.27301z" fill="url(#linearGradient957)"/>
     <path d="m176.77 149.41s-0.90436 0.15368-1.2778 0.3977c-0.14202 0.0928-0.2636 0.22982-0.33363 0.38433-0.13358 0.29469-0.31105 0.69226-0.13186 0.96166 0.13325 0.20033 0.69743 0.18599 0.69743 0.18599l2.0922-9e-3 2.0922 9e-3s0.56418 0.0143 0.69743-0.18599c0.17919-0.2694 2e-3 -0.66697-0.13186-0.96166-0.07-0.15451-0.19161-0.29153-0.33363-0.38433-0.37341-0.24402-1.2778-0.3977-1.2778-0.3977z" fill="url(#linearGradient933)"/>
     <g transform="translate(216.58 1.1339)">
      <path transform="matrix(.26458 0 0 .26458 -80.402 16.634)" d="m157.38 490.73-3.9551 6.8027 3.9551 3.0059 3.9551-3.0059z" fill="url(#linearGradient4800)"/>
      <path d="m-36.523 145.63h-0.64094c-0.03272 0-0.05906 0.0263-0.05906 0.0591v1.0129c0 0.0327 0.02634 0.0591 0.05906 0.0591h0.64094c0.03272 0 0.05906-0.0263 0.05906-0.0591v-1.0129c0-0.0327-0.02634-0.0591-0.05906-0.0591z" fill="url(#linearGradient856)"/>
      <path d="m-40.358 145.63h-0.64094c-0.03272 0-0.05906 0.0263-0.05906 0.0591v1.0129c0 0.0327 0.02634 0.0591 0.05906 0.0591h0.64094c0.03272 0 0.05906-0.0263 0.05906-0.0591v-1.0129c0-0.0327-0.02634-0.0591-0.05906-0.0591z" fill="url(#linearGradient1333)"/>
     </g>
    </g>
   </g>
   <g transform="matrix(1.0074 0 0 1.0074 18.783 126.11)" enable-background="new">
    <path d="m133.43 310.48c-89.685-69.531-114.23-121.3-114.19-235.8 54.271-17.58 71.375-24.439 114.19-53.862 42.812 29.423 59.916 36.281 114.19 53.862 0.0423 114.51-24.501 166.27-114.19 235.8z" fill="url(#linearGradient1634)"/>
    <g>
     <path d="m133.43 16.263c-44.169 30.355-61.814 37.431-117.8 55.568-0.043693 118.14 25.278 171.54 117.8 243.28 92.527-71.734 117.85-125.14 117.8-243.28-55.99-18.137-73.636-25.213-117.8-55.568zm-20.546 27.977 9.185 14.558h22.722l9.1855-14.558c26.007 17.314 37.975 22.721 72.577 31.992l-2.5836 11.387 5.5951 7.1849h10.347c0 44.965-8.3808 82.587-23.711 113.16l-13.413-2.5603-11.003 15.915 9.0761 10.373c-15.192 23.192-25.283 34.805-47.859 47.064l-4.1476-16.252-15.424 14.352-15.424-14.352-4.1476 16.252c-22.576-12.259-32.667-23.872-47.859-47.064l9.0761-10.373-11.003-15.915-13.413 2.5603c-15.33-30.569-23.711-68.191-23.711-113.16h10.347l5.5951-7.1849-2.5836-11.387c34.603-9.2717 46.57-14.678 72.577-31.992z" fill="#a1a1a1"/>
     <path transform="matrix(.23082 0 0 .23082 1.6882 1.6882)" d="m270.25 882.56-58.109 11.092-7.2812 3.7188 59.289-11.318z" fill="#a1a1a1"/>
     <path transform="matrix(.23082 0 0 .23082 1.6882 1.6882)" d="m145.79 397.18h-45.74l9.3672 6.2363h44.828m887.18-6.2363h-45.736l-8.457 6.2363h44.826zm-519.91-149.75h98.439l0.99805-9.4023h-100.44z" fill="#545454"/>
     <path transform="matrix(.23082 0 0 .23082 1.6882 1.6882)" d="m312.79 956.4-40.121 45.85 5.9316-5.8047 39.322-44.939zm-142.27-590.98-24.73 31.76 8.4551 6.2363 24.24-31.129zm449.44-117.99 39.795-63.072 1.8066-10.684-40.604 64.354z" fill="#b3b3b3"/>
     <path transform="matrix(.23082 0 0 .23082 1.6882 1.6882)" d="m479.92 173.67 1.8086 10.684 39.793 63.072-1-9.4023zm483.07 198.62 24.24 31.129 8.457-6.2363-24.732-31.76zm-139.44 579.22 39.322 44.939 5.9316 5.8047-40.119-45.85z" fill="#515151"/>
     <path transform="matrix(.23082 0 0 .23082 1.6882 1.6882)" d="m178.48 372.29-11.193-49.33-8.1914-7.8691 11.42 50.332zm477.04 828.06-17.969-70.412 1.3574 8.5157 18.334 71.842z" fill="#dbdbdb"/>
     <path transform="matrix(.23082 0 0 .23082 1.6882 1.6882)" d="m982.38 315.09-8.1914 7.8691-11.193 49.33 7.9648-6.8672zm-478.46 814.84-17.969 70.412-1.7207 9.9453 18.334-71.842z" fill="#828282"/>
     <path transform="matrix(.23082 0 0 .23082 1.6882 1.6882)" d="m871.22 882.56-47.672 68.947 5.1348 4.8945 48.637-70.35zm-300.49 319.33 68.182-63.439-1.3574-8.5157-66.824 62.176z" fill="#cbcbcb"/>
     <path transform="matrix(.23082 0 0 .23082 1.6882 1.6882)" d="m270.25 882.56-6.1016 3.4922 48.639 70.35 5.1328-4.8945zm233.66 247.37-1.3555 8.5157 68.178 63.439v-9.7793z" fill="#f4f4f4"/>
     <path transform="matrix(.23082 0 0 .23082 1.6882 1.6882)" d="m871.22 882.56 6.0996 3.4922 59.289 11.318-7.2812-3.7188z" fill="#cbcbcb"/>
     <g transform="matrix(-1 0 0 1 266.85 0)">
      <path transform="matrix(.23082 0 0 .23082 1.6882 1.6882)" d="m479.92 173.67c-114.96 76.535-167.86 100.43-320.82 141.42l8.1914 7.8691c149.91-40.169 201.76-63.592 314.43-138.6z" fill="url(#linearGradient1636)"/>
      <path transform="matrix(.23082 0 0 .23082 1.6882 1.6882)" d="m661.56 173.67-1.8066 10.684c112.67 75.012 164.52 98.435 314.43 138.6l8.1914-7.8691c-152.96-40.984-205.86-64.883-320.82-141.42z" fill="url(#linearGradient1638)"/>
      <path transform="matrix(.23082 0 0 .23082 1.6882 1.6882)" d="m100.05 397.18c0 198.76 37.048 365.06 104.81 500.19l7.2812-3.7188c-66.416-132.44-102.73-295.43-102.73-490.23z" fill="url(#linearGradient1640)"/>
      <path transform="matrix(.23082 0 0 .23082 1.6882 1.6882)" d="m1041.4 397.18-9.3672 6.2363c0 194.8-36.309 357.8-102.72 490.23l7.2812 3.7188c67.764-135.13 104.81-301.43 104.81-500.19z" fill="url(#linearGradient1642)"/>
      <path transform="matrix(.23082 0 0 .23082 1.6882 1.6882)" d="m278.6 996.45-5.9316 5.8047c67.155 102.52 111.76 153.85 211.56 208.04l1.7207-9.9453c-97.809-53.11-141.53-103.42-207.35-203.9z" fill="url(#linearGradient1644)"/>
      <path transform="matrix(.23082 0 0 .23082 1.6882 1.6882)" d="m862.88 996.45c-65.819 100.48-109.54 150.79-207.35 203.9l1.7226 9.9453c99.795-54.188 144.4-105.52 211.55-208.04z" fill="url(#linearGradient1646)"/>
     </g>
     <path d="m133.43 13.229c-45.065 30.971-63.069 38.191-120.2 56.696-0.04458 120.54 25.791 175.02 120.2 248.21 94.406-73.191 120.24-127.68 120.2-248.21-57.127-18.505-75.131-25.725-120.2-56.696zm-20.963 28.546 9.3715 14.854h23.183l9.372-14.854c26.535 17.666 38.746 23.182 74.051 32.642l-2.636 11.618 5.7087 7.3308h10.557c0 45.878-8.551 84.263-24.192 115.45l-13.685-2.6122-11.227 16.238 9.2604 10.583c-15.501 23.663-25.797 35.512-48.831 48.019l-4.2318-16.582-15.738 14.643-15.737-14.643-4.2318 16.582c-23.035-12.508-33.33-24.356-48.831-48.019l9.2604-10.583-11.227-16.238-13.685 2.6122c-15.641-31.19-24.193-69.576-24.193-115.45h10.557l5.7087-7.3308-2.636-11.618c35.305-9.46 47.516-14.976 74.051-32.642z" fill="url(#linearGradient1502-1)"/>
     <path d="m253.62 69.925c-57.127-18.505-75.131-25.725-120.2-56.696-45.065 30.971-63.069 38.191-120.2 56.696l24.964 19.775 2.8543-3.6654-2.636-11.618c35.305-9.46 47.516-14.976 74.051-32.642l9.3715 14.854h23.183l9.372-14.854c26.535 17.666 38.746 23.182 74.051 32.642l-2.636 11.618 2.8544 3.6654z" fill="url(#linearGradient1648)"/>
     <path transform="matrix(.23082 0 0 .23082 1.6882 1.6882)" d="m50 295.63c-0.19314 522.21 111.74 758.27 520.74 1075.4v-169.11l-68.178-63.439-18.334 71.842c-99.795-54.188-144.4-105.52-211.56-208.04l40.121-45.85-48.639-70.35-59.289 11.318c-67.764-135.13-104.81-301.43-104.81-500.19h45.74l12.365-15.879z" fill="url(#linearGradient1650)"/>
     <path transform="matrix(.23082 0 0 .23082 1.6882 1.6882)" d="m1091.5 295.63-108.15 85.67 12.365 15.879h45.736c0 198.76-37.046 365.06-104.81 500.19l-59.289-11.318-48.637 70.35 40.119 45.85c-67.155 102.52-111.76 153.85-211.55 208.04l-18.334-71.842-68.182 63.439v169.11c409-317.09 520.93-553.16 520.74-1075.4z" fill="url(#linearGradient1652)"/>
     <circle cx="26.87" cy="80.426" r="6.6452" fill="url(#radialGradient1384-4-5)"/>
     <circle cx="239.98" cy="80.426" r="6.6452" fill="url(#radialGradient1388-7-4)"/>
     <circle cx="133.43" cy="297.11" r="6.6452" fill="url(#radialGradient1392-9-5)"/>
    </g>
    <g transform="translate(-.2884)">
     <path d="m38.798 136.35 10.09 16.696 51.984 3.77c-0.2653 1.2272-0.3967 2.4671-0.39951 3.703l-43.294 3.5892 12.377 13.045 32.023-10.408c0.49494 1.3481 1.1511 2.651 1.9669 3.8822l-26.694 12.474 14.193 9.2873 17.133-16.857c1.1447 0.86718 2.4126 1.6425 3.7958 2.3099l-12.701 18.296 14.758 2.774 3.845-19.081c0.65182 0.13748 1.3187 0.2562 2.004 0.3519 0 0 1.7476 0.27828 2.5036-0.0758 0.86379-0.40462 1.6599-1.2184 1.8983-2.1421 0.24609-0.95323-0.0214-2.1204-0.64407-2.8829-0.65862-1.0164-3.3164-1.4843-3.3164-1.4843-13.497-3.21-21.618-14.526-11.352-28.639-2.5988 1.88-4.5769 4.0769-5.9685 6.4398zm189.26 0-10.09 16.696-51.984 3.77c0.2653 1.2272 0.3967 2.4671 0.39952 3.703l43.294 3.5892-12.377 13.045-32.023-10.408c-0.49493 1.3481-1.1511 2.651-1.9669 3.8822l26.694 12.474-14.193 9.2873-17.133-16.857c-1.1447 0.86718-2.4126 1.6425-3.7958 2.3099l12.701 18.296-14.758 2.774-3.845-19.081c-0.65182 0.13748-1.3187 0.2562-2.004 0.3519 0 0-1.7476 0.27828-2.5036-0.0758-0.86378-0.40462-1.6599-1.2184-1.8983-2.1421-0.24609-0.95323 0.0214-2.1204 0.64407-2.8829 0.65862-1.0164 3.3164-1.4843 3.3164-1.4843 13.497-3.21 21.618-14.526 11.352-28.639 2.5988 1.88 4.5769 4.0769 5.9685 6.4398zm-94.628 28.139-1.7904-4.2652-1.9938 2.071 0.54177-2.8498-3.5796 2.7601 2.1329-4.022c-1.8883-0.50704-4.1069 1.4209-5.5483 3.4134 0.52569-3.0766 1.446-4.948 5.4576-7.9983 0 0 1.8411-1.5988 2.4414-2.6347 0.90619-1.5635 1.7228-4.0744 2.3386-6.321 0.61585 2.2467 1.4324 4.7575 2.3386 6.321 0.60038 1.0359 2.4414 2.6347 2.4414 2.6347 4.0116 3.0503 4.9319 4.9217 5.4576 7.9983-1.4415-1.9924-3.66-3.9204-5.5484-3.4134l2.1329 4.022-3.5796-2.7601 0.54177 2.8498-1.9938-2.071zm-11.45 36.215s0.79546-1.174 1.4195-1.4082c0.99739-0.37434 2.3363-0.43553 3.1896 0.20227 0.85365 0.63804 1.258 1.9493 1.0975 3.0029-0.0993 0.65218-1.2019 1.5723-1.2019 1.5723l-10.681 9.9644h5.4034l-6.6793 7.3557 2.2328-4.9506h-10.845l4.1467 6.8644-9.2504-9.2696h12.089zm22.9 0s-0.79546-1.174-1.4195-1.4082c-0.99739-0.37434-2.3363-0.43553-3.1896 0.20227-0.85365 0.63804-1.258 1.9493-1.0975 3.0029 0.0993 0.65218 1.2019 1.5723 1.2019 1.5723l10.681 9.9644h-5.4034l6.6793 7.3557-2.2328-4.9506h10.845l-4.1467 6.8644 9.2504-9.2696h-12.089zm-11.45 23.064-6.275-14.416 3.1962-2.539v-9.6142l-9.5821-6.7114 3.9111-3.5344 8.7498-19.794 8.7498 19.794 3.9111 3.5344-9.5821 6.7114v9.6142l3.1962 2.539z" fill="url(#linearGradient1654)"/>
     <g transform="matrix(-.5 -.86603 -.86603 .5 264.69 260.76)">
      <path transform="scale(.26458)" d="m299.03 314.99-73.799 127.82h147.6z" fill="#fffd38"/>
      <path transform="scale(.26458)" d="m299.03 314.99 0.0587 45.198 34.687 60.079 39.053 22.547z" fill="#d6d6d6" fill-opacity=".45868"/>
      <path transform="scale(.26458)" d="m264.4 420.26-39.171 22.547h147.6l-39.053-22.547z" fill="#555" fill-opacity=".59917"/>
      <path transform="scale(.26458)" d="m299.03 314.99-73.799 127.82 39.171-22.547 34.687-60.079z" fill="#3f3f3a" fill-opacity=".22314"/>
     </g>
     <g transform="matrix(-.78663 0 0 -.78663 206.07 241.23)">
      <g transform="rotate(180 75.968 130.84)">
       <path transform="scale(.26458)" d="m299.03 314.99-73.799 127.82h147.6z" fill="#fffd38"/>
       <path transform="scale(.26458)" d="m299.03 314.99 0.0587 45.198 34.687 60.079 39.053 22.547z" fill="#fff" fill-opacity=".78431"/>
       <path transform="scale(.26458)" d="m264.4 420.26-39.171 22.547h147.6l-39.053-22.547z" fill="#747474" fill-opacity=".39216"/>
       <path transform="scale(.26458)" d="m299.03 314.99-73.799 127.82 39.171-22.547 34.687-60.079z" fill="#41413d" fill-opacity=".11765"/>
      </g>
      <g transform="rotate(180 85.731 147.75)">
       <path transform="scale(.26458)" d="m299.03 314.99-73.799 127.82h147.6z" fill="#fffd38"/>
       <path transform="scale(.26458)" d="m299.03 314.99 0.0587 45.198 34.687 60.079 39.053 22.547z" fill="#fff" fill-opacity=".78431"/>
       <path transform="scale(.26458)" d="m264.4 420.26-39.171 22.547h147.6l-39.053-22.547z" fill="#747474" fill-opacity=".39216"/>
       <path transform="scale(.26458)" d="m299.03 314.99-73.799 127.82 39.171-22.547 34.687-60.079z" fill="#41413d" fill-opacity=".11765"/>
      </g>
      <g transform="rotate(180 95.494 130.84)">
       <path transform="scale(.26458)" d="m299.03 314.99-73.799 127.82h147.6z" fill="#fffd38"/>
       <path transform="scale(.26458)" d="m299.03 314.99 0.0587 45.198 34.687 60.079 39.053 22.547z" fill="#fff" fill-opacity=".78431"/>
       <path transform="scale(.26458)" d="m264.4 420.26-39.171 22.547h147.6l-39.053-22.547z" fill="#747474" fill-opacity=".39216"/>
       <path transform="scale(.26458)" d="m299.03 314.99-73.799 127.82 39.171-22.547 34.687-60.079z" fill="#41413d" fill-opacity=".11765"/>
      </g>
     </g>
     <g transform="translate(0 5.5397)">
      <path d="m139.13 68.394s7.9796-1.1651 11.064 0.87814c1.9291 1.2781 3.2696 3.8455 3.2041 6.1586-0.0858 3.0286-4.645 7.8129-4.645 7.8129l14.801 23.653s6.3532-1.0226 9.3297-0.12066c3.4824 1.0552 6.9066 3.2007 9.0012 6.1762 1.7756 2.5223 2.355 8.9492 2.355 8.9492h41.122c4.3796-22.429-8.3198-54.22-53.522-53.492 27.654 6.3898 42.585 22.258 40.933 42.999h-18.864s-3.9452-5.9326-6.5882-8.2605c-2.1854-1.9248-4.7131-3.5839-7.4634-4.5416-3.4349-1.196-10.557-0.80161-10.828-1.3439-0.40091-0.80181-8.5473-12.941-8.5473-12.941s2.883-4.7524 2.8161-7.3866c-0.0825-3.251-1.5176-6.7511-3.9335-8.928-3.0526-2.7506-7.6374-4.0682-11.736-3.7725-3.1456 0.22702-8.4984 4.1589-8.4984 4.1589z" fill="#a8a8a8"/>
      <path d="m139.13 68.394s7.9796-1.1651 11.064 0.87814c1.9291 1.2781 3.2696 3.8455 3.2041 6.1586-0.0858 3.0286-4.645 7.8129-4.645 7.8129l14.801 23.653s6.3532-1.0226 9.3297-0.12066c3.4824 1.0552 6.9066 3.2007 9.0012 6.1762 1.7756 2.5223 2.355 8.9492 2.355 8.9492h41.122l-6.2935-5.1882-29.356-0.0583s-2.1534-5.7651-4.14-8.0274c-2.3399-2.6646-5.4216-4.8223-8.7458-6.0571-3.2926-1.2231-10.479-1.1108-10.479-1.1108l-11.229-17.954s2.6086-3.4658 2.8161-5.5213c0.27362-2.7116-0.43406-5.7901-2.1848-7.8788-1.8724-2.2338-4.9906-3.4607-7.8886-3.7725-2.9733-0.31987-8.7316 2.0604-8.7316 2.0604z" fill="#636363"/>
      <path d="m225.36 121.9c4.3796-22.429-8.3198-54.22-53.522-53.492 41.411 5.224 48.88 27.563 47.229 48.303 0 0 6.2935 5.1882 6.2935 5.1882z" fill="url(#linearGradient1656)"/>
      <path transform="matrix(.23082 0 0 .23082 1.6882 1.6882)" d="m737.14 289.06c119.81 27.683 184.49 96.431 177.34 186.29l27.273 22.982c6.8503-89.594-25.836-186.72-204.61-209.27zm189.45 69.744c2.4532 2.783 4.7996 5.6194 7.041 8.5059-2.2414-2.8865-4.5878-5.7229-7.041-8.5059zm13.453 17.307c2.0336 2.979 3.9649 6.0022 5.7949 9.0625-1.83-3.0603-3.7613-6.0836-5.7949-9.0625z" fill="url(#linearGradient1658)"/>
      <path d="m163.55 106.9s6.3532-1.0226 9.3297-0.12066c3.4824 1.0552 6.9066 3.2007 9.0012 6.1762 1.7756 2.5223 2.355 8.9492 2.355 8.9492l5.4722-5.2465s-2.1534-5.7651-4.14-8.0274c-2.3399-2.6646-5.4216-4.8223-8.7458-6.0571-3.2926-1.2231-10.479-1.1108-10.479-1.1108z" fill="url(#linearGradient1660)"/>
      <path d="m139.13 68.394s7.9796-1.1651 11.064 0.87814c1.9291 1.2781 3.2696 3.8455 3.2041 6.1586-0.0858 3.0286-4.645 7.8129-4.645 7.8129l14.801 23.653 2.7937-5.437-11.229-17.954s2.6086-3.4658 2.8161-5.5213c0.27362-2.7116-0.43406-5.7901-2.1848-7.8788-1.8724-2.2338-4.9906-3.4607-7.8886-3.7725-2.9733-0.31987-8.7316 2.0604-8.7316 2.0604z" fill="#757575"/>
      <path d="m139.13 68.394s7.9796-1.1651 11.064 0.87814c1.9291 1.2781 3.2696 3.8455 3.2041 6.1586-0.0858 3.0286-4.645 7.8129-4.645 7.8129l6.3663 0.2625s2.6086-3.4658 2.8161-5.5213c0.27362-2.7116-0.43406-5.7901-2.1848-7.8788-1.8724-2.2338-4.9906-3.4607-7.8886-3.7725-2.9733-0.31987-8.7316 2.0604-8.7316 2.0604z" fill="url(#linearGradient1662)"/>
      <path transform="matrix(.23082 0 0 .23082 1.6882 1.6882)" d="m664.7 354.47 48.646 77.781 11.617-18.182-37.029-56.064z" fill="#c7c7c7"/>
      <path transform="matrix(.23082 0 0 .23082 1.6882 1.6882)" d="m814.57 498.08 127.18 0.2539-27.273-22.982h-81.727z" fill="#b6b6b6"/>
      <path transform="matrix(.23082 0 0 .23082 1.6882 1.6882)" d="m713.35 432.25s31.134-0.4864 45.398 4.8125c14.402 5.3498 27.753 14.698 37.891 26.242 8.6067 9.8008 17.936 34.777 17.936 34.777l18.182-22.729s-17.091-25.702-28.541-35.787c-9.4678-8.3392-20.421-15.527-32.336-19.676-14.881-5.1816-46.912-5.8223-46.912-5.8223z" fill="url(#linearGradient1664)"/>
      <path transform="matrix(.23082 0 0 .23082 1.6882 1.6882)" d="m635.6 270.82c-1.1241 0.0257-2.2418 0.0781-3.3516 0.1582-13.628 0.98356-36.818 18.018-36.818 18.018s24.947-10.312 37.828-8.9258c12.555 1.3507 26.064 6.6661 34.176 16.344 7.585 9.0489 10.652 22.385 9.4668 34.133-0.89867 8.9055-12.201 23.922-12.201 23.922l23.234 3.5352s12.489-20.589 12.199-32.002c-0.35742-14.085-6.5742-29.248-17.041-38.68-12.399-11.172-30.631-16.887-47.492-16.502z" fill="url(#linearGradient1666)"/>
     </g>
     <g transform="matrix(-1 0 0 1 267.43 5.5397)">
      <path d="m139.13 68.394s7.9796-1.1651 11.064 0.87814c1.9291 1.2781 3.2696 3.8455 3.2041 6.1586-0.0858 3.0286-4.645 7.8129-4.645 7.8129l14.801 23.653s6.3532-1.0226 9.3297-0.12066c3.4824 1.0552 6.9066 3.2007 9.0012 6.1762 1.7756 2.5223 2.355 8.9492 2.355 8.9492h41.122c4.3796-22.429-8.3198-54.22-53.522-53.492 27.654 6.3898 42.585 22.258 40.933 42.999h-18.864s-3.9452-5.9326-6.5882-8.2605c-2.1854-1.9248-4.7131-3.5839-7.4634-4.5416-3.4349-1.196-10.557-0.80161-10.828-1.3439-0.40091-0.80181-8.5473-12.941-8.5473-12.941s2.883-4.7524 2.8161-7.3866c-0.0825-3.251-1.5176-6.7511-3.9335-8.928-3.0526-2.7506-7.6374-4.0682-11.736-3.7725-3.1456 0.22702-8.4984 4.1589-8.4984 4.1589z" fill="#a8a8a8"/>
      <path d="m139.13 68.394s7.9796-1.1651 11.064 0.87814c1.9291 1.2781 3.2696 3.8455 3.2041 6.1586-0.0858 3.0286-4.645 7.8129-4.645 7.8129l14.801 23.653s6.3532-1.0226 9.3297-0.12066c3.4824 1.0552 6.9066 3.2007 9.0012 6.1762 1.7756 2.5223 2.355 8.9492 2.355 8.9492h41.122l-6.2935-5.1882-29.356-0.0583s-2.1534-5.7651-4.14-8.0274c-2.3399-2.6646-5.4216-4.8223-8.7458-6.0571-3.2926-1.2231-10.479-1.1108-10.479-1.1108l-11.229-17.954s2.6086-3.4658 2.8161-5.5213c0.27362-2.7116-0.43406-5.7901-2.1848-7.8788-1.8724-2.2338-4.9906-3.4607-7.8886-3.7725-2.9733-0.31987-8.7316 2.0604-8.7316 2.0604z" fill="#636363"/>
      <path d="m225.36 121.9c4.3796-22.429-8.3198-54.22-53.522-53.492 41.411 5.224 48.88 27.563 47.229 48.303 0 0 6.2935 5.1882 6.2935 5.1882z" fill="url(#linearGradient1668)"/>
      <path transform="matrix(.23082 0 0 .23082 1.6882 1.6882)" d="m737.14 289.06c119.81 27.683 184.49 96.431 177.34 186.29l27.273 22.982c6.8503-89.594-25.836-186.72-204.61-209.27z" fill="url(#linearGradient1670)"/>
      <path d="m163.55 106.9s6.3532-1.0226 9.3297-0.12066c3.4824 1.0552 6.9066 3.2007 9.0012 6.1762 1.7756 2.5223 2.355 8.9492 2.355 8.9492l5.4722-5.2465s-2.1534-5.7651-4.14-8.0274c-2.3399-2.6646-5.4216-4.8223-8.7458-6.0571-3.2926-1.2231-10.479-1.1108-10.479-1.1108z" fill="url(#linearGradient1672)"/>
      <path d="m139.13 68.394s7.9796-1.1651 11.064 0.87814c1.9291 1.2781 3.2696 3.8455 3.2041 6.1586-0.0858 3.0286-4.645 7.8129-4.645 7.8129l14.801 23.653 2.7937-5.437-11.229-17.954s2.6086-3.4658 2.8161-5.5213c0.27362-2.7116-0.43406-5.7901-2.1848-7.8788-1.8724-2.2338-4.9906-3.4607-7.8886-3.7725-2.9733-0.31987-8.7316 2.0604-8.7316 2.0604z" fill="#949494"/>
      <path d="m139.13 68.394s7.9796-1.1651 11.064 0.87814c1.9291 1.2781 3.2696 3.8455 3.2041 6.1586-0.0858 3.0286-4.645 7.8129-4.645 7.8129l6.3663 0.2625s2.6086-3.4658 2.8161-5.5213c0.27362-2.7116-0.43406-5.7901-2.1848-7.8788-1.8724-2.2338-4.9906-3.4607-7.8886-3.7725-2.9733-0.31987-8.7316 2.0604-8.7316 2.0604z" fill="url(#linearGradient1674)"/>
      <path transform="matrix(.23082 0 0 .23082 1.6882 1.6882)" d="m664.7 354.47 48.646 77.781 11.617-18.182-37.029-56.064z" fill="#828282"/>
      <path transform="matrix(.23082 0 0 .23082 1.6882 1.6882)" d="m814.57 498.08 127.18 0.2539-27.273-22.982h-81.727z" fill="#b6b6b6"/>
      <path transform="matrix(.23082 0 0 .23082 1.6882 1.6882)" d="m713.35 432.25s31.134-0.4864 45.398 4.8125c14.402 5.3498 27.753 14.698 37.891 26.242 8.6067 9.8008 17.936 34.777 17.936 34.777l18.182-22.729s-17.091-25.702-28.541-35.787c-9.4678-8.3392-20.421-15.527-32.336-19.676-14.881-5.1816-46.912-5.8223-46.912-5.8223z" fill="url(#linearGradient1664)"/>
      <path transform="matrix(.23082 0 0 .23082 1.6882 1.6882)" d="m635.6 270.82c-1.1241 0.0257-2.2418 0.0781-3.3516 0.1582-13.628 0.98356-36.818 18.018-36.818 18.018s24.947-10.312 37.828-8.9258c12.555 1.3507 26.064 6.6661 34.176 16.344 7.585 9.0489 10.652 22.385 9.4668 34.133-0.89867 8.9055-12.201 23.922-12.201 23.922l23.234 3.5352s12.489-20.589 12.199-32.002c-0.35742-14.085-6.5742-29.248-17.041-38.68-12.399-11.172-30.631-16.887-47.492-16.502z" fill="url(#linearGradient1678)"/>
     </g>
    </g>
   </g>
  </g>
  <g>
   <g transform="matrix(1.0401 0 0 1.0401 -5.3108 -13.064)" stroke-width=".371" aria-label="OCARINA OF TIME">
    <path d="m57.133 76.893q0.63765 0 1.1038 0.48548 0.46858 0.48307 0.46858 1.2077 0 0.74634-0.47099 1.2391-0.47099 0.49273-1.14 0.49273-0.6763 0-1.1376-0.48065-0.45892-0.48065-0.45892-1.2439 0-0.78016 0.53138-1.2729 0.46133-0.42752 1.1038-0.42752zm-0.04589 0.17632q-0.43959 0-0.70528 0.32607-0.3309 0.40578-0.3309 1.1884 0 0.8019 0.34298 1.2342 0.26327 0.32849 0.69562 0.32849 0.46133 0 0.76084-0.35989 0.30192-0.35989 0.30192-1.1352 0-0.84054-0.3309-1.2536-0.26569-0.32849-0.73427-0.32849z"/>
    <path d="m61.877 76.893 0.07488 1.1135h-0.07488q-0.14975-0.49998-0.42752-0.71977t-0.66664-0.2198q-0.32607 0-0.58934 0.16666-0.26327 0.16424-0.41544 0.52655-0.14975 0.3623-0.14975 0.90092 0 0.44442 0.14251 0.7705 0.1425 0.32607 0.42752 0.49998 0.28743 0.1739 0.65456 0.1739 0.31882 0 0.56278-0.13526 0.24395-0.13767 0.53621-0.54345l0.07488 0.04831q-0.24637 0.43718-0.57485 0.64007-0.32849 0.20289-0.78016 0.20289-0.81397 0-1.2608-0.60384-0.33332-0.44926-0.33332-1.0579 0-0.49032 0.2198-0.90092 0.2198-0.41061 0.60384-0.63524 0.38646-0.22704 0.84296-0.22704 0.35506 0 0.70045 0.1739 0.10144 0.05314 0.14492 0.05314 0.06521 0 0.11352-0.04589 0.0628-0.06521 0.08937-0.18115z"/>
    <path d="m64.466 79.147h-1.2681l-0.22221 0.51688q-0.08212 0.19081-0.08212 0.28501 0 0.07488 0.07005 0.13284 0.07246 0.05555 0.30916 0.07246v0.08937h-1.0314v-0.08937q0.2053-0.03623 0.26569-0.0942 0.12318-0.11594 0.27293-0.47099l1.1521-2.6955h0.08454l1.14 2.7245q0.13767 0.32849 0.24878 0.42752 0.11352 0.09661 0.314 0.10869v0.08937h-1.2922v-0.08937q0.19564-0.0097 0.26327-0.06521 0.07004-0.05555 0.07004-0.13526 0-0.10628-0.09661-0.33573zm-0.06763-0.17874-0.55553-1.3236-0.57002 1.3236z"/>
    <path d="m69.12 80.243h-0.87436l-1.1086-1.5313q-0.12318 0.0048-0.20047 0.0048-0.0314 0-0.06763 0-0.03623-0.0024-0.07488-0.0048v0.95165q0 0.30916 0.06763 0.38404 0.09178 0.10628 0.27535 0.10628h0.12801v0.08937h-1.4033v-0.08937h0.12318q0.20772 0 0.29709-0.13526 0.05072-0.07487 0.05072-0.35506v-2.1158q0-0.30916-0.06763-0.38404-0.0942-0.10628-0.28018-0.10628h-0.12318v-0.08937h1.1932q0.52172 0 0.76808 0.07729 0.24878 0.07488 0.42027 0.28018 0.1739 0.20289 0.1739 0.48548 0 0.30192-0.19806 0.52413-0.19564 0.22221-0.60867 0.314l0.6763 0.93957q0.23187 0.32366 0.39853 0.42993 0.16666 0.10628 0.43476 0.13526zm-2.326-1.6835q0.04589 0 0.07971 0.0024 0.03382 0 0.05555 0 0.46858 0 0.70528-0.20289 0.23912-0.20289 0.23912-0.51688 0-0.30675-0.19323-0.49756-0.19081-0.19323-0.50722-0.19323-0.14009 0-0.37921 0.04589z"/>
    <path d="m70.608 80.154v0.08937h-1.4033v-0.08937h0.11594q0.20289 0 0.29467-0.11835 0.05797-0.07729 0.05797-0.37196v-2.1158q0-0.24878-0.0314-0.32849-0.02415-0.06038-0.09903-0.10386-0.10628-0.05797-0.22221-0.05797h-0.11594v-0.08937h1.4033v0.08937h-0.11835q-0.20047 0-0.29226 0.11835-0.06038 0.07729-0.06038 0.37196v2.1158q0 0.24878 0.0314 0.32849 0.02415 0.06038 0.10144 0.10386 0.10386 0.05797 0.2198 0.05797z"/>
    <path d="m70.669 76.968h0.88885l2.0023 2.4564v-1.8888q0-0.30192-0.06763-0.3768-0.08937-0.10144-0.2826-0.10144h-0.11352v-0.08937h1.14v0.08937h-0.11594q-0.20772 0-0.29467 0.1256-0.05314 0.07729-0.05314 0.35264v2.7607h-0.08695l-2.1593-2.6376v2.0168q0 0.30192 0.06521 0.37679 0.09178 0.10144 0.2826 0.10144h0.11594v0.08937h-1.14v-0.08937h0.11352q0.21014 0 0.29709-0.1256 0.05314-0.07729 0.05314-0.35264v-2.2777q-0.1425-0.16666-0.21738-0.2198-0.07246-0.05314-0.21497-0.09903-0.07004-0.02174-0.21255-0.02174z"/>
    <path d="m76.572 79.147h-1.2681l-0.22221 0.51688q-0.08212 0.19081-0.08212 0.28501 0 0.07488 0.07005 0.13284 0.07246 0.05555 0.30916 0.07246v0.08937h-1.0314v-0.08937q0.2053-0.03623 0.26569-0.0942 0.12318-0.11594 0.27294-0.47099l1.1521-2.6955h0.08454l1.14 2.7245q0.13768 0.32849 0.24878 0.42752 0.11352 0.09661 0.314 0.10869v0.08937h-1.2922v-0.08937q0.19564-0.0097 0.26327-0.06521 0.07004-0.05555 0.07004-0.13526 0-0.10628-0.09661-0.33573zm-0.06763-0.17874-0.55553-1.3236-0.57002 1.3236z"/>
    <path d="m80.658 76.893q0.63765 0 1.1038 0.48548 0.46858 0.48307 0.46858 1.2077 0 0.74634-0.47099 1.2391-0.47099 0.49273-1.14 0.49273-0.6763 0-1.1376-0.48065-0.45892-0.48065-0.45892-1.2439 0-0.78016 0.53138-1.2729 0.46133-0.42752 1.1038-0.42752zm-0.04589 0.17632q-0.43959 0-0.70528 0.32607-0.3309 0.40578-0.3309 1.1884 0 0.8019 0.34298 1.2342 0.26327 0.32849 0.69562 0.32849 0.46133 0 0.76084-0.35989 0.30192-0.35989 0.30192-1.1352 0-0.84054-0.3309-1.2536-0.26569-0.32849-0.73427-0.32849z"/>
    <path d="m83.436 77.147v1.2874h0.59659q0.2053 0 0.2995-0.08937 0.09661-0.09178 0.12801-0.35989h0.08937v1.1086h-0.08937q-0.0024-0.19081-0.05072-0.28018-0.04589-0.08937-0.13043-0.13284-0.08212-0.04589-0.24637-0.04589h-0.59659v1.0289q0 0.24878 0.0314 0.32849 0.02415 0.06038 0.10144 0.10386 0.10628 0.05797 0.22221 0.05797h0.11835v0.08937h-1.4057v-0.08937h0.11594q0.20289 0 0.29467-0.11835 0.05797-0.07729 0.05797-0.37196v-2.1158q0-0.24878-0.0314-0.32849-0.02415-0.06038-0.09903-0.10386-0.10386-0.05797-0.22221-0.05797h-0.11594v-0.08937h2.4371l0.0314 0.71977h-0.08454q-0.0628-0.22946-0.14734-0.33573-0.08212-0.10869-0.2053-0.157-0.12077-0.04831-0.37679-0.04831z"/>
    <path d="m89.189 76.968 0.03623 0.76808h-0.09178q-0.02657-0.20289-0.07246-0.28984-0.07488-0.14009-0.20047-0.2053-0.12318-0.06763-0.32607-0.06763h-0.46133v2.5023q0 0.30192 0.06521 0.37679 0.09178 0.10144 0.2826 0.10144h0.11352v0.08937h-1.3888v-0.08937h0.11594q0.20772 0 0.29467-0.1256 0.05314-0.07729 0.05314-0.35264v-2.5023h-0.3937q-0.22946 0-0.32607 0.03381-0.1256 0.04589-0.21497 0.17632-0.08937 0.13043-0.10628 0.35264h-0.09178l0.03865-0.76808z"/>
    <path d="m90.878 80.154v0.08937h-1.4033v-0.08937h0.11594q0.20289 0 0.29467-0.11835 0.05797-0.07729 0.05797-0.37196v-2.1158q0-0.24878-0.0314-0.32849-0.02415-0.06038-0.09903-0.10386-0.10628-0.05797-0.22221-0.05797h-0.11594v-0.08937h1.4033v0.08937h-0.11835q-0.20047 0-0.29226 0.11835-0.06038 0.07729-0.06038 0.37196v2.1158q0 0.24878 0.0314 0.32849 0.02415 0.06038 0.10144 0.10386 0.10386 0.05797 0.2198 0.05797z"/>
    <path d="m93.027 80.243-1.2656-2.7559v2.1883q0 0.30192 0.06521 0.37679 0.08937 0.10144 0.2826 0.10144h0.11594v0.08937h-1.14v-0.08937h0.11594q0.20772 0 0.29467-0.1256 0.05314-0.07729 0.05314-0.35264v-2.14q0-0.21738-0.04831-0.314-0.03382-0.07005-0.1256-0.11594-0.08937-0.04831-0.28984-0.04831v-0.08937h0.92749l1.1884 2.5627 1.169-2.5627h0.92749v0.08937h-0.11352q-0.21014 0-0.29709 0.1256-0.05314 0.07729-0.05314 0.35264v2.14q0 0.30192 0.06763 0.37679 0.08937 0.10144 0.2826 0.10144h0.11352v0.08937h-1.3912v-0.08937h0.11594q0.21014 0 0.29467-0.1256 0.05314-0.07729 0.05314-0.35264v-2.1883l-1.2632 2.7559z"/>
    <path d="m96.433 77.147v1.2946h0.71977q0.28018 0 0.37438-0.08454 0.1256-0.11111 0.14009-0.39129h0.08937v1.14h-0.08937q-0.03382-0.23912-0.06763-0.30675-0.04348-0.08454-0.14251-0.13284-0.09903-0.04831-0.30433-0.04831h-0.71977v1.0797q0 0.21738 0.01932 0.26569 0.01932 0.04589 0.06763 0.07488 0.04831 0.02657 0.18357 0.02657h0.55553q0.27776 0 0.40336-0.03865t0.24154-0.15217q0.14975-0.14975 0.30675-0.45167h0.09661l-0.2826 0.82122h-2.524v-0.08937h0.11594q0.11594 0 0.2198-0.05555 0.07729-0.03865 0.10386-0.11594 0.02898-0.07729 0.02898-0.31641v-2.1279q0-0.31158-0.0628-0.38404-0.08695-0.09661-0.28984-0.09661h-0.11594v-0.08937h2.524l0.03623 0.71736h-0.0942q-0.05072-0.25844-0.11352-0.35506-0.06038-0.09661-0.18115-0.14734-0.09661-0.03623-0.34056-0.03623z"/>
   </g>
   <g transform="matrix(.97768 0 0 .97768 .065074 -8.9893)" stroke-width=".28414" aria-label="THE LEGEND OF">
    <path d="m63.578 49.422 0.02775 0.58827h-0.0703q-0.02035-0.15539-0.0555-0.22199-0.05735-0.10729-0.15354-0.15724-0.09435-0.0518-0.24974-0.0518h-0.35333v1.9165q0 0.23124 0.04995 0.28858 0.0703 0.0777 0.21644 0.0777h0.08695v0.06845h-1.0637v-0.06845h0.0888q0.15909 0 0.22569-0.0962 0.0407-0.0592 0.0407-0.27008v-1.9165h-0.30153q-0.17574 0-0.24974 0.0259-0.09619 0.03515-0.16464 0.13504-0.06845 0.09989-0.0814 0.27008h-0.0703l0.0296-0.58827z"/>
    <path d="m64.481 50.585h1.1654v-0.71776q0-0.19239-0.02405-0.25344-0.0185-0.04625-0.0777-0.07955-0.07955-0.0444-0.16834-0.0444h-0.0888v-0.06845h1.0729v0.06845h-0.0888q-0.08879 0-0.16834 0.04255-0.0592 0.0296-0.0814 0.09065-0.02035 0.0592-0.02035 0.24419v1.6187q0 0.19054 0.02405 0.25159 0.0185 0.04625 0.07585 0.07954 0.0814 0.0444 0.17019 0.0444h0.0888v0.06845h-1.0729v-0.06845h0.0888q0.15354 0 0.22384-0.09064 0.04625-0.0592 0.04625-0.28488v-0.76401h-1.1654v0.76401q0 0.19054 0.02405 0.25159 0.0185 0.04625 0.0777 0.07954 0.07955 0.0444 0.16834 0.0444h0.09064v0.06845h-1.0748v-0.06845h0.0888q0.15539 0 0.22569-0.09064 0.0444-0.0592 0.0444-0.28488v-1.6187q0-0.19239-0.02405-0.25344-0.0185-0.04625-0.07585-0.07955-0.0814-0.0444-0.17019-0.0444h-0.0888v-0.06845h1.0748v0.06845h-0.09064q-0.0888 0-0.16834 0.04255-0.05735 0.0296-0.07955 0.09065-0.0222 0.0592-0.0222 0.24419z"/>
    <path d="m67.231 49.559v0.99154h0.55127q0.21459 0 0.28673-0.06475 0.09619-0.0851 0.10729-0.29968h0.06845v0.87315h-0.06845q-0.0259-0.18314-0.0518-0.23494-0.0333-0.06475-0.10914-0.10174-0.07585-0.037-0.23309-0.037h-0.55127v0.8269q0 0.16649 0.0148 0.20349 0.0148 0.03515 0.0518 0.05735 0.037 0.02035 0.14059 0.02035h0.42548q0.21274 0 0.30893-0.0296 0.09619-0.0296 0.18499-0.11654 0.11469-0.11469 0.23494-0.34593h0.074l-0.21644 0.62896h-1.9331v-0.06845h0.0888q0.0888 0 0.16834-0.04255 0.0592-0.0296 0.07954-0.0888 0.0222-0.0592 0.0222-0.24234v-1.6298q0-0.23864-0.0481-0.29413-0.0666-0.074-0.22199-0.074h-0.0888v-0.06845h1.9331l0.02775 0.54942h-0.07215q-0.03885-0.19794-0.08695-0.27194-0.04625-0.074-0.13874-0.11284-0.074-0.02775-0.26084-0.02775z"/>
    <path d="m71.875 51.237 0.06105 0.01295-0.21459 0.68076h-1.9424v-0.06845h0.09435q0.15909 0 0.22754-0.10359 0.03885-0.0592 0.03885-0.27378v-1.6187q0-0.23494-0.0518-0.29413-0.07215-0.0814-0.21459-0.0814h-0.09435v-0.06845h1.1358v0.06845q-0.19979-0.0018-0.28118 0.037-0.07955 0.03885-0.10914 0.09804-0.0296 0.0592-0.0296 0.28303v1.5761q0 0.15354 0.0296 0.21089 0.0222 0.03885 0.06845 0.05735t0.28858 0.0185h0.18314q0.28858 0 0.40513-0.04255 0.11654-0.04255 0.21274-0.14984 0.0962-0.10914 0.19239-0.34223z"/>
    <path d="m72.811 49.559v0.99154h0.55127q0.21459 0 0.28673-0.06475 0.09619-0.0851 0.10729-0.29968h0.06845v0.87315h-0.06845q-0.0259-0.18314-0.0518-0.23494-0.0333-0.06475-0.10914-0.10174-0.07585-0.037-0.23309-0.037h-0.55127v0.8269q0 0.16649 0.0148 0.20349 0.0148 0.03515 0.0518 0.05735 0.037 0.02035 0.14059 0.02035h0.42548q0.21274 0 0.30893-0.0296 0.09619-0.0296 0.18499-0.11654 0.11469-0.11469 0.23494-0.34593h0.074l-0.21644 0.62896h-1.9331v-0.06845h0.0888q0.0888 0 0.16834-0.04255 0.0592-0.0296 0.07955-0.0888 0.0222-0.0592 0.0222-0.24234v-1.6298q0-0.23864-0.0481-0.29413-0.0666-0.074-0.22199-0.074h-0.0888v-0.06845h1.9331l0.02775 0.54942h-0.07215q-0.03885-0.19794-0.08695-0.27194-0.04625-0.074-0.13874-0.11284-0.074-0.02775-0.26084-0.02775z"/>
    <path d="m76.66 49.365 0.06475 0.79176h-0.06475q-0.09804-0.29598-0.25344-0.44583-0.22384-0.21644-0.57532-0.21644-0.47912 0-0.72886 0.37923-0.20904 0.32003-0.20904 0.76216 0 0.35888 0.13874 0.65486 0.13874 0.29598 0.36258 0.43473 0.22569 0.13689 0.46248 0.13689 0.13874 0 0.26824-0.03515t0.24974-0.10359v-0.72516q0-0.18869-0.0296-0.24604-0.02775-0.0592-0.0888-0.0888-0.0592-0.03145-0.21089-0.03145v-0.0703h0.9712v0.0703h-0.04625q-0.14429 0-0.19794 0.0962-0.037 0.06845-0.037 0.27008v0.76771q-0.21274 0.11469-0.41993 0.16834-0.20719 0.05365-0.46062 0.05365-0.72701 0-1.1044-0.46617-0.28303-0.34963-0.28303-0.80656 0-0.33113 0.15909-0.63452 0.18869-0.36073 0.51797-0.55497 0.27564-0.16094 0.65116-0.16094 0.13689 0 0.24789 0.0222 0.11284 0.0222 0.31818 0.09804 0.10359 0.03885 0.13874 0.03885 0.03515 0 0.0592-0.03145 0.0259-0.0333 0.03145-0.12764z"/>
    <path d="m77.865 49.559v0.99154h0.55127q0.21459 0 0.28673-0.06475 0.09619-0.0851 0.10729-0.29968h0.06845v0.87315h-0.06845q-0.0259-0.18314-0.0518-0.23494-0.0333-0.06475-0.10914-0.10174-0.07585-0.037-0.23309-0.037h-0.55127v0.8269q0 0.16649 0.0148 0.20349 0.0148 0.03515 0.0518 0.05735 0.037 0.02035 0.14059 0.02035h0.42548q0.21274 0 0.30893-0.0296 0.09619-0.0296 0.18499-0.11654 0.11469-0.11469 0.23494-0.34593h0.074l-0.21644 0.62897h-1.9331v-0.06845h0.08879q0.0888 0 0.16834-0.04255 0.0592-0.0296 0.07955-0.0888 0.0222-0.0592 0.0222-0.24234v-1.6298q0-0.23864-0.0481-0.29413-0.0666-0.074-0.22199-0.074h-0.08879v-0.06845h1.9331l0.02775 0.54942h-0.07215q-0.03885-0.19794-0.08695-0.27194-0.04625-0.074-0.13874-0.11284-0.074-0.02775-0.26084-0.02775z"/>
    <path d="m79.339 49.422h0.68076l1.5336 1.8813v-1.4466q0-0.23124-0.0518-0.28858-0.06845-0.0777-0.21644-0.0777h-0.08695v-0.06845h0.87315v0.06845h-0.0888q-0.15909 0-0.22569 0.0962-0.0407 0.0592-0.0407 0.27008v2.1144h-0.0666l-1.6538-2.0201v1.5447q0 0.23124 0.04995 0.28858 0.0703 0.0777 0.21644 0.0777h0.0888v0.06845h-0.87315v-0.06845h0.08695q0.16094 0 0.22754-0.0962 0.0407-0.0592 0.0407-0.27008v-1.7445q-0.10914-0.12764-0.16649-0.16834-0.0555-0.0407-0.16464-0.07584-0.05365-0.01665-0.16279-0.01665z"/>
    <path d="m82.191 51.93v-0.06845h0.09434q0.15909 0 0.22569-0.10174 0.0407-0.06105 0.0407-0.27378v-1.6205q0-0.23494-0.0518-0.29413-0.07215-0.0814-0.21459-0.0814h-0.09434v-0.06845h1.0211q0.56237 0 0.85465 0.12764 0.29413 0.12764 0.47172 0.42548 0.17944 0.29783 0.17944 0.68816 0 0.52352-0.31818 0.875-0.35703 0.39218-1.0877 0.39218zm0.71591-0.18129q0.23494 0.0518 0.39403 0.0518 0.42918 0 0.71221-0.30153 0.28303-0.30153 0.28303-0.81766 0-0.51982-0.28303-0.8195-0.28304-0.29968-0.72701-0.29968-0.16649 0-0.37923 0.05365z"/>
    <path d="m87.197 49.365q0.48837 0 0.8454 0.37183 0.35888 0.36998 0.35888 0.92495 0 0.57162-0.36073 0.949t-0.87315 0.37738q-0.51797 0-0.8713-0.36813-0.35148-0.36813-0.35148-0.9527 0-0.59752 0.40698-0.9749 0.35333-0.32743 0.8454-0.32743zm-0.03515 0.13504q-0.33668 0-0.54017 0.24974-0.25344 0.31078-0.25344 0.91015 0 0.61417 0.26268 0.9453 0.20164 0.25159 0.53277 0.25159 0.35333 0 0.58272-0.27563 0.23124-0.27564 0.23124-0.86945 0-0.64376-0.25344-0.9601-0.20349-0.25159-0.56237-0.25159z"/>
    <path d="m89.325 49.559v0.986h0.45692q0.15724 0 0.22939-0.06845 0.074-0.0703 0.09804-0.27564h0.06845v0.8491h-0.06845q-0.0019-0.14614-0.03885-0.21459-0.03515-0.06845-0.0999-0.10174-0.0629-0.03515-0.18869-0.03515h-0.45692v0.78806q0 0.19054 0.02405 0.25159 0.0185 0.04625 0.0777 0.07954 0.0814 0.0444 0.17019 0.0444h0.09064v0.06845h-1.0766v-0.06845h0.0888q0.15539 0 0.22569-0.09064 0.0444-0.0592 0.0444-0.28488v-1.6205q0-0.19054-0.02405-0.25159-0.0185-0.04625-0.07585-0.07955-0.07954-0.0444-0.17019-0.0444h-0.0888v-0.06845h1.8665l0.02405 0.55127h-0.06475q-0.0481-0.17574-0.11284-0.25714-0.0629-0.08325-0.15724-0.12024-0.09249-0.037-0.28858-0.037z"/>
   </g>
   <g transform="matrix(1.0388 0 0 1.0388 7.5094 24.911)" enable-background="new">
    <path d="m23.691 15.127-1.4371 7.329 4.262-5.3205h9.4713l-13.37 27.322h17.34l1.4371-7.329-4.262 5.3205h-9.4713l13.37-27.322zm13.221 4.3491-3.2146 8.7854-1.4297 0.63107 0.45609 1.3433-1.3433 0.45609 0.36926 1.5183-5.0139 7.8978 3.2146-8.7854 1.4301-0.63064-0.45609-1.3437 1.3433-0.45565-0.3697-1.5187z" enable-background="new"/>
    <path d="m51.039 26.009-2.7326-6.9635h-4.3667v8.7598h2.6619l1.3097-2.3704v6.7491l-1.3097-2.3704h-2.6619v8.7598h4.3667l2.7326-6.9635v8.1792h-11.471l1.4743-1.545v-18.869l-1.4743-1.545h11.471z"/>
    <path d="m50.51 17.83 1.4743 1.5446v18.87l-1.4743 1.5451h11.471v-8.1793l-2.7327 6.9634h-4.3667l0.08217-19.199 1.4743-1.5446z"/>
    <path d="m61.473 17.828 0.0155 0.01654-0.03152-0.0088 1.4743 1.5446c2.6e-5 6.2884 0.0088 12.577-0.01498 18.865l-1.4847 1.5441h0.03049l-0.0052 0.0057s3.643 0.0081 5.4637 0.01497c5.828 0.02196 7.3272-6.5636 7.3205-10.978 0.02336-4.414-1.4511-11.004-7.2791-11.004zm4.3853 1.2196c4.369 0 6.1504 5.922 6.1417 9.7808-0.0058 3.8588-1.81 9.7745-6.179 9.7581 0.02858-6.6615 0.03687-13.538 0.03723-19.539z"/>
    <path d="m75.714 17.83 1.4743 1.5446h0.0062l-5.0524 18.87-1.4743 1.5451h4.7873l-1.4743-1.5451 1.5503-5.5335h5.5573l1.3736 5.5666-1.4743 1.5446h5.3986l-1.4743-1.5446-5.5464-20.447h-1.7575zm2.4293 4.5759 2.4877 8.5928h-4.669z"/>
   </g>
  </g>
  <g transform="matrix(1.0388 0 0 1.0388 6.4763 24.253)" enable-background="new" fill="#ce1313">
   <path d="m23.691 15.127-1.4371 7.329 4.262-5.3205h9.4713l-13.37 27.322h17.34l1.4371-7.329-4.262 5.3205h-9.4713l13.37-27.322zm13.221 4.3491-3.2146 8.7854-1.4297 0.63107 0.45609 1.3433-1.3433 0.45609 0.36926 1.5183-5.0139 7.8978 3.2146-8.7854 1.4301-0.63064-0.45609-1.3437 1.3433-0.45565-0.3697-1.5187z" enable-background="new"/>
   <path d="m51.039 26.009-2.7326-6.9635h-4.3667v8.7598h2.6619l1.3097-2.3704v6.7491l-1.3097-2.3704h-2.6619v8.7598h4.3667l2.7326-6.9635v8.1792h-11.471l1.4743-1.545v-18.869l-1.4743-1.545h11.471z"/>
   <path d="m50.51 17.83 1.4743 1.5446v18.87l-1.4743 1.5451h11.471v-8.1793l-2.7327 6.9634h-4.3667l0.08217-19.199 1.4743-1.5446z"/>
   <path d="m61.473 17.828 0.0155 0.01654-0.03152-0.0088 1.4743 1.5446c2.6e-5 6.2884 0.0088 12.577-0.01498 18.865l-1.4847 1.5441h0.03049l-0.0052 0.0057s3.643 0.0081 5.4637 0.01497c5.828 0.02196 7.3272-6.5636 7.3205-10.978 0.02336-4.414-1.4511-11.004-7.2791-11.004zm4.3853 1.2196c4.369 0 6.1504 5.922 6.1417 9.7808-0.0058 3.8588-1.81 9.7745-6.179 9.7581 0.02858-6.6615 0.03687-13.538 0.03723-19.539z"/>
   <path d="m75.714 17.83 1.4743 1.5446h0.0062l-5.0524 18.87-1.4743 1.5451h4.7873l-1.4743-1.5451 1.5503-5.5335h5.5573l1.3736 5.5666-1.4743 1.5446h5.3986l-1.4743-1.5446-5.5464-20.447h-1.7575zm2.4293 4.5759 2.4877 8.5928h-4.669z"/>
  </g>
 </g>
</svg>
