<?xml version="1.0" encoding="UTF-8" standalone="no"?>
<!-- Created with Inkscape (http://www.inkscape.org/) -->

<svg
   xmlns:dc="http://purl.org/dc/elements/1.1/"
   xmlns:cc="http://creativecommons.org/ns#"
   xmlns:rdf="http://www.w3.org/1999/02/22-rdf-syntax-ns#"
   xmlns:svg="http://www.w3.org/2000/svg"
   xmlns="http://www.w3.org/2000/svg"
   xmlns:sodipodi="http://sodipodi.sourceforge.net/DTD/sodipodi-0.dtd"
   xmlns:inkscape="http://www.inkscape.org/namespaces/inkscape"
   width="1000"
   height="1000"
   viewBox="0 0 264.58333 264.58334"
   version="1.1"
   id="svg8"
   inkscape:version="0.92.4 (5da689c313, 2019-01-14)"
   sodipodi:docname="grotto.svg">
  <defs
     id="defs2" />
  <sodipodi:namedview
     id="base"
     pagecolor="#ffffff"
     bordercolor="#666666"
     borderopacity="1.0"
     inkscape:pageopacity="0.0"
     inkscape:pageshadow="2"
     inkscape:zoom="0.49497476"
     inkscape:cx="419.87174"
     inkscape:cy="556.19132"
     inkscape:document-units="px"
     inkscape:current-layer="layer1"
     showgrid="false"
     units="px"
     inkscape:window-width="1920"
     inkscape:window-height="1137"
     inkscape:window-x="1272"
     inkscape:window-y="-8"
     inkscape:window-maximized="1" />
  <metadata
     id="metadata5">
    <rdf:RDF>
      <cc:Work
         rdf:about="">
        <dc:format>image/svg+xml</dc:format>
        <dc:type
           rdf:resource="http://purl.org/dc/dcmitype/StillImage" />
        <dc:title></dc:title>
      </cc:Work>
    </rdf:RDF>
  </metadata>
  <g
     inkscape:label="Ebene 1"
     inkscape:groupmode="layer"
     id="layer1"
     transform="translate(0,-32.41665)">
    <path
       style="fill:#301901;fill-opacity:1;stroke:#000000;stroke-width:0.35914984px;stroke-linecap:butt;stroke-linejoin:miter;stroke-opacity:1"
       d="m 14.220998,232.63694 25.657873,-16.74382 c 0,0 6.414468,-44.32191 12.294399,-50.23149 5.879928,-5.90959 29.934185,-55.15615 29.934185,-55.15615 L 136.63043,85.882188 c 0,0 59.86838,-24.623264 64.67923,-18.713684 4.81085,5.909591 29.39964,62.050666 29.39964,62.050666 l 3.74178,76.82464 16.03617,38.41231 -87.66441,18.7055 -113.322267,-14.76577 z"
       id="path814"
       inkscape:connector-curvature="0"
       sodipodi:nodetypes="cccccccccccc" />
    <path
       style="opacity:1;fill:#000000;fill-opacity:1;fill-rule:nonzero;stroke:none;stroke-width:21.76679039;stroke-linecap:round;stroke-linejoin:miter;stroke-miterlimit:4;stroke-dasharray:none;stroke-opacity:1;paint-order:markers stroke fill"
       d="m 224.82938,172.80245 c 0,24.7015 -3.36465,77.73042 -3.36465,77.73042 l -58.64189,12.62875 -43.5892,-5.79559 c 0,0 -2.11388,-68.57723 -2.11388,-86.85984 0,-22.50001 13.05763,-52.3739 25.41718,-67.39383 13.17168,-16.006852 26.13098,-16.434812 41.13294,-16.434812 13.39116,0 20.00205,19.799772 29.29351,32.960382 10.88498,15.41768 11.86599,28.08989 11.86599,53.16452 z"
       id="path816"
       inkscape:connector-curvature="0"
       sodipodi:nodetypes="scccsssss" />
  </g>
</svg>
