<?xml version="1.0" encoding="UTF-8" standalone="no"?>
<!-- Created with Inkscape (http://www.inkscape.org/) -->

<svg
   xmlns:dc="http://purl.org/dc/elements/1.1/"
   xmlns:cc="http://creativecommons.org/ns#"
   xmlns:rdf="http://www.w3.org/1999/02/22-rdf-syntax-ns#"
   xmlns:svg="http://www.w3.org/2000/svg"
   xmlns="http://www.w3.org/2000/svg"
   xmlns:sodipodi="http://sodipodi.sourceforge.net/DTD/sodipodi-0.dtd"
   xmlns:inkscape="http://www.inkscape.org/namespaces/inkscape"
   width="1000"
   height="1000"
   viewBox="0 0 264.58333 264.58334"
   version="1.1"
   id="svg8"
   inkscape:version="0.92.4 (5da689c313, 2019-01-14)"
   sodipodi:docname="interior.svg">
  <defs
     id="defs2" />
  <sodipodi:namedview
     id="base"
     pagecolor="#ffffff"
     bordercolor="#666666"
     borderopacity="1.0"
     inkscape:pageopacity="0.0"
     inkscape:pageshadow="2"
     inkscape:zoom="0.5"
     inkscape:cx="243.7443"
     inkscape:cy="380.39274"
     inkscape:document-units="px"
     inkscape:current-layer="layer1"
     showgrid="false"
     units="px"
     inkscape:window-width="1920"
     inkscape:window-height="1137"
     inkscape:window-x="1272"
     inkscape:window-y="-8"
     inkscape:window-maximized="1"
     inkscape:snap-bbox="true"
     inkscape:snap-bbox-edge-midpoints="true" />
  <metadata
     id="metadata5">
    <rdf:RDF>
      <cc:Work
         rdf:about="">
        <dc:format>image/svg+xml</dc:format>
        <dc:type
           rdf:resource="http://purl.org/dc/dcmitype/StillImage" />
        <dc:title></dc:title>
      </cc:Work>
    </rdf:RDF>
  </metadata>
  <g
     inkscape:label="Ebene 1"
     inkscape:groupmode="layer"
     id="layer1"
     transform="translate(0,-32.41665)">
    <path
       style="display:inline;opacity:1;fill:#dcdcdc;fill-opacity:1;fill-rule:nonzero;stroke:none;stroke-width:13.22916603;stroke-linecap:round;stroke-linejoin:miter;stroke-miterlimit:4;stroke-dasharray:none;stroke-opacity:1;paint-order:markers stroke fill"
       d="M 35.514839,149.2113 130.96875,53.757466 226.42264,149.21129 V 286.41663 H 35.514839 Z"
       id="rect850"
       inkscape:connector-curvature="0"
       sodipodi:nodetypes="cccccc" />
    <path
       style="opacity:1;fill:#d8e356;fill-opacity:1;fill-rule:nonzero;stroke:none;stroke-width:49.99999619;stroke-linecap:round;stroke-linejoin:miter;stroke-miterlimit:4;stroke-dasharray:none;stroke-opacity:1;paint-order:markers stroke fill"
       d="M 444.74414,276.19922 V 377.21289 H 545.75977 V 276.19922 Z m -171.75,229.83594 V 607.05078 H 374.00977 V 506.03516 Z m -0.25391,244.45703 V 851.50781 H 373.75586 V 750.49219 Z"
       transform="matrix(0.26458333,0,0,0.26458333,0,32.41665)"
       id="rect949"
       inkscape:connector-curvature="0" />
    <path
       style="opacity:1;fill:#000000;fill-opacity:1;fill-rule:nonzero;stroke:none;stroke-width:42.16249847;stroke-linecap:round;stroke-linejoin:miter;stroke-miterlimit:4;stroke-dasharray:none;stroke-opacity:1;paint-order:markers stroke fill"
       d="M 495,80.658203 C 374.74284,200.91471 254.48564,321.17126 134.22852,441.42773 V 478.57227 682.14258 719.28516 922.85742 960 h 37.14453 305.05468 37.14454 342.19921 V 922.85742 478.57227 441.42773 C 735.51435,321.17127 615.25718,200.91469 495,80.658203 Z m 0,52.527347 308.24023,308.24218 H 513.57227 476.42773 186.75977 Z m -60.96875,132.29883 v 111.72851 h -11.27734 v 18.96094 h 144.49218 v -18.96094 h -10.77148 v -44.05664 -12.90039 -54.77148 z m 10.71289,10.71484 h 45.91406 v 44.05664 h -45.91406 z m 58.81445,0 h 42.20118 v 44.05664 h -42.20118 z m -58.81445,56.95703 h 45.91406 v 44.05664 h -45.91406 z m 58.81445,0 h 42.20118 v 44.05664 H 503.55859 Z M 171.37305,478.57227 H 476.42773 V 682.14258 H 171.37305 Z m 342.19922,0 H 818.62695 V 668.4707 L 513.57227,586.73047 Z M 262.2793,495.32031 v 111.72852 h -11.27735 v 18.96094 H 395.49414 V 607.04883 H 384.72266 V 562.99219 550.0918 495.32031 Z m 10.71289,10.71485 h 45.91406 v 44.05664 h -45.91406 z m 58.81445,0 h 42.20117 v 44.05664 h -42.20117 z m -58.81445,56.95703 h 45.91406 v 44.05664 h -45.91406 z m 58.81445,0 h 42.20117 v 44.05664 h -42.20117 z m 181.76563,62.1914 305.05468,81.74024 v 215.93359 h -73.75 V 780.98047 h 13.47461 V 762.01953 H 581.03125 v 18.96094 h 12.1875 V 922.85742 H 513.57227 Z M 171.37305,719.28516 H 476.42773 V 922.85742 H 171.37305 Z m 90.65429,20.49414 V 851.50781 H 250.75 v 18.96094 H 395.24219 V 851.50781 H 384.4707 V 807.45117 794.55078 739.7793 Z m 10.71289,10.71484 h 45.91407 v 44.05664 h -45.91407 z m 58.81446,0 h 42.20117 v 44.05664 h -42.20117 z m -58.81446,56.95703 h 45.91407 v 44.05664 h -45.91407 z m 58.81446,0 h 42.20117 v 44.05664 h -42.20117 z"
       transform="matrix(0.26458333,0,0,0.26458333,0,32.41665)"
       id="rect852"
       inkscape:connector-curvature="0" />
    <g
       style="display:inline"
       inkscape:label="door"
       transform="matrix(0.20715555,-1.874327e-4,0,0.22010888,149.85092,226.47393)"
       id="g826">
      <path
         inkscape:label="frame"
         style="opacity:1;fill:#693402;fill-opacity:1;stroke:none;stroke-width:3.28360701;stroke-linecap:round;stroke-linejoin:round;stroke-miterlimit:4;stroke-dasharray:none;stroke-opacity:1"
         d="M 53.900245,57.319065 H 210.68302 V 272.39353 H 53.900245 Z"
         id="rect814"
         inkscape:connector-curvature="0"
         sodipodi:nodetypes="ccccc" />
      <rect
         inkscape:label="knob"
         style="opacity:1;fill:#8b8884;fill-opacity:1;fill-rule:nonzero;stroke:none;stroke-width:13.11892414;stroke-linecap:round;stroke-linejoin:miter;stroke-miterlimit:4;stroke-dasharray:none;stroke-opacity:1"
         id="rect815"
         width="25.702379"
         height="12.85119"
         x="70.190521"
         y="158.43069"
         ry="0" />
      <path
         inkscape:label="plates"
         style="opacity:1;fill:#934903;fill-opacity:1;fill-rule:nonzero;stroke:none;stroke-width:22.41020966;stroke-linecap:round;stroke-linejoin:miter;stroke-miterlimit:4;stroke-dasharray:none;stroke-opacity:1"
         d="M 70.190522,72.032762 V 149.81043 H 194.39274 V 72.032762 Z m 0,107.869378 v 77.77768 H 194.39274 v -77.77768 z"
         id="path866"
         inkscape:connector-curvature="0" />
      <path
         inkscape:label="accessoires"
         style="opacity:1;fill:#693402;fill-opacity:1;stroke:none;stroke-width:0.69301683;stroke-linecap:round;stroke-linejoin:round;stroke-miterlimit:4;stroke-dasharray:none;stroke-opacity:1"
         d="m 84.597392,81.637092 v 58.569028 h 12.25506 V 81.637092 Z m 27.711478,0 v 58.569028 h 12.25506 V 81.637092 Z m 27.71045,0 v 58.569028 h 12.25507 V 81.637092 Z m 27.71149,0 v 58.569028 h 12.25506 V 81.637092 Z M 84.597392,189.50647 v 58.56903 h 12.25506 v -58.56903 z m 27.711478,0 v 58.56903 h 12.25506 v -58.56903 z m 27.71045,0 v 58.56903 h 12.25507 v -58.56903 z m 27.71149,0 v 58.56903 h 12.25506 v -58.56903 z"
         id="path855"
         inkscape:connector-curvature="0" />
    </g>
  </g>
</svg>
