<?xml version="1.0" encoding="UTF-8" standalone="no"?>
<!-- Created with Inkscape (http://www.inkscape.org/) -->

<svg
   xmlns:dc="http://purl.org/dc/elements/1.1/"
   xmlns:cc="http://creativecommons.org/ns#"
   xmlns:rdf="http://www.w3.org/1999/02/22-rdf-syntax-ns#"
   xmlns:svg="http://www.w3.org/2000/svg"
   xmlns="http://www.w3.org/2000/svg"
   xmlns:sodipodi="http://sodipodi.sourceforge.net/DTD/sodipodi-0.dtd"
   xmlns:inkscape="http://www.inkscape.org/namespaces/inkscape"
   width="1000"
   height="1000"
   viewBox="0 0 264.58333 264.58334"
   version="1.1"
   id="svg8"
   inkscape:version="0.92.2 (5c3e80d, 2017-08-06)"
   sodipodi:docname="log.svg">
  <defs
     id="defs2" />
  <sodipodi:namedview
     id="base"
     pagecolor="#ffffff"
     bordercolor="#666666"
     borderopacity="1.0"
     inkscape:pageopacity="0.0"
     inkscape:pageshadow="2"
     inkscape:zoom="0.70000002"
     inkscape:cx="311.60317"
     inkscape:cy="608.79263"
     inkscape:document-units="px"
     inkscape:current-layer="layer1"
     showgrid="false"
     units="px"
     inkscape:window-width="1920"
     inkscape:window-height="1137"
     inkscape:window-x="-8"
     inkscape:window-y="-8"
     inkscape:window-maximized="1" />
  <metadata
     id="metadata5">
    <rdf:RDF>
      <cc:Work
         rdf:about="">
        <dc:format>image/svg+xml</dc:format>
        <dc:type
           rdf:resource="http://purl.org/dc/dcmitype/StillImage" />
        <dc:title></dc:title>
      </cc:Work>
    </rdf:RDF>
  </metadata>
  <g
     inkscape:label="Ebene 1"
     inkscape:groupmode="layer"
     id="layer1"
     transform="translate(0,-32.41665)">
    <g
       id="g876"
       transform="translate(0.47745617,-8.5987748)">
      <path
         inkscape:connector-curvature="0"
         id="rect845"
         d="m 103.94338,55.473123 c -9.42295,0 -17.008784,7.586354 -17.008784,17.009299 V 249.37498 c 0,9.42295 7.585834,17.0093 17.008784,17.0093 h 128.51205 c 9.42295,0 17.00878,-7.58635 17.00878,-17.0093 V 72.482422 c 0,-9.422945 -7.58583,-17.009299 -17.00878,-17.009299 z m 58.86255,9.614917 c 5.32687,0 9.49954,1.523661 12.5181,4.571815 3.01856,3.04815 4.52789,7.257944 4.52789,12.629202 0,5.356463 -1.50933,9.55883 -4.52789,12.606983 -3.01856,3.048151 -7.19123,4.572331 -12.5181,4.572331 -5.31207,0 -9.48474,-1.52418 -12.5181,-4.572331 -3.01855,-3.048153 -4.52789,-7.25052 -4.52789,-12.606983 0,-5.371258 1.50934,-9.581052 4.52789,-12.629202 3.03336,-3.048154 7.20603,-4.571815 12.5181,-4.571815 z m 39.99601,0 c 2.20473,0 4.31334,0.206838 6.32571,0.621152 2.02717,0.414311 3.93585,1.028438 5.72627,1.842264 v 6.858495 c -1.84961,-1.050576 -3.69199,-1.834938 -5.5268,-2.352826 -1.82001,-0.51789 -3.64702,-0.776697 -5.48183,-0.776697 -3.40328,0 -6.03002,0.954079 -7.87962,2.862873 -1.83482,1.893999 -2.75229,4.609309 -2.75229,8.145756 0,3.506854 0.88778,6.21474 2.6634,8.123537 1.77563,1.908794 4.29843,2.863389 7.56853,2.863389 0.88781,0 1.7093,-0.05197 2.46393,-0.155546 0.76944,-0.118374 1.45729,-0.296034 2.06396,-0.532783 v -6.436299 h -5.2157 v -5.726782 h 13.31701 v 15.936494 c -2.13074,1.03578 -4.34277,1.812716 -6.63628,2.330606 -2.29351,0.51789 -4.66093,0.776698 -7.10241,0.776698 -5.51923,0 -9.89183,-1.539026 -13.11755,-4.616773 -3.22571,-3.092542 -4.83846,-7.280063 -4.83846,-12.562541 0,-5.341665 1.64245,-9.544034 4.92735,-12.606983 3.2849,-3.062949 7.78319,-4.594034 13.49478,-4.594034 z m -82.47765,0.598929 h 8.54521 v 26.678993 h 15.00374 v 6.458519 h -23.54895 z m 42.48164,5.593459 c -2.60424,0 -4.62376,0.961503 -6.05906,2.885096 -1.43529,1.923589 -2.15336,4.631475 -2.15336,8.123533 0,3.47726 0.71807,6.177725 2.15336,8.101314 1.4353,1.923593 3.45482,2.885612 6.05906,2.885612 2.61905,0 4.64599,-0.962019 6.08129,-2.885612 1.43529,-1.923589 2.15335,-4.624054 2.15335,-8.101314 0,-3.492058 -0.71806,-6.199944 -2.15335,-8.123533 -1.4353,-1.923593 -3.46224,-2.885096 -6.08129,-2.885096 z M 90.027432,106.91339 H 246.37086 v 138.16056 c 0,9.06431 -7.29644,16.36128 -16.36076,16.36128 H 106.38871 c -9.064319,0 -16.361281,-7.29697 -16.361278,-16.36128 z m 15.994888,21.50928 c -2.82689,0 -5.10253,2.27565 -5.10253,5.10254 0,2.82688 2.27564,5.10253 5.10253,5.10253 h 124.35416 c 2.82688,0 5.10254,-2.27565 5.10254,-5.10253 0,-2.82689 -2.27566,-5.10254 -5.10254,-5.10254 z m 0,31.37173 c -2.82689,0 -5.10253,2.27617 -5.10253,5.10305 0,2.82688 2.27564,5.10253 5.10253,5.10253 h 124.35416 c 2.82688,0 5.10254,-2.27565 5.10254,-5.10253 0,-2.82688 -2.27566,-5.10305 -5.10254,-5.10305 z m 0,31.37225 c -2.82689,0 -5.10253,2.27564 -5.10253,5.10253 0,2.82688 2.27564,5.10305 5.10253,5.10305 h 124.35416 c 2.82688,0 5.10254,-2.27617 5.10254,-5.10305 0,-2.82689 -2.27566,-5.10253 -5.10254,-5.10253 z m 0,31.37224 c -2.82689,0 -5.10253,2.27565 -5.10253,5.10253 0,2.82689 2.27564,5.10254 5.10253,5.10254 h 124.35416 c 2.82688,0 5.10254,-2.27565 5.10254,-5.10254 0,-2.82688 -2.27566,-5.10253 -5.10254,-5.10253 z"
         style="opacity:1;fill:#002aae;fill-opacity:1;fill-rule:nonzero;stroke:none;stroke-width:0.46452552;stroke-linecap:round;stroke-linejoin:miter;stroke-miterlimit:4;stroke-dasharray:none;stroke-opacity:1" />
      <path
         inkscape:connector-curvature="0"
         id="path822"
         d="m 104.88839,147.10489 c -13.643739,0 -27.287109,5.2042 -37.696929,15.61403 -17.50984,17.55395 -20.60669,44.86241 -7.47241,65.89159 l -45.55484,45.55432 16.97571,16.97623 45.54554,-45.54606 c 21.03319,13.1368 48.347259,10.03616 65.900369,-7.4812 20.81966,-20.81963 20.81968,-54.57525 0,-75.39488 -10.40981,-10.40983 -24.0537,-15.61403 -37.69744,-15.61403 z m 0,21.76094 c 8.07447,-10e-6 16.14914,3.08017 22.30975,9.24078 12.32124,12.32124 12.32123,32.29826 0,44.6195 -12.32125,12.32121 -32.297759,12.32123 -44.618979,0 -12.32122,-12.32121 -12.32122,-32.29827 0,-44.6195 6.16062,-6.16062 14.23476,-9.24078 22.309229,-9.24078 z"
         style="font-style:normal;font-variant:normal;font-weight:normal;font-stretch:normal;font-size:228.23371887px;line-height:1.25;font-family:'Source Code Pro';-inkscape-font-specification:'Source Code Pro';letter-spacing:0px;word-spacing:0px;fill:#5d1111;fill-opacity:1;stroke:none;stroke-width:5.70584297" />
    </g>
  </g>
</svg>
