<?xml version="1.0" encoding="UTF-8" standalone="no"?>
<!-- Created with Inkscape (http://www.inkscape.org/) -->

<svg
   xmlns:dc="http://purl.org/dc/elements/1.1/"
   xmlns:cc="http://creativecommons.org/ns#"
   xmlns:rdf="http://www.w3.org/1999/02/22-rdf-syntax-ns#"
   xmlns:svg="http://www.w3.org/2000/svg"
   xmlns="http://www.w3.org/2000/svg"
   xmlns:sodipodi="http://sodipodi.sourceforge.net/DTD/sodipodi-0.dtd"
   xmlns:inkscape="http://www.inkscape.org/namespaces/inkscape"
   width="1000"
   height="1000"
   viewBox="0 0 264.58333 264.58334"
   version="1.1"
   id="svg8"
   inkscape:version="0.92.2 (5c3e80d, 2017-08-06)"
   sodipodi:docname="multi.svg">
  <defs
     id="defs2" />
  <sodipodi:namedview
     id="base"
     pagecolor="#ffffff"
     bordercolor="#666666"
     borderopacity="1.0"
     inkscape:pageopacity="0.0"
     inkscape:pageshadow="2"
     inkscape:zoom="0.49497476"
     inkscape:cx="-163.68256"
     inkscape:cy="550.7632"
     inkscape:document-units="px"
     inkscape:current-layer="svg8"
     showgrid="false"
     units="px"
     inkscape:window-width="1920"
     inkscape:window-height="1137"
     inkscape:window-x="-8"
     inkscape:window-y="-8"
     inkscape:window-maximized="1"
     inkscape:snap-intersection-paths="true"
     inkscape:snap-bbox="true"
     inkscape:snap-bbox-edge-midpoints="true" />
  <metadata
     id="metadata5">
    <rdf:RDF>
      <cc:Work
         rdf:about="">
        <dc:format>image/svg+xml</dc:format>
        <dc:type
           rdf:resource="http://purl.org/dc/dcmitype/StillImage" />
        <dc:title></dc:title>
      </cc:Work>
    </rdf:RDF>
  </metadata>
  <path
     style="color:#000000;font-style:normal;font-variant:normal;font-weight:normal;font-stretch:normal;font-size:medium;line-height:normal;font-family:sans-serif;font-variant-ligatures:normal;font-variant-position:normal;font-variant-caps:normal;font-variant-numeric:normal;font-variant-alternates:normal;font-feature-settings:normal;text-indent:0;text-align:start;text-decoration:none;text-decoration-line:none;text-decoration-style:solid;text-decoration-color:#000000;letter-spacing:normal;word-spacing:normal;text-transform:none;writing-mode:lr-tb;direction:ltr;text-orientation:mixed;dominant-baseline:auto;baseline-shift:baseline;text-anchor:start;white-space:normal;shape-padding:0;clip-rule:nonzero;display:inline;overflow:visible;visibility:visible;opacity:1;isolation:auto;mix-blend-mode:normal;color-interpolation:sRGB;color-interpolation-filters:linearRGB;solid-color:#000000;solid-opacity:1;vector-effect:none;fill:#000000;fill-opacity:1;fill-rule:nonzero;stroke:none;stroke-width:6.22202396;stroke-linecap:round;stroke-linejoin:miter;stroke-miterlimit:4;stroke-dasharray:none;stroke-dashoffset:0;stroke-opacity:1;color-rendering:auto;image-rendering:auto;shape-rendering:auto;text-rendering:auto;enable-background:accumulate"
     d="m 132.2941,13.630869 c -65.498834,0 -118.665668,53.161948 -118.665675,118.660791 0,65.49885 53.166841,118.6608 118.665675,118.6608 65.49886,0 118.66081,-53.16195 118.66081,-118.6608 0,-65.498843 -53.16195,-118.660791 -118.66081,-118.660791 z m -27.32587,9.565146 C 93.119259,29.102508 82.56789,38.70629 74.027025,50.908325 66.627383,61.479945 60.685093,74.020627 56.607788,87.912358 54.698517,88.731163 52.83845,89.578711 51.038343,90.458279 37.489949,97.078343 26.934353,105.50688 21.141033,115.20662 27.98718,70.229789 61.445611,34.048515 104.96823,23.196015 Z m 54.6493,0 c 43.52171,10.851858 76.97832,47.031932 83.82476,92.008185 -5.79226,-9.69878 -16.34515,-18.126383 -29.89245,-24.745921 -1.80131,-0.880155 -3.6637,-1.727824 -5.5743,-2.547142 C 203.89827,74.019966 197.95571,61.47959 190.55629,50.908325 182.01532,38.70609 171.46545,29.102485 159.61753,23.196015 Z m -27.32343,0.544427 c 3.37315,0 7.05312,2.276305 10.84359,7.490735 3.79047,5.214429 7.41723,13.125577 10.45833,23.016626 1.94264,6.318266 3.65349,13.449311 5.08577,21.216861 -8.47804,-0.974635 -17.30914,-1.489883 -26.38769,-1.489883 -9.07899,0 -17.9105,0.515158 -26.38891,1.489883 1.4329,-7.76755 3.14315,-14.898595 5.08576,-21.216861 3.04111,-9.891049 6.66425,-17.802197 10.45472,-23.016626 3.79047,-5.21443 7.4753,-7.490735 10.84843,-7.490735 z m 13.44663,0.821501 c 15.23513,3.962384 28.96837,14.558435 39.71766,29.915542 6.13864,8.770091 11.26054,19.077237 15.06287,30.492775 -10.59059,-3.836437 -22.5149,-6.785695 -35.36222,-8.659794 -1.53976,-8.72869 -3.42391,-16.767116 -5.61442,-23.891602 -3.17176,-10.315927 -6.94785,-18.756676 -11.37222,-24.843126 -0.78156,-1.075204 -1.59345,-2.080789 -2.43167,-3.013795 z m -26.89811,0.0013 c -0.83812,0.93268 -1.65044,1.93782 -2.43169,3.012577 -4.42437,6.086451 -8.19561,14.527199 -11.36735,24.843127 -2.19049,7.124455 -4.07467,15.162955 -5.614402,23.891602 -12.84877,1.874228 -24.77441,4.823854 -35.365897,8.660926 3.801365,-11.416001 8.922795,-21.723601 15.06168,-30.49399 C 89.873092,39.122002 103.6082,28.526531 118.84262,24.56316 Z M 132.2941,80.1981 c 9.48695,0 18.69346,0.584998 27.47536,1.675814 2.37889,15.086083 3.74291,32.232126 3.74291,50.417826 0,18.18594 -1.36397,35.33284 -3.74291,50.41906 -8.7819,1.09083 -17.98841,1.67582 -27.47536,1.67582 -9.487,0 -18.69404,-0.58498 -27.47655,-1.67582 -2.3803,-15.08625 -3.7466,-32.23308 -3.7466,-50.41906 0,-18.18565 1.36517,-35.331761 3.74538,-50.417826 8.78289,-1.090929 17.99032,-1.675814 27.47777,-1.675814 z m -33.927062,2.581122 c -2.256574,14.980079 -3.515661,31.762128 -3.515661,49.512438 0,17.75032 1.259087,34.53359 3.515661,49.5137 -13.541488,-2.11627 -25.927199,-5.45414 -36.57261,-9.72191 -3.338753,-12.32466 -5.184195,-25.74477 -5.184195,-39.79179 0,-14.04669 1.845583,-27.46612 5.184195,-39.790559 10.645411,-4.267774 23.031122,-7.605653 36.57261,-9.721915 z m 67.854122,0 c 13.54049,2.116381 25.92531,5.455218 36.57018,9.723128 3.33945,12.32413 5.18663,25.74309 5.18663,39.78935 0,14.0466 -1.84704,27.46621 -5.18663,39.79058 -10.64487,4.26791 -23.02969,7.60674 -36.57018,9.72312 2.25657,-14.9801 3.51568,-31.76339 3.51568,-49.5137 0,-17.75031 -1.25911,-34.532367 -3.51568,-49.512478 z M 54.556462,95.676517 c -2.708384,11.514133 -4.169484,23.824083 -4.169484,36.615143 0,12.79147 1.460944,25.10193 4.169484,36.61638 -0.262773,-0.12581 -0.529841,-0.24966 -0.789903,-0.37674 -19.884757,-9.71615 -31.342234,-22.71559 -31.342234,-36.23964 0,-13.52404 11.457477,-26.52227 31.342234,-36.238418 0.260062,-0.12709 0.52713,-0.250879 0.789903,-0.376725 z m 155.470398,0 c 0.26278,0.125835 0.52985,0.249653 0.78992,0.376725 19.88476,9.716148 31.34708,22.714378 31.34708,36.238418 0,13.52405 -11.46232,26.52349 -31.34708,36.23964 -0.26007,0.1271 -0.52714,0.25089 -0.78992,0.37674 2.70853,-11.51445 4.16949,-23.82491 4.16949,-36.61638 0,-12.79106 -1.46111,-25.10101 -4.16949,-36.615143 z M 21.139819,149.37672 c 5.793246,9.69859 16.349875,18.12328 29.898524,24.74348 1.799647,0.87934 3.659478,1.72724 5.568245,2.54592 4.077329,13.89404 10.019783,26.43703 17.420437,37.01011 8.541147,12.20241 19.092987,21.80586 30.942435,27.71229 -43.523639,-10.85226 -76.983895,-47.03396 -83.829641,-92.0118 z m 222.302471,0.003 c -6.84608,44.97717 -40.30333,81.15777 -83.82598,92.00937 11.84839,-5.9064 22.39872,-15.50967 30.93998,-27.71229 7.4005,-10.57282 13.34436,-23.11531 17.42168,-37.00889 1.90972,-0.81906 3.77136,-1.66738 5.57187,-2.54716 13.5473,-6.61953 24.10019,-15.04364 29.89245,-24.74103 z M 64.062081,179.60863 c 10.591771,3.83792 22.517856,6.78933 35.367097,8.66465 1.539782,8.72912 3.423812,16.76684 5.614402,23.8916 3.17174,10.31595 6.94298,18.75787 11.36735,24.84433 0.7816,1.07526 1.59439,2.07956 2.43289,3.0126 -15.23487,-3.96364 -28.97047,-14.55895 -39.718859,-29.91482 -6.139685,-8.77153 -11.261373,-19.08106 -15.06288,-30.49886 z m 136.460409,0.001 c -3.8025,11.41734 -8.92464,21.72642 -15.0641,30.49766 -10.74958,15.3575 -24.4833,25.95338 -39.71889,29.91552 0.83865,-0.93335 1.65096,-1.9381 2.4329,-3.01381 4.42437,-6.08646 8.20046,-14.52838 11.37222,-24.84433 2.1906,-7.12478 4.07462,-15.16244 5.61442,-23.8916 12.84778,-1.87509 24.77256,-4.82616 35.36345,-8.66344 z m -94.6173,9.50805 c 8.47841,0.97526 17.3099,1.4923 26.38891,1.4923 9.07854,0 17.90966,-0.51593 26.38769,-1.49109 -1.43228,7.76759 -3.14313,14.89978 -5.08577,21.21807 -3.0411,9.89105 -6.66786,17.80097 -10.45833,23.0154 -3.79047,5.21444 -7.47044,7.49195 -10.84359,7.49195 -3.37313,0 -7.05796,-2.27751 -10.84843,-7.49195 -3.79047,-5.21443 -7.41361,-13.12435 -10.45472,-23.0154 -1.9427,-6.31862 -3.65281,-13.45124 -5.08576,-21.21928 z"
     id="path4701"
     inkscape:connector-curvature="0" />
  <g
     inkscape:label="Ebene 1"
     id="layer1"
     transform="matrix(1.3847916,0,0,1.3847916,-50.904835,-56.610254)">
    <path
       style="color:#000000;font-style:normal;font-variant:normal;font-weight:normal;font-stretch:normal;font-size:medium;line-height:normal;font-family:sans-serif;font-variant-ligatures:normal;font-variant-position:normal;font-variant-caps:normal;font-variant-numeric:normal;font-variant-alternates:normal;font-feature-settings:normal;text-indent:0;text-align:start;text-decoration:none;text-decoration-line:none;text-decoration-style:solid;text-decoration-color:#000000;letter-spacing:normal;word-spacing:normal;text-transform:none;writing-mode:lr-tb;direction:ltr;text-orientation:mixed;dominant-baseline:auto;baseline-shift:baseline;text-anchor:start;white-space:normal;shape-padding:0;clip-rule:nonzero;display:inline;overflow:visible;visibility:visible;opacity:1;isolation:auto;mix-blend-mode:normal;color-interpolation:sRGB;color-interpolation-filters:linearRGB;solid-color:#000000;solid-opacity:1;vector-effect:none;fill:#000000;fill-opacity:1;fill-rule:nonzero;stroke:none;stroke-width:2.64583325;stroke-linecap:round;stroke-linejoin:miter;stroke-miterlimit:4;stroke-dasharray:none;stroke-dashoffset:0;stroke-opacity:1;color-rendering:auto;image-rendering:auto;shape-rendering:auto;text-rendering:auto;enable-background:accumulate"
       d="m 85.066406,114.875 -0.02148,0.002 c -4.653941,0.25015 -9.820845,0.38779 -14.386719,2.83203 -0.88486,0.47263 -1.280941,1.17252 -1.535156,1.48829 -0.254544,0.31617 -0.143718,0.27128 -0.367188,0.27734 l -0.263671,0.008 -0.242188,0.10742 c -6.432999,2.88856 -10.050052,9.24617 -12.642578,15.04883 l -0.0078,0.0137 -0.0039,0.0137 c -5.509301,13.10387 -6.959708,27.50459 -6.435547,41.47265 v 0.0117 0.0137 c 0.701904,12.17319 2.793638,24.7519 8.927735,35.6836 l 0.0039,0.01 0.0059,0.008 c 2.911024,5.00652 7.405336,10.44232 14.017578,11.08789 h 0.01758 l 0.01563,0.002 c 6.38967,0.46469 11.397835,-4.26441 14.464843,-8.9082 v -0.002 c 5.443027,-8.26144 7.844612,-17.93191 9.263672,-27.44336 6.109803,4.43671 15.021343,4.3163 20.861323,-0.65429 3.48045,-2.8168 5.64666,-7.01242 6.12891,-11.44922 h 18.82617 c 0.78455,8.17994 7.87551,15.05778 16.16602,15.31445 3.86073,0.20164 7.70101,-1.00941 10.83203,-3.26367 1.47151,10.09776 4.1125,20.39904 10.2539,28.94726 l 0.0137,0.0176 0.0117,0.0176 c 3.05463,3.97232 7.76238,7.96717 13.52149,7.39063 6.38143,-0.5675 10.80252,-5.74168 13.67383,-10.52735 l 0.004,-0.008 0.004,-0.006 c 5.9989,-10.28327 8.1946,-22.18368 9.09375,-33.7168 l 0.002,-0.0117 v -0.01 c 0.87161,-14.09781 -0.39811,-28.61741 -5.48633,-41.99414 l -0.006,-0.0117 -0.004,-0.0137 c -2.45763,-6.08647 -5.85568,-12.63838 -12.03711,-16.25391 -0.7418,-0.59071 -1.48917,-0.76644 -1.90625,-0.92969 -0.42859,-0.16775 -0.39387,-0.13741 -0.43555,-0.26562 l -0.11328,-0.34961 -0.2793,-0.24219 c -3.26365,-2.82237 -7.60654,-2.94083 -11.04297,-3.4375 l -0.0469,-0.006 -0.0449,-0.004 c -6.708,-0.49426 -13.81487,-0.53812 -20.45899,1.78125 -0.83419,0.19598 -1.43086,0.63742 -1.88476,0.99218 -0.37672,0.29444 -0.61236,0.46709 -0.79492,0.58203 h -28.55567 -28.55566 c -2.61492,-2.36716 -6.208361,-2.62464 -8.898436,-3.125 l -0.0332,-0.006 -0.03516,-0.006 c -3.180915,-0.4243 -6.384718,-0.54954 -9.564453,-0.47852 z m 0.0918,2.64453 c 3.058093,-0.0678 6.112244,0.0554 9.119141,0.45508 3.098186,0.57359 6.233763,0.87798 7.947263,2.73437 l 0.39258,0.42579 h 58.79297 l 0.26367,-0.12305 c 0.67221,-0.31199 1.10194,-0.72325 1.47851,-1.01758 0.37658,-0.29432 0.66578,-0.46068 0.86133,-0.50586 l 0.0742,-0.0176 0.0703,-0.0254 c 6.09504,-2.15879 12.86546,-2.15761 19.48047,-1.67187 3.61033,0.5187 7.27415,0.77079 9.63281,2.81054 l -0.39257,-0.59179 c 0.35457,1.09063 1.33814,1.6584 1.98632,1.91211 0.64819,0.25371 1.08433,0.40287 1.23438,0.52734 l 0.0879,0.0723 0.0996,0.0566 c 5.40196,3.09486 8.61888,9.08405 11.02344,15.03515 4.91151,12.91542 6.17265,27.05466 5.31836,40.87891 -8e-5,0.001 8e-5,0.003 0,0.004 -0.88509,11.33228 -3.05224,22.81803 -8.74024,32.56836 -2.68316,4.46745 -6.59599,8.79783 -11.63867,9.24218 h -0.008 l -0.008,0.002 c -4.37067,0.44074 -8.38043,-2.7588 -11.15235,-6.35743 -6.18178,-8.61474 -8.75569,-19.36111 -10.12891,-29.96289 l -0.33984,-2.61328 -1.89258,1.83203 c -2.807,2.71518 -6.82568,4.18923 -10.73242,3.98243 l -0.0156,-0.002 h -0.0156 c -7.22699,-0.2145 -13.69653,-6.77427 -13.76953,-14.00781 l -0.0117,-1.31055 h -23.73437 l -0.0371,1.28516 c -0.1219,4.11334 -2.13569,8.17528 -5.33594,10.76172 l -0.0156,0.01 -0.0117,0.0117 c -5.3387,4.55825 -14.19189,4.23475 -19.169923,-0.71484 l -1.890625,-1.87891 -0.353516,2.64258 c -1.345425,10.06672 -3.69295,20.22809 -9.222656,28.62109 h 0.002 c -2.785128,4.217 -7.096555,8.07456 -12.048828,7.72461 -5.25707,-0.52196 -9.240909,-5.08607 -11.966797,-9.77148 -5.830732,-10.39606 -7.897634,-22.56005 -8.587891,-34.53125 -0.511713,-13.70575 0.929247,-27.70695 6.228516,-40.31445 8e-4,-0.002 0.0012,-0.004 0.002,-0.006 2.506162,-5.60369 5.878298,-11.25269 11.300781,-13.6875 l -0.505859,0.11523 c 1.108972,-0.0301 1.954724,-0.76347 2.357422,-1.26367 0.402698,-0.5002 0.586105,-0.74184 0.71875,-0.8125 l 0.002,-0.002 c 3.846336,-2.05906 8.572637,-2.27016 13.251953,-2.52149 z"
       id="path4685"
       inkscape:connector-curvature="0"
       sodipodi:nodetypes="ccccccccccccccccccccccccccccccccccccccccccccccccccccccccccccccccccccccccccccccccccccccccccccccccccccccccccccscccc" />
    <path
       style="display:inline;opacity:1;fill:#ffffff;fill-opacity:1;fill-rule:nonzero;stroke:none;stroke-width:2.13195658;stroke-linecap:round;stroke-linejoin:miter;stroke-miterlimit:4;stroke-dasharray:none;stroke-opacity:1"
       d="m 276.15234,332.31445 a 83.842659,190.54246 0 0 0 -83.84375,190.54297 83.842659,190.54246 0 0 0 83.84375,190.54297 83.842659,190.54246 0 0 0 81.1543,-144.25195 58.083769,58.083769 0 0 0 42.75,18.84961 A 58.083769,58.083769 0 0 0 458.13672,530 h 83.72656 a 58.083769,58.083769 0 0 0 58.08008,57.99805 58.083769,58.083769 0 0 0 42.66797,-18.7793 83.842659,190.54246 0 0 0 81.23633,144.18164 83.842659,190.54246 0 0 0 83.84179,-190.54297 83.842659,190.54246 0 0 0 -82.86914,-190.43164 l 0.0371,-0.11133 H 723.84765 276.5703 l 0.0156,0.0488 a 83.842659,190.54246 0 0 0 -0.4336,-0.0488 z"
       transform="matrix(0.26458333,0,0,0.26458333,0,32.41665)"
       id="ellipse4662"
       inkscape:connector-curvature="0" />
    <path
       style="opacity:1;fill:#000000;fill-opacity:1;fill-rule:nonzero;stroke:none;stroke-width:1.99999988;stroke-linecap:round;stroke-linejoin:miter;stroke-miterlimit:4;stroke-dasharray:none;stroke-opacity:1"
       d="m 327.85742,318.57227 a 61.428567,15.357142 0 0 0 -61.40039,15.14843 83.842657,190.54246 0 0 1 9.69531,-1.40625 83.842657,190.54246 0 0 1 0.4336,0.0488 l -0.0156,-0.0488 h 112.35938 a 61.428567,15.357142 0 0 0 -61.07227,-13.74218 z m 344.28516,0 a 61.428567,15.357142 0 0 0 -61.01563,13.74218 h 112.72071 1.00976 l -0.0371,0.11133 a 83.842657,190.54246 0 0 1 8.75,1.51172 61.428567,15.357142 0 0 0 0.002,-0.01 61.428567,15.357142 0 0 0 -61.42969,-15.35546 z m 29.28711,53.12695 a 20.226625,20.226625 0 0 0 -20.22657,20.22656 20.226625,20.226625 0 0 0 20.22657,20.22656 20.226625,20.226625 0 0 0 20.22656,-20.22656 20.226625,20.226625 0 0 0 -20.22656,-20.22656 z m -266.60742,15.13086 a 12.905198,12.905198 0 0 0 -12.90625,12.9043 12.905198,12.905198 0 0 0 12.90625,12.90624 12.905198,12.905198 0 0 0 12.90429,-12.90624 12.905198,12.905198 0 0 0 -12.90429,-12.9043 z m 130.35546,0 a 12.905198,12.905198 0 0 0 -12.90429,12.9043 12.905198,12.905198 0 0 0 12.90429,12.90624 12.905198,12.905198 0 0 0 12.90625,-12.90624 12.905198,12.905198 0 0 0 -12.90625,-12.9043 z m -266.60546,5 a 35.940911,35.940911 0 0 0 -35.94141,35.93945 35.940911,35.940911 0 0 0 35.94141,35.94141 35.940911,35.940911 0 0 0 35.93945,-35.94141 35.940911,35.940911 0 0 0 -35.93945,-35.93945 z m 367.01171,15.71484 a 20.226625,20.226625 0 0 0 -20.22656,20.22656 20.226625,20.226625 0 0 0 20.22656,20.22657 20.226625,20.226625 0 0 0 20.22657,-20.22657 20.226625,20.226625 0 0 0 -20.22657,-20.22656 z m 71.68946,0 a 20.226625,20.226625 0 0 0 -20.22656,20.22656 20.226625,20.226625 0 0 0 20.22656,20.22657 A 20.226625,20.226625 0 0 0 757.5,427.77148 20.226625,20.226625 0 0 0 737.27344,407.54492 Z m -35.84375,35.84375 a 20.226625,20.226625 0 0 0 -20.22657,20.22656 20.226625,20.226625 0 0 0 20.22657,20.22657 20.226625,20.226625 0 0 0 20.22656,-20.22657 20.226625,20.226625 0 0 0 -20.22656,-20.22656 z M 384.69922,483.8418 v 30.71289 h -30.71484 v 30.71484 h 30.71484 v 30.71485 h 30.71484 v -30.71485 h 30.71289 V 514.55469 H 415.41406 V 483.8418 Z m 215.24414,10.13086 a 35.940911,35.940911 0 0 0 -35.94141,35.9414 35.940911,35.940911 0 0 0 35.94141,35.93946 35.940911,35.940911 0 0 0 35.94141,-35.93946 35.940911,35.940911 0 0 0 -35.94141,-35.9414 z"
       transform="matrix(0.26458333,0,0,0.26458333,0,32.41665)"
       id="path4621"
       inkscape:connector-curvature="0" />
  </g>
</svg>
