<?xml version="1.0" encoding="UTF-8" standalone="no"?>
<svg
   xmlns:dc="http://purl.org/dc/elements/1.1/"
   xmlns:cc="http://creativecommons.org/ns#"
   xmlns:rdf="http://www.w3.org/1999/02/22-rdf-syntax-ns#"
   xmlns:svg="http://www.w3.org/2000/svg"
   xmlns="http://www.w3.org/2000/svg"
   xmlns:sodipodi="http://sodipodi.sourceforge.net/DTD/sodipodi-0.dtd"
   xmlns:inkscape="http://www.inkscape.org/namespaces/inkscape"
   width="1000"
   height="1000"
   viewBox="0 0 264.58333 264.58334"
   version="1.1"
   id="svg8"
   inkscape:version="0.92.4 (5da689c313, 2019-01-14)"
   sodipodi:docname="opened_visible.svg">
  <defs
     id="defs2">
    <inkscape:path-effect
       effect="copy_rotate"
       starting_point="138.1503,164.70831"
       origin="132.29167,164.70831"
       id="path-effect824"
       is_visible="true"
       copies_to_360="true"
       fuse_paths="false"
       starting_angle="0"
       rotation_angle="45"
       num_copies="8" />
  </defs>
  <sodipodi:namedview
     id="base"
     pagecolor="#ffffff"
     bordercolor="#666666"
     borderopacity="1.0"
     inkscape:pageopacity="0.0"
     inkscape:pageshadow="2"
     inkscape:zoom="0.70000002"
     inkscape:cx="485.90716"
     inkscape:cy="449.23396"
     inkscape:document-units="px"
     inkscape:current-layer="layer1"
     showgrid="false"
     units="px"
     inkscape:window-width="1920"
     inkscape:window-height="1017"
     inkscape:window-x="1912"
     inkscape:window-y="-8"
     inkscape:window-maximized="1"
     inkscape:snap-object-midpoints="true"
     inkscape:snap-bbox="true"
     inkscape:snap-bbox-edge-midpoints="true"
     inkscape:document-rotation="0"
     inkscape:bbox-nodes="true" />
  <metadata
     id="metadata5">
    <rdf:RDF>
      <cc:Work
         rdf:about="">
        <dc:format>image/svg+xml</dc:format>
        <dc:type
           rdf:resource="http://purl.org/dc/dcmitype/StillImage" />
        <dc:title></dc:title>
      </cc:Work>
    </rdf:RDF>
  </metadata>
  <g
     inkscape:label="Ebene 1"
     inkscape:groupmode="layer"
     id="layer1"
     transform="translate(0,-32.41665)">
    <path
       id="path914"
       style="color:#000000;font-style:normal;font-variant:normal;font-weight:normal;font-stretch:normal;font-size:medium;line-height:normal;font-family:sans-serif;font-variant-ligatures:normal;font-variant-position:normal;font-variant-caps:normal;font-variant-numeric:normal;font-variant-alternates:normal;font-feature-settings:normal;text-indent:0;text-align:start;text-decoration:none;text-decoration-line:none;text-decoration-style:solid;text-decoration-color:#000000;letter-spacing:normal;word-spacing:normal;text-transform:none;writing-mode:lr-tb;direction:ltr;text-orientation:mixed;dominant-baseline:auto;baseline-shift:baseline;text-anchor:start;white-space:normal;shape-padding:0;clip-rule:nonzero;display:inline;overflow:visible;visibility:visible;opacity:1;isolation:auto;mix-blend-mode:normal;color-interpolation:sRGB;color-interpolation-filters:linearRGB;solid-color:#000000;solid-opacity:1;vector-effect:none;fill:#777777;fill-opacity:1;fill-rule:nonzero;stroke:none;stroke-width:13.22919273;stroke-linecap:round;stroke-linejoin:miter;stroke-miterlimit:4;stroke-dasharray:none;stroke-dashoffset:0;stroke-opacity:1;color-rendering:auto;image-rendering:auto;shape-rendering:auto;text-rendering:auto;enable-background:accumulate"
       d="M 132.29115,38.366379 C 62.383791,38.36638 5.5722686,95.17947 5.5722697,165.08681 c 0,69.90736 56.8115243,126.71888 126.7188803,126.71888 69.90734,0 126.72043,-56.81152 126.72043,-126.71888 0,-69.90734 -56.81309,-126.720431 -126.72043,-126.720431 z m 0,13.22865 c 62.75775,0 113.49229,50.734031 113.49229,113.491781 0,62.75777 -50.73454,113.49023 -113.49229,113.49023 -62.757767,0 -113.490231,-50.73246 -113.490231,-113.49023 -1e-6,-62.75775 50.732464,-113.491781 113.490231,-113.491781 z m 79.18018,62.053061 -104.87474,104.87473 -53.484587,-53.48459 -11.171928,11.17193 53.484591,53.48459 11.171924,11.17193 11.17193,-11.17193 104.87474,-104.87473 z"
       inkscape:connector-curvature="0" />
    <path
       style="opacity:1;fill:#ffffff;fill-opacity:1;fill-rule:nonzero;stroke:none;stroke-width:2.64583349;stroke-linecap:round;stroke-linejoin:miter;stroke-miterlimit:6;stroke-dasharray:none;stroke-opacity:1;paint-order:markers fill stroke"
       d="m 180.73047,195.02607 c -31.77096,2e-5 -74.13388,45.84061 -74.13388,45.84061 0,0 42.36292,45.84062 74.13388,45.84062 31.771,0 74.13453,-45.84062 74.13453,-45.84062 0,0 -42.36353,-45.84061 -74.13453,-45.84061 z m 3.2e-4,13.40464 c 17.91389,-1.4e-4 32.43613,14.52208 32.43597,32.43597 -2.8e-4,17.91357 -14.52239,32.4355 -32.43597,32.43533 -17.91328,-2.9e-4 -32.43506,-14.52205 -32.43532,-32.43533 -1.4e-4,-17.91358 14.52174,-32.43569 32.43532,-32.43597 z m 3.4e-4,16.87873 a 15.557171,15.557171 0 0 0 -15.55725,15.55692 15.557171,15.557171 0 0 0 15.55725,15.55724 15.557171,15.557171 0 0 0 15.55724,-15.55724 15.557171,15.557171 0 0 0 -15.55724,-15.55692 z"
       id="path825"
       inkscape:connector-curvature="0" />
  </g>
</svg>
